<?xml version="1.0" standalone="no"?><!DOCTYPE svg PUBLIC "-//W3C//DTD SVG 1.1//EN" "http://www.w3.org/Graphics/SVG/1.1/DTD/svg11.dtd" ><svg version="1.1" xmlns="http://www.w3.org/2000/svg"><defs><font horiz-adv-x="0" id="font"><font-face ascent="832" bbox="-238 -250 1270 991" cap-height="678" descent="-168" font-family="Gustan Book Italic" font-stretch="normal" font-style="italic" font-weight="600" units-per-em="1000" x-height="510" /><missing-glyph d="M800 115V665L525 390ZM160 665V115L435 390ZM480 435 759 714H201ZM201 66H759L480 345ZM90 780H870V0H90Z" horiz-adv-x="960" /><glyph d="M382 600Q370 574 358.5 550Q347 526 328 490L196 238H440L400 489Q395 518 391 545.5Q387 573 384 600ZM451 167H157L70 0H-28L338 678H452L569 0H479Z" glyph-name="A" horiz-adv-x="635" unicode="A" /><glyph d="M234 238H492L556 583H554Q532 559 504.5 528Q477 497 451 470ZM866 0H449L479 167H169L12 0H-108L539 678H983L970 607H652L610 381H886L873 310H597L553 71H879Z" glyph-name="AE" horiz-adv-x="951" unicode="&#198;" /><glyph d="M734 734H653L782 846H895ZM234 238H492L556 583H554Q532 559 504.5 528Q477 497 451 470ZM866 0H449L479 167H169L12 0H-108L539 678H983L970 607H652L610 381H886L873 310H597L553 71H879Z" glyph-name="AEacute" horiz-adv-x="951" unicode="&#508;" /><glyph d="M799 767H468L480 835H811ZM234 238H492L556 583H554Q532 559 504.5 528Q477 497 451 470ZM866 0H449L479 167H169L12 0H-108L539 678H983L970 607H652L610 381H886L873 310H597L553 71H879Z" glyph-name="AEmacron" horiz-adv-x="951" unicode="&#482;" /><glyph d="M445 734H364L493 846H606ZM382 600Q370 574 358.5 550Q347 526 328 490L196 238H440L400 489Q395 518 391 545.5Q387 573 384 600ZM451 167H157L70 0H-28L338 678H452L569 0H479Z" glyph-name="Aacute" horiz-adv-x="635" unicode="&#193;" /><glyph d="M408 786Q431 786 454.5 791.5Q478 797 495 814Q509 828 516 846H589Q575 805 550 780Q523 753 484.5 740.5Q446 728 400 728Q321 728 284 765Q269 780 260.5 799Q252 818 253 846H322Q322 832 326 823Q330 814 338 806Q350 794 369 790Q388 786 408 786ZM196 238H440L400 489Q395 518 391 545.5Q387 573 384 600H382Q370 574 358.5 550Q347 526 328 490ZM451 167H157L70 0H-28L338 678H452L569 0H479Z" glyph-name="Abreve" horiz-adv-x="635" unicode="&#258;" /><glyph d="M273 846H349L404 776L485 846H571L439 730H360ZM196 238H440L400 489Q395 518 391 545.5Q387 573 384 600H382Q370 574 358.5 550Q347 526 328 490ZM451 167H157L70 0H-28L338 678H452L569 0H479Z" glyph-name="Acaron" horiz-adv-x="635" unicode="&#461;" /><glyph d="M549 734H473L418 804L337 734H251L383 850H462ZM382 600Q370 574 358.5 550Q347 526 328 490L196 238H440L400 489Q395 518 391 545.5Q387 573 384 600ZM451 167H157L70 0H-28L338 678H452L569 0H479Z" glyph-name="Acircumflex" horiz-adv-x="635" unicode="&#194;" /><glyph d="M544 755H455L471 841H560ZM354 755H265L281 841H370ZM196 238H440L400 489Q395 518 391 545.5Q387 573 384 600H382Q370 574 358.5 550Q347 526 328 490ZM451 167H157L70 0H-28L338 678H452L569 0H479Z" glyph-name="Adieresis" horiz-adv-x="635" unicode="&#196;" /><glyph d="M546 755H457L473 841H562ZM356 755H267L283 841H372ZM599 905H268L280 973H611ZM196 238H440L400 489Q395 518 391 545.5Q387 573 384 600H382Q370 574 358.5 550Q347 526 328 490ZM451 167H157L70 0H-28L338 678H452L569 0H479Z" glyph-name="Adieresismacron" horiz-adv-x="635" unicode="&#478;" /><glyph d="M451 755H359L376 844H468ZM196 238H440L400 489Q395 518 391 545.5Q387 573 384 600H382Q370 574 358.5 550Q347 526 328 490ZM451 167H157L70 0H-28L338 678H452L569 0H479Z" glyph-name="Adotabove" horiz-adv-x="635" unicode="&#550;" /><glyph d="M193 846H286L373 734H312ZM333 846H426L513 734H452ZM382 600Q370 574 358.5 550Q347 526 328 490L196 238H440L400 489Q395 518 391 545.5Q387 573 384 600ZM451 167H157L70 0H-28L338 678H452L569 0H479Z" glyph-name="Adoublegrave" horiz-adv-x="635" unicode="&#512;" /><glyph d="M245 846H352L439 734H364ZM382 600Q370 574 358.5 550Q347 526 328 490L196 238H440L400 489Q395 518 391 545.5Q387 573 384 600ZM451 167H157L70 0H-28L338 678H452L569 0H479Z" glyph-name="Agrave" horiz-adv-x="635" unicode="&#192;" /><glyph d="M412 794Q389 794 365.5 788.5Q342 783 325 766Q311 752 304 734H231Q244 774 270 800Q297 827 335.5 839.5Q374 852 420 852Q499 852 536 815Q551 800 559.5 781Q568 762 567 734H498Q498 748 494 757Q490 766 482 774Q470 786 451 790Q432 794 412 794ZM382 600Q370 574 358.5 550Q347 526 328 490L196 238H440L400 489Q395 518 391 545.5Q387 573 384 600ZM451 167H157L70 0H-28L338 678H452L569 0H479Z" glyph-name="Ainvertedbreve" horiz-adv-x="635" unicode="&#514;" /><glyph d="M572 767H241L253 835H584ZM196 238H440L400 489Q395 518 391 545.5Q387 573 384 600H382Q370 574 358.5 550Q347 526 328 490ZM451 167H157L70 0H-28L338 678H452L569 0H479Z" glyph-name="Amacron" horiz-adv-x="635" unicode="&#256;" /><glyph d="M70 0H-28L338 678H452L569 0H479L424 351Q413 417 403.5 479.5Q394 542 386 596H384Q356 542 323.5 479.5Q291 417 256 351Z" glyph-name="Anocross" horiz-adv-x="635" unicode="&#59185;" /><glyph d="M382 600Q370 574 358.5 550Q347 526 328 490L196 238H440L400 489Q395 518 391 545.5Q387 573 384 600ZM451 167H157L70 0H-28L338 678H452L569 0Q547 -11 526 -32Q514 -44 506 -58.5Q498 -73 498 -89Q498 -101 506 -109Q515 -118 536 -118Q550 -118 566 -116Q582 -114 600 -109L590 -164Q574 -170 552 -172Q530 -174 513 -174Q485 -174 466 -167Q447 -160 436 -149Q419 -132 419 -106Q419 -84 429 -65.5Q439 -47 456 -30Q465 -21 475.5 -14Q486 -7 497 0H479Z" glyph-name="Aogonek" horiz-adv-x="635" unicode="&#260;" /><glyph d="M410 775Q432 775 443 786Q454 797 454 817Q454 827 449 832Q441 840 422 840Q400 840 389 829Q384 824 381 815.5Q378 807 378 798Q378 788 383 783Q391 775 410 775ZM402 735Q359 735 338 756Q324 770 324 793Q324 810 330 827.5Q336 845 348 857Q362 871 382 876Q402 881 429 881Q473 881 494 860Q508 846 508 823Q508 806 502 788.5Q496 771 484 759Q470 745 449.5 740Q429 735 402 735ZM382 600Q370 574 358.5 550Q347 526 328 490L196 238H440L400 489Q395 518 391 545.5Q387 573 384 600ZM451 167H157L70 0H-28L338 678H452L569 0H479Z" glyph-name="Aring" horiz-adv-x="635" unicode="&#197;" /><glyph d="M410 776Q432 776 443 787Q454 798 454 818Q454 828 449 833Q441 841 422 841Q400 841 389 830Q384 825 381 816.5Q378 808 378 799Q378 789 383 784Q391 776 410 776ZM402 736Q359 736 338 757Q324 771 324 794Q324 811 331.5 826.5Q339 842 352 855Q360 863 370 871.5Q380 880 391 890L476 960H544L447 880Q478 875 494 860Q508 846 508 824Q508 807 502 789.5Q496 772 484 760Q470 746 449.5 741Q429 736 402 736ZM382 600Q370 574 358.5 550Q347 526 328 490L196 238H440L400 489Q395 518 391 545.5Q387 573 384 600ZM451 167H157L70 0H-28L338 678H452L569 0H479Z" glyph-name="Aringacute" horiz-adv-x="635" unicode="&#506;" /><glyph d="M492 824Q514 824 541 835Q568 846 591 860L579 794Q570 788 558.5 782Q547 776 533.5 771Q520 766 506.5 762.5Q493 759 481 759Q462 759 443.5 764Q425 769 407.5 775.5Q390 782 372.5 787Q355 792 337 792Q315 792 288 781Q261 770 238 756L251 822Q268 833 296 845.5Q324 858 348 858Q367 858 385 852.5Q403 847 420.5 841Q438 835 455.5 829.5Q473 824 492 824ZM382 600Q370 574 358.5 550Q347 526 328 490L196 238H440L400 489Q395 518 391 545.5Q387 573 384 600ZM451 167H157L70 0H-28L338 678H452L569 0H479Z" glyph-name="Atilde" horiz-adv-x="635" unicode="&#195;" /><glyph d="M43 0 168 678H397Q456 678 500 667Q544 656 571 629Q588 612 594.5 587.5Q601 563 601 541Q601 496 585 454.5Q569 413 539 384Q526 371 511 362Q496 353 481 346V344Q505 335 526 314Q543 297 552.5 272.5Q562 248 562 219Q562 199 557.5 176.5Q553 154 544.5 132.5Q536 111 524 91.5Q512 72 497 57Q476 36 448.5 24Q421 12 391.5 7Q362 2 331 1Q300 0 272 0ZM347 381Q382 381 412 387.5Q442 394 465 417Q488 439 496 472Q504 505 504 532Q504 546 501 557.5Q498 569 487 580Q470 597 446.5 602Q423 607 389 607H246L204 381ZM303 71Q339 71 370.5 77.5Q402 84 427 109Q439 121 446.5 136Q454 151 459 167.5Q464 184 466 200.5Q468 217 468 231Q468 263 449 282Q430 301 406 305.5Q382 310 347 310H191L147 71Z" glyph-name="B" horiz-adv-x="617" unicode="B" /><glyph d="M58 219Q58 263 65.5 317Q73 371 89.5 425Q106 479 131 528Q156 577 191 612Q213 634 241 649Q269 664 299.5 673Q330 682 361 686Q392 690 421 690Q453 690 494.5 686Q536 682 581 667L567 592Q528 606 490.5 610.5Q453 615 424 615Q373 615 331.5 601.5Q290 588 257 555Q231 529 212 488.5Q193 448 180 402.5Q167 357 160.5 310Q154 263 154 226Q154 181 164.5 151.5Q175 122 194 103Q213 84 247 75.5Q281 67 323 67Q358 67 403.5 74Q449 81 488 95L473 16Q452 7 427 1.5Q402 -4 377 -7Q352 -10 329.5 -11Q307 -12 291 -12Q232 -12 186.5 4.5Q141 21 112 50Q58 104 58 219Z" glyph-name="C" horiz-adv-x="554" unicode="C" /><glyph d="M432 734H351L480 846H593ZM58 219Q58 263 65.5 317Q73 371 89.5 425Q106 479 131 528Q156 577 191 612Q213 634 241 649Q269 664 299.5 673Q330 682 361 686Q392 690 421 690Q453 690 494.5 686Q536 682 581 667L567 592Q528 606 490.5 610.5Q453 615 424 615Q373 615 331.5 601.5Q290 588 257 555Q231 529 212 488.5Q193 448 180 402.5Q167 357 160.5 310Q154 263 154 226Q154 181 164.5 151.5Q175 122 194 103Q213 84 247 75.5Q281 67 323 67Q358 67 403.5 74Q449 81 488 95L473 16Q452 7 427 1.5Q402 -4 377 -7Q352 -10 329.5 -11Q307 -12 291 -12Q232 -12 186.5 4.5Q141 21 112 50Q58 104 58 219Z" glyph-name="Cacute" horiz-adv-x="554" unicode="&#262;" /><glyph d="M284 846H360L415 776L496 846H582L450 730H371ZM58 219Q58 263 65.5 317Q73 371 89.5 425Q106 479 131 528Q156 577 191 612Q213 634 241 649Q269 664 299.5 673Q330 682 361 686Q392 690 421 690Q453 690 494.5 686Q536 682 581 667L567 592Q528 606 490.5 610.5Q453 615 424 615Q373 615 331.5 601.5Q290 588 257 555Q231 529 212 488.5Q193 448 180 402.5Q167 357 160.5 310Q154 263 154 226Q154 181 164.5 151.5Q175 122 194 103Q213 84 247 75.5Q281 67 323 67Q358 67 403.5 74Q449 81 488 95L473 16Q452 7 427 1.5Q402 -4 377 -7Q352 -10 329.5 -11Q307 -12 291 -12Q232 -12 186.5 4.5Q141 21 112 50Q58 104 58 219Z" glyph-name="Ccaron" horiz-adv-x="554" unicode="&#268;" /><glyph d="M251 -10Q161 1 112 50Q58 104 58 219Q58 263 65.5 317Q73 371 89.5 425Q106 479 131 528Q156 577 191 612Q213 634 241 649Q269 664 299.5 673Q330 682 361 686Q392 690 421 690Q453 690 494.5 686Q536 682 581 667L567 592Q528 606 490.5 610.5Q453 615 424 615Q373 615 331.5 601.5Q290 588 257 555Q231 529 212 488.5Q193 448 180 402.5Q167 357 160.5 310Q154 263 154 226Q154 181 164.5 151.5Q175 122 194 103Q213 84 247 75.5Q281 67 323 67Q358 67 403.5 74Q449 81 488 95L473 16Q440 2 398.5 -3.5Q357 -9 323 -11L307 -37Q330 -44 345 -59Q357 -71 357 -90Q357 -105 352 -117.5Q347 -130 334 -143Q316 -161 286 -167.5Q256 -174 218 -174Q207 -174 187.5 -172Q168 -170 147 -164L157 -110Q174 -115 191.5 -116.5Q209 -118 221 -118Q227 -118 237 -117.5Q247 -117 256.5 -114.5Q266 -112 272.5 -106.5Q279 -101 279 -91Q279 -84 274 -80Q269 -76 261.5 -73.5Q254 -71 245.5 -70Q237 -69 231 -68L229 -44Z" glyph-name="Ccedilla" horiz-adv-x="554" unicode="&#199;" /><glyph d="M560 734H484L429 804L348 734H262L394 850H473ZM58 219Q58 263 65.5 317Q73 371 89.5 425Q106 479 131 528Q156 577 191 612Q213 634 241 649Q269 664 299.5 673Q330 682 361 686Q392 690 421 690Q453 690 494.5 686Q536 682 581 667L567 592Q528 606 490.5 610.5Q453 615 424 615Q373 615 331.5 601.5Q290 588 257 555Q231 529 212 488.5Q193 448 180 402.5Q167 357 160.5 310Q154 263 154 226Q154 181 164.5 151.5Q175 122 194 103Q213 84 247 75.5Q281 67 323 67Q358 67 403.5 74Q449 81 488 95L473 16Q452 7 427 1.5Q402 -4 377 -7Q352 -10 329.5 -11Q307 -12 291 -12Q232 -12 186.5 4.5Q141 21 112 50Q58 104 58 219Z" glyph-name="Ccircumflex" horiz-adv-x="554" unicode="&#264;" /><glyph d="M458 755H366L383 844H475ZM58 219Q58 263 65.5 317Q73 371 89.5 425Q106 479 131 528Q156 577 191 612Q213 634 241 649Q269 664 299.5 673Q330 682 361 686Q392 690 421 690Q453 690 494.5 686Q536 682 581 667L567 592Q528 606 490.5 610.5Q453 615 424 615Q373 615 331.5 601.5Q290 588 257 555Q231 529 212 488.5Q193 448 180 402.5Q167 357 160.5 310Q154 263 154 226Q154 181 164.5 151.5Q175 122 194 103Q213 84 247 75.5Q281 67 323 67Q358 67 403.5 74Q449 81 488 95L473 16Q452 7 427 1.5Q402 -4 377 -7Q352 -10 329.5 -11Q307 -12 291 -12Q232 -12 186.5 4.5Q141 21 112 50Q58 104 58 219Z" glyph-name="Cdotaccent" horiz-adv-x="554" unicode="&#266;" /><glyph d="M406 327H72L85 394H419Z" glyph-name="Crossbar" horiz-adv-x="448" unicode="&#59204;" /><glyph d="M438 325H62L75 396H451Z" glyph-name="Crossbar.cap" horiz-adv-x="448" unicode="&#59205;" /><glyph d="M579 126H226L238 192H591Z" glyph-name="Crossbar.small" horiz-adv-x="448" unicode="&#59206;" /><glyph d="M639 450Q639 405 632 353.5Q625 302 609.5 251.5Q594 201 569.5 154.5Q545 108 511 74Q467 30 409 15Q351 0 285 0H43L168 678H408Q471 678 513 661.5Q555 645 585 615Q616 584 627 540.5Q638 497 639 450ZM294 71Q333 71 371 81.5Q409 92 441 124Q468 151 487.5 193Q507 235 519.5 281Q532 327 538 372.5Q544 418 544 451Q544 464 543 479.5Q542 495 538 511Q534 527 527 542.5Q520 558 507 571Q487 591 459 599Q431 607 393 607H246L147 71Z" glyph-name="D" horiz-adv-x="668" unicode="D" /><glyph d="M266 846H342L397 776L478 846H564L432 730H353ZM639 450Q639 405 632 353.5Q625 302 609.5 251.5Q594 201 569.5 154.5Q545 108 511 74Q467 30 409 15Q351 0 285 0H43L168 678H408Q471 678 513 661.5Q555 645 585 615Q616 584 627 540.5Q638 497 639 450ZM294 71Q333 71 371 81.5Q409 92 441 124Q468 151 487.5 193Q507 235 519.5 281Q532 327 538 372.5Q544 418 544 451Q544 464 543 479.5Q542 495 538 511Q534 527 527 542.5Q520 558 507 571Q487 591 459 599Q431 607 393 607H246L147 71Z" glyph-name="Dcaron" horiz-adv-x="668" unicode="&#270;" /><glyph d="M259 -34Q293 -36 313 -45.5Q333 -55 344 -66Q356 -78 356 -96Q356 -122 335 -143Q318 -160 288.5 -167Q259 -174 224 -174Q211 -174 190 -172.5Q169 -171 147 -164L157 -110Q172 -115 189 -117Q206 -119 221 -119Q230 -119 240.5 -118.5Q251 -118 259 -116Q267 -114 272.5 -109Q278 -104 278 -96Q278 -90 272.5 -86Q267 -82 259.5 -80Q252 -78 244.5 -77Q237 -76 232 -75ZM639 450Q639 405 632 353.5Q625 302 609.5 251.5Q594 201 569.5 154.5Q545 108 511 74Q467 30 409 15Q351 0 285 0H43L168 678H408Q471 678 513 661.5Q555 645 585 615Q616 584 627 540.5Q638 497 639 450ZM294 71Q333 71 371 81.5Q409 92 441 124Q468 151 487.5 193Q507 235 519.5 281Q532 327 538 372.5Q544 418 544 451Q544 464 543 479.5Q542 495 538 511Q534 527 527 542.5Q520 558 507 571Q487 591 459 599Q431 607 393 607H246L147 71Z" glyph-name="Dcedilla" horiz-adv-x="668" unicode="&#7696;" /><glyph d="M325 71Q364 71 402 81.5Q440 92 472 124Q499 151 518.5 193Q538 235 550.5 281Q563 327 569 372.5Q575 418 575 451Q575 464 574 479.5Q573 495 569 511Q565 527 558 542.5Q551 558 538 571Q518 591 490 599Q462 607 424 607H277L235 381H422L409 310H222L178 71ZM670 450Q670 405 663 353.5Q656 302 640.5 251.5Q625 201 600.5 154.5Q576 108 542 74Q498 30 440 15Q382 0 316 0H74L131 310H33L46 381H144L199 678H439Q502 678 544 661.5Q586 645 616 615Q647 584 658 540.5Q669 497 670 450Z" glyph-name="Dcroat" horiz-adv-x="699" unicode="&#272;" /><glyph d="M283 -181H194L210 -96H299ZM639 450Q639 405 632 353.5Q625 302 609.5 251.5Q594 201 569.5 154.5Q545 108 511 74Q467 30 409 15Q351 0 285 0H43L168 678H408Q471 678 513 661.5Q555 645 585 615Q616 584 627 540.5Q638 497 639 450ZM294 71Q333 71 371 81.5Q409 92 441 124Q468 151 487.5 193Q507 235 519.5 281Q532 327 538 372.5Q544 418 544 451Q544 464 543 479.5Q542 495 538 511Q534 527 527 542.5Q520 558 507 571Q487 591 459 599Q431 607 393 607H246L147 71Z" glyph-name="Ddotbelow" horiz-adv-x="668" unicode="&#7692;" /><glyph d="M506 67Q531 67 562 66.5Q593 66 610 65V66L486 494Q478 520 472 552Q466 584 461 606H459Q445 584 425.5 552Q406 520 389 494L108 66V65Q125 66 156 66.5Q187 67 212 67ZM677 0H5L13 54L426 684H507L689 54Z" glyph-name="Delta" horiz-adv-x="776" unicode="&#8710;" /><glyph d="M460 0H43L168 678H577L564 607H246L204 381H480L467 310H191L147 71H473Z" glyph-name="E" horiz-adv-x="545" unicode="E" /><glyph d="M419 734H338L467 846H580ZM460 0H43L168 678H577L564 607H246L204 381H480L467 310H191L147 71H473Z" glyph-name="Eacute" horiz-adv-x="545" unicode="&#201;" /><glyph d="M416 734H335L464 846H577ZM271 -181H182L198 -96H287ZM460 0H43L168 678H577L564 607H246L204 381H480L467 310H191L147 71H473Z" glyph-name="Eacutedotbelow" horiz-adv-x="545" unicode="&#59233;" /><glyph d="M390 786Q413 786 436.5 791.5Q460 797 477 814Q491 828 498 846H571Q557 805 532 780Q505 753 466.5 740.5Q428 728 382 728Q303 728 266 765Q251 780 242.5 799Q234 818 235 846H304Q304 832 308 823Q312 814 320 806Q332 794 351 790Q370 786 390 786ZM460 0H43L168 678H577L564 607H246L204 381H480L467 310H191L147 71H473Z" glyph-name="Ebreve" horiz-adv-x="545" unicode="&#276;" /><glyph d="M257 846H333L388 776L469 846H555L423 730H344ZM460 0H43L168 678H577L564 607H246L204 381H480L467 310H191L147 71H473Z" glyph-name="Ecaron" horiz-adv-x="545" unicode="&#282;" /><glyph d="M532 734H456L401 804L320 734H234L366 850H445ZM460 0H43L168 678H577L564 607H246L204 381H480L467 310H191L147 71H473Z" glyph-name="Ecircumflex" horiz-adv-x="545" unicode="&#202;" /><glyph d="M525 755H436L452 841H541ZM335 755H246L262 841H351ZM460 0H43L168 678H577L564 607H246L204 381H480L467 310H191L147 71H473Z" glyph-name="Edieresis" horiz-adv-x="545" unicode="&#203;" /><glyph d="M432 755H340L357 844H449ZM460 0H43L168 678H577L564 607H246L204 381H480L467 310H191L147 71H473Z" glyph-name="Edotaccent" horiz-adv-x="545" unicode="&#278;" /><glyph d="M193 846H286L373 734H312ZM333 846H426L513 734H452ZM460 0H43L168 678H577L564 607H246L204 381H480L467 310H191L147 71H473Z" glyph-name="Edoublegrave" horiz-adv-x="545" unicode="&#516;" /><glyph d="M256 846H363L450 734H375ZM460 0H43L168 678H577L564 607H246L204 381H480L467 310H191L147 71H473Z" glyph-name="Egrave" horiz-adv-x="545" unicode="&#200;" /><glyph d="M271 -181H182L198 -96H287ZM254 846H361L448 734H373ZM460 0H43L168 678H577L564 607H246L204 381H480L467 310H191L147 71H473Z" glyph-name="Egravedotbelow" horiz-adv-x="545" unicode="&#59237;" /><glyph d="M395 794Q372 794 348.5 788.5Q325 783 308 766Q294 752 287 734H214Q227 774 253 800Q280 827 318.5 839.5Q357 852 403 852Q482 852 519 815Q534 800 542.5 781Q551 762 550 734H481Q481 748 477 757Q473 766 465 774Q453 786 434 790Q415 794 395 794ZM460 0H43L168 678H577L564 607H246L204 381H480L467 310H191L147 71H473Z" glyph-name="Einvertedbreve" horiz-adv-x="545" unicode="&#518;" /><glyph d="M554 767H223L235 835H566ZM460 0H43L168 678H577L564 607H246L204 381H480L467 310H191L147 71H473Z" glyph-name="Emacron" horiz-adv-x="545" unicode="&#274;" /><glyph d="M286 414Q271 448 259 477Q247 506 231 547H228Q221 507 213 459Q205 411 196 362Q187 313 178.5 266Q170 219 163 182L131 0H43L167 678H264L451 264Q467 230 479 201Q491 172 507 131H510Q517 171 525 219Q533 267 542 316Q551 365 559 411.5Q567 458 574 496L608 678H696L595 128Q586 81 574.5 41.5Q563 2 546.5 -33.5Q530 -69 508.5 -102Q487 -135 458 -168H360Q395 -127 424 -86Q453 -45 475 0Z" glyph-name="Eng" horiz-adv-x="709" unicode="&#330;" /><glyph d="M43 0 168 678H577L564 607H246L204 381H480L467 310H191L147 71H473L460 0Q438 -11 417 -32Q405 -44 397 -58.5Q389 -73 389 -89Q389 -101 397 -109Q406 -118 427 -118Q441 -118 457 -116Q473 -114 491 -109L481 -164Q465 -170 443 -172Q421 -174 404 -174Q376 -174 357 -167Q338 -160 327 -149Q310 -132 310 -106Q310 -84 320 -65.5Q330 -47 347 -30Q356 -21 366.5 -14Q377 -7 388 0Z" glyph-name="Eogonek" horiz-adv-x="545" unicode="&#280;" /><glyph d="M325 71Q364 71 402 81.5Q440 92 472 124Q499 151 518.5 193Q538 235 550.5 281Q563 327 569 372.5Q575 418 575 451Q575 464 574 479.5Q573 495 569 511Q565 527 558 542.5Q551 558 538 571Q518 591 490 599Q462 607 424 607H277L235 381H422L409 310H222L178 71ZM670 450Q670 405 663 353.5Q656 302 640.5 251.5Q625 201 600.5 154.5Q576 108 542 74Q498 30 440 15Q382 0 316 0H74L131 310H33L46 381H144L199 678H439Q502 678 544 661.5Q586 645 616 615Q647 584 658 540.5Q669 497 670 450Z" glyph-name="Eth" horiz-adv-x="699" unicode="&#208;" /><glyph d="M181 311Q177 297 175 284Q173 271 171 258H367L330 196H166V195Q166 161 172.5 137Q179 113 199 93Q232 60 300 60Q327 60 364 65Q401 70 441 84L428 12Q383 -2 347 -7Q311 -12 277 -12Q224 -12 187.5 2Q151 16 126 41Q103 64 89.5 103Q76 142 77 196H-3L34 258H83Q85 271 87.5 284Q90 297 93 311H27L65 373H109Q123 411 142.5 445Q162 479 184 501Q219 536 270 552.5Q321 569 385 569Q413 569 446 566Q479 563 513 551L500 481Q469 493 438 496Q407 499 381 499Q335 499 302.5 486Q270 473 244 447Q231 434 220 415Q209 396 200 373H435L396 311Z" glyph-name="Euro" horiz-adv-x="515" unicode="&#8364;" /><glyph d="M255 371Q252 357 249.5 344Q247 331 245 318H448L411 256H237Q236 246 236 236.5Q236 227 236 219Q236 174 245.5 145Q255 116 273 99Q292 81 318.5 74Q345 67 379 67Q410 67 448 74Q486 81 521 95L506 16Q487 7 465.5 1.5Q444 -4 422 -7Q400 -10 380.5 -11Q361 -12 347 -12Q299 -12 262.5 1Q226 14 200 39Q173 65 156.5 109.5Q140 154 140 214Q140 225 140 234Q140 243 142 256H63L100 318H149Q151 331 153.5 344Q156 357 159 371H93L131 433H174Q191 487 214.5 535Q238 583 270 615Q313 658 365.5 674Q418 690 477 690Q506 690 540 686Q574 682 614 667L600 592Q567 606 536 610.5Q505 615 480 615Q439 615 405 604Q371 593 342 564Q319 541 302 507Q285 473 272 433H516L477 371Z" glyph-name="Euro.LP" horiz-adv-x="660" unicode="&#58657;" /><glyph d="M43 0 168 678H585L572 607H246L204 381H480L467 310H191L134 0Z" glyph-name="F" horiz-adv-x="515" unicode="F" /><glyph d="M350 381H609L545 37Q482 8 422 -2.5Q362 -13 307 -13Q182 -13 117 49Q88 76 72.5 120.5Q57 165 57 224Q57 267 65.5 320Q74 373 90 426Q106 479 131 527Q156 575 189 608Q237 656 302 673Q367 690 448 690Q463 690 484 689Q505 688 528.5 685.5Q552 683 576 678.5Q600 674 623 667L609 592Q567 603 524 609Q481 615 449 615Q387 615 340 602.5Q293 590 256 553Q231 528 212 488Q193 448 180 402.5Q167 357 160.5 312Q154 267 154 231Q154 182 165.5 150.5Q177 119 197 99Q217 79 248 70.5Q279 62 314 62Q348 62 383.5 66.5Q419 71 463 85L505 310H337Z" glyph-name="G" horiz-adv-x="665" unicode="G" /><glyph d="M465 734H384L513 846H626ZM350 381H609L545 37Q482 8 422 -2.5Q362 -13 307 -13Q182 -13 117 49Q88 76 72.5 120.5Q57 165 57 224Q57 267 65.5 320Q74 373 90 426Q106 479 131 527Q156 575 189 608Q237 656 302 673Q367 690 448 690Q463 690 484 689Q505 688 528.5 685.5Q552 683 576 678.5Q600 674 623 667L609 592Q567 603 524 609Q481 615 449 615Q387 615 340 602.5Q293 590 256 553Q231 528 212 488Q193 448 180 402.5Q167 357 160.5 312Q154 267 154 231Q154 182 165.5 150.5Q177 119 197 99Q217 79 248 70.5Q279 62 314 62Q348 62 383.5 66.5Q419 71 463 85L505 310H337Z" glyph-name="Gacute" horiz-adv-x="665" unicode="&#500;" /><glyph d="M428 786Q451 786 474.5 791.5Q498 797 515 814Q529 828 536 846H609Q595 805 570 780Q543 753 504.5 740.5Q466 728 420 728Q341 728 304 765Q289 780 280.5 799Q272 818 273 846H342Q342 832 346 823Q350 814 358 806Q370 794 389 790Q408 786 428 786ZM350 381H609L545 37Q482 8 422 -2.5Q362 -13 307 -13Q182 -13 117 49Q88 76 72.5 120.5Q57 165 57 224Q57 267 65.5 320Q74 373 90 426Q106 479 131 527Q156 575 189 608Q237 656 302 673Q367 690 448 690Q463 690 484 689Q505 688 528.5 685.5Q552 683 576 678.5Q600 674 623 667L609 592Q567 603 524 609Q481 615 449 615Q387 615 340 602.5Q293 590 256 553Q231 528 212 488Q193 448 180 402.5Q167 357 160.5 312Q154 267 154 231Q154 182 165.5 150.5Q177 119 197 99Q217 79 248 70.5Q279 62 314 62Q348 62 383.5 66.5Q419 71 463 85L505 310H337Z" glyph-name="Gbreve" horiz-adv-x="665" unicode="&#286;" /><glyph d="M316 846H392L447 776L528 846H614L482 730H403ZM350 381H609L545 37Q482 8 422 -2.5Q362 -13 307 -13Q182 -13 117 49Q88 76 72.5 120.5Q57 165 57 224Q57 267 65.5 320Q74 373 90 426Q106 479 131 527Q156 575 189 608Q237 656 302 673Q367 690 448 690Q463 690 484 689Q505 688 528.5 685.5Q552 683 576 678.5Q600 674 623 667L609 592Q567 603 524 609Q481 615 449 615Q387 615 340 602.5Q293 590 256 553Q231 528 212 488Q193 448 180 402.5Q167 357 160.5 312Q154 267 154 231Q154 182 165.5 150.5Q177 119 197 99Q217 79 248 70.5Q279 62 314 62Q348 62 383.5 66.5Q419 71 463 85L505 310H337Z" glyph-name="Gcaron" horiz-adv-x="665" unicode="&#486;" /><glyph d="M582 734H506L451 804L370 734H284L416 850H495ZM350 381H609L545 37Q482 8 422 -2.5Q362 -13 307 -13Q182 -13 117 49Q88 76 72.5 120.5Q57 165 57 224Q57 267 65.5 320Q74 373 90 426Q106 479 131 527Q156 575 189 608Q237 656 302 673Q367 690 448 690Q463 690 484 689Q505 688 528.5 685.5Q552 683 576 678.5Q600 674 623 667L609 592Q567 603 524 609Q481 615 449 615Q387 615 340 602.5Q293 590 256 553Q231 528 212 488Q193 448 180 402.5Q167 357 160.5 312Q154 267 154 231Q154 182 165.5 150.5Q177 119 197 99Q217 79 248 70.5Q279 62 314 62Q348 62 383.5 66.5Q419 71 463 85L505 310H337Z" glyph-name="Gcircumflex" horiz-adv-x="665" unicode="&#284;" /><glyph d="M263 -76H359L254 -247H195ZM350 381H609L545 37Q482 8 422 -2.5Q362 -13 307 -13Q182 -13 117 49Q88 76 72.5 120.5Q57 165 57 224Q57 267 65.5 320Q74 373 90 426Q106 479 131 527Q156 575 189 608Q237 656 302 673Q367 690 448 690Q463 690 484 689Q505 688 528.5 685.5Q552 683 576 678.5Q600 674 623 667L609 592Q567 603 524 609Q481 615 449 615Q387 615 340 602.5Q293 590 256 553Q231 528 212 488Q193 448 180 402.5Q167 357 160.5 312Q154 267 154 231Q154 182 165.5 150.5Q177 119 197 99Q217 79 248 70.5Q279 62 314 62Q348 62 383.5 66.5Q419 71 463 85L505 310H337Z" glyph-name="Gcommaaccent" horiz-adv-x="665" unicode="&#290;" /><glyph d="M740 566H646L751 737H808ZM350 381H609L545 37Q482 8 422 -2.5Q362 -13 307 -13Q182 -13 117 49Q88 76 72.5 120.5Q57 165 57 224Q57 267 65.5 320Q74 373 90 426Q106 479 131 527Q156 575 189 608Q237 656 302 673Q367 690 448 690Q463 690 484 689Q505 688 528.5 685.5Q552 683 576 678.5Q600 674 623 667L609 592Q567 603 524 609Q481 615 449 615Q387 615 340 602.5Q293 590 256 553Q231 528 212 488Q193 448 180 402.5Q167 357 160.5 312Q154 267 154 231Q154 182 165.5 150.5Q177 119 197 99Q217 79 248 70.5Q279 62 314 62Q348 62 383.5 66.5Q419 71 463 85L505 310H337Z" glyph-name="Gcommaturnedabove" horiz-adv-x="725" unicode="&#57607;" /><glyph d="M481 755H389L406 844H498ZM350 381H609L545 37Q482 8 422 -2.5Q362 -13 307 -13Q182 -13 117 49Q88 76 72.5 120.5Q57 165 57 224Q57 267 65.5 320Q74 373 90 426Q106 479 131 527Q156 575 189 608Q237 656 302 673Q367 690 448 690Q463 690 484 689Q505 688 528.5 685.5Q552 683 576 678.5Q600 674 623 667L609 592Q567 603 524 609Q481 615 449 615Q387 615 340 602.5Q293 590 256 553Q231 528 212 488Q193 448 180 402.5Q167 357 160.5 312Q154 267 154 231Q154 182 165.5 150.5Q177 119 197 99Q217 79 248 70.5Q279 62 314 62Q348 62 383.5 66.5Q419 71 463 85L505 310H337Z" glyph-name="Gdotaccent" horiz-adv-x="665" unicode="&#288;" /><glyph d="M669 157H567L545 37Q482 8 422 -2.5Q362 -13 307 -13Q182 -13 117 49Q88 76 72.5 120.5Q57 165 57 224Q57 267 65.5 320Q74 373 90 426Q106 479 131 527Q156 575 189 608Q237 656 302 673Q367 690 448 690Q463 690 484 689Q505 688 528.5 685.5Q552 683 576 678.5Q600 674 623 667L609 592Q567 603 524 609Q481 615 449 615Q387 615 340 602.5Q293 590 256 553Q231 528 212 488Q193 448 180 402.5Q167 357 160.5 312Q154 267 154 231Q154 182 165.5 150.5Q177 119 197 99Q217 79 248 70.5Q279 62 314 62Q348 62 383.5 66.5Q419 71 463 85L476 157H293L306 228H489L505 310H337L350 381H609L580 228H682Z" glyph-name="Gstroke" horiz-adv-x="665" unicode="&#484;" /><glyph d="M522 824Q544 824 571 835Q598 846 621 860L609 794Q600 788 588.5 782Q577 776 563.5 771Q550 766 536.5 762.5Q523 759 511 759Q492 759 473.5 764Q455 769 437.5 775.5Q420 782 402.5 787Q385 792 367 792Q345 792 318 781Q291 770 268 756L281 822Q298 833 326 845.5Q354 858 378 858Q397 858 415 852.5Q433 847 450.5 841Q468 835 485.5 829.5Q503 824 522 824ZM350 381H609L545 37Q482 8 422 -2.5Q362 -13 307 -13Q182 -13 117 49Q88 76 72.5 120.5Q57 165 57 224Q57 267 65.5 320Q74 373 90 426Q106 479 131 527Q156 575 189 608Q237 656 302 673Q367 690 448 690Q463 690 484 689Q505 688 528.5 685.5Q552 683 576 678.5Q600 674 623 667L609 592Q567 603 524 609Q481 615 449 615Q387 615 340 602.5Q293 590 256 553Q231 528 212 488Q193 448 180 402.5Q167 357 160.5 312Q154 267 154 231Q154 182 165.5 150.5Q177 119 197 99Q217 79 248 70.5Q279 62 314 62Q348 62 383.5 66.5Q419 71 463 85L505 310H337Z" glyph-name="Gtilde" horiz-adv-x="665" unicode="&#57605;" /><glyph d="M555 0H464L521 310H191L134 0H43L168 678H259L204 381H534L589 678H680Z" glyph-name="H" horiz-adv-x="692" unicode="H" /><glyph d="M534 381 551 473H221L204 381ZM555 0H464L521 310H191L134 0H43L168 678H259L234 544H564L589 678H680Z" glyph-name="Hbar" horiz-adv-x="692" unicode="&#294;" /><glyph d="M302 846H378L433 776L514 846H600L468 730H389ZM555 0H464L521 310H191L134 0H43L168 678H259L204 381H534L589 678H680Z" glyph-name="Hcaron" horiz-adv-x="692" unicode="&#542;" /><glyph d="M578 734H502L447 804L366 734H280L412 850H491ZM555 0H464L521 310H191L134 0H43L168 678H259L204 381H534L589 678H680Z" glyph-name="Hcircumflex" horiz-adv-x="692" unicode="&#292;" /><glyph d="M310 -181H221L237 -96H326ZM555 0H464L521 310H191L134 0H43L168 678H259L204 381H534L589 678H680Z" glyph-name="Hdotbelow" horiz-adv-x="692" unicode="&#7716;" /><glyph d="M441 -140H110L122 -72H453ZM555 0H464L521 310H191L134 0H43L168 678H259L204 381H534L589 678H680Z" glyph-name="Hmacronbelow" horiz-adv-x="692" unicode="&#57609;" /><glyph d="M134 0H43L168 678H259Z" glyph-name="I" horiz-adv-x="271" unicode="I" /><glyph d="M213 -118Q267 -52 300 16.5Q333 85 349 172L443 678H534L444 193Q435 143 423.5 101Q412 59 395.5 21.5Q379 -16 357.5 -50Q336 -84 306 -118ZM134 0H43L168 678H259Z" glyph-name="IJ" horiz-adv-x="546" unicode="&#306;" /><glyph d="M134 0H43L168 678H259ZM259 734H178L307 846H420Z" glyph-name="Iacute" horiz-adv-x="271" unicode="&#205;" /><glyph d="M134 0H43L168 678H259ZM226 786Q249 786 272.5 791.5Q296 797 313 814Q327 828 334 846H407Q393 805 368 780Q341 753 302.5 740.5Q264 728 218 728Q139 728 102 765Q87 780 78.5 799Q70 818 71 846H140Q140 832 144 823Q148 814 156 806Q168 794 187 790Q206 786 226 786Z" glyph-name="Ibreve" horiz-adv-x="271" unicode="&#300;" /><glyph d="M134 0H43L168 678H259ZM94 846H170L225 776L306 846H392L260 730H181Z" glyph-name="Icaron" horiz-adv-x="271" unicode="&#463;" /><glyph d="M134 0H43L168 678H259ZM374 734H298L243 804L162 734H76L208 850H287Z" glyph-name="Icircumflex" horiz-adv-x="271" unicode="&#206;" /><glyph d="M134 0H43L168 678H259ZM368 755H279L295 841H384ZM178 755H89L105 841H194Z" glyph-name="Idieresis" horiz-adv-x="271" unicode="&#207;" /><glyph d="M134 0H43L168 678H259ZM274 755H182L199 844H291Z" glyph-name="Idotaccent" horiz-adv-x="271" unicode="&#304;" /><glyph d="M134 0H43L168 678H259ZM99 -181H10L26 -96H115Z" glyph-name="Idotbelow" horiz-adv-x="271" unicode="&#7882;" /><glyph d="M134 0H43L168 678H259ZM0 846H93L180 734H119ZM140 846H233L320 734H259Z" glyph-name="Idoublegrave" horiz-adv-x="271" unicode="&#520;" /><glyph d="M134 0H43L168 678H259ZM71 846H178L265 734H190Z" glyph-name="Igrave" horiz-adv-x="271" unicode="&#204;" /><glyph d="M134 0H43L168 678H259ZM231 794Q208 794 184.5 788.5Q161 783 144 766Q130 752 123 734H50Q63 774 89 800Q116 827 154.5 839.5Q193 852 239 852Q318 852 355 815Q370 800 378.5 781Q387 762 386 734H317Q317 748 313 757Q309 766 301 774Q289 786 270 790Q251 794 231 794Z" glyph-name="Iinvertedbreve" horiz-adv-x="271" unicode="&#522;" /><glyph d="M134 0H43L168 678H259ZM398 767H67L79 835H410Z" glyph-name="Imacron" horiz-adv-x="271" unicode="&#298;" /><glyph d="M134 0Q112 -11 91 -32Q79 -44 71 -58.5Q63 -73 63 -89Q63 -101 71 -109Q80 -118 101 -118Q115 -118 131 -116Q147 -114 165 -109L155 -164Q139 -170 117 -172Q95 -174 78 -174Q50 -174 31 -167Q12 -160 1 -149Q-16 -132 -16 -106Q-16 -84 -6 -65.5Q4 -47 21 -30Q30 -21 40.5 -14Q51 -7 62 0H43L168 678H259Z" glyph-name="Iogonek" horiz-adv-x="271" unicode="&#302;" /><glyph d="M316 824Q338 824 365 835Q392 846 415 860L403 794Q394 788 382.5 782Q371 776 357.5 771Q344 766 330.5 762.5Q317 759 305 759Q286 759 267.5 764Q249 769 231.5 775.5Q214 782 196.5 787Q179 792 161 792Q139 792 112 781Q85 770 62 756L75 822Q92 833 120 845.5Q148 858 172 858Q191 858 209 852.5Q227 847 244.5 841Q262 835 279.5 829.5Q297 824 316 824ZM134 0H43L168 678H259Z" glyph-name="Itilde" horiz-adv-x="271" unicode="&#296;" /><glyph d="M-58 -118Q-4 -52 29 16.5Q62 85 78 172L172 678H263L173 193Q164 143 152.5 101Q141 59 124.5 21.5Q108 -16 86.5 -50Q65 -84 35 -118Z" glyph-name="J" horiz-adv-x="275" unicode="J" /><glyph d="M-58 -118Q-4 -52 29 16.5Q62 85 78 172L172 678H263L173 193Q164 143 152.5 101Q141 59 124.5 21.5Q108 -16 86.5 -50Q65 -84 35 -118ZM96 846H172L227 776L308 846H394L262 730H183Z" glyph-name="Jcaron" horiz-adv-x="275" unicode="&#57611;" /><glyph d="M-58 -118Q-4 -52 29 16.5Q62 85 78 172L172 678H263L173 193Q164 143 152.5 101Q141 59 124.5 21.5Q108 -16 86.5 -50Q65 -84 35 -118ZM372 734H296L241 804L160 734H74L206 850H285Z" glyph-name="Jcircumflex" horiz-adv-x="275" unicode="&#308;" /><glyph d="M377 348 556 0H456L297 310H191L134 0H43L168 678H259L204 381H296L544 678H652Z" glyph-name="K" horiz-adv-x="614" unicode="K" /><glyph d="M264 846H340L395 776L476 846H562L430 730H351ZM377 348 556 0H456L297 310H191L134 0H43L168 678H259L204 381H296L544 678H652Z" glyph-name="Kcaron" horiz-adv-x="614" unicode="&#488;" /><glyph d="M235 -34Q269 -36 289 -45.5Q309 -55 320 -66Q332 -78 332 -96Q332 -122 311 -143Q294 -160 264.5 -167Q235 -174 200 -174Q187 -174 166 -172.5Q145 -171 123 -164L133 -110Q148 -115 165 -117Q182 -119 197 -119Q206 -119 216.5 -118.5Q227 -118 235 -116Q243 -114 248.5 -109Q254 -104 254 -96Q254 -90 248.5 -86Q243 -82 235.5 -80Q228 -78 220.5 -77Q213 -76 208 -75ZM377 348 556 0H456L297 310H191L134 0H43L168 678H259L204 381H296L544 678H652Z" glyph-name="Kcedilla" horiz-adv-x="614" unicode="&#57613;" /><glyph d="M214 -76H310L205 -247H146ZM377 348 556 0H456L297 310H191L134 0H43L168 678H259L204 381H296L544 678H652Z" glyph-name="Kcommaaccent" horiz-adv-x="614" unicode="&#310;" /><glyph d="M377 348 556 0H456L297 310H191L134 0H43L168 678H259L204 381H296L544 678H652Z" glyph-name="Kgreenlandic" horiz-adv-x="614" unicode="&#59283;" /><glyph d="M610 614Q584 614 563 603Q542 592 525 575Q502 552 483 527.5Q464 503 444.5 477Q425 451 405 425.5Q385 400 361 376L556 0H456L297 310H191L134 0H43L168 678H259L204 381H249Q262 386 275.5 397.5Q289 409 297 417Q321 441 340.5 466Q360 491 378 516.5Q396 542 415 567Q434 592 457 615Q489 647 529.5 666Q570 685 619 685Q642 685 657 681Q672 677 682 670L669 602Q660 609 642 611.5Q624 614 610 614Z" glyph-name="Khook" horiz-adv-x="614" unicode="&#408;" /><glyph d="M454 0H43L168 678H259L147 71H467Z" glyph-name="L" horiz-adv-x="506" unicode="L" /><glyph d="M259 734H178L307 846H420ZM454 0H43L168 678H259L147 71H467Z" glyph-name="Lacute" horiz-adv-x="506" unicode="&#313;" /><glyph d="M471 678H569L463 507H402ZM454 0H43L168 678H259L147 71H467Z" glyph-name="Lcaron" horiz-adv-x="536" unicode="&#317;" /><glyph d="M237 -34Q271 -36 291 -45.5Q311 -55 322 -66Q334 -78 334 -96Q334 -122 313 -143Q296 -160 266.5 -167Q237 -174 202 -174Q189 -174 168 -172.5Q147 -171 125 -164L135 -110Q150 -115 167 -117Q184 -119 199 -119Q208 -119 218.5 -118.5Q229 -118 237 -116Q245 -114 250.5 -109Q256 -104 256 -96Q256 -90 250.5 -86Q245 -82 237.5 -80Q230 -78 222.5 -77Q215 -76 210 -75ZM454 0H43L168 678H259L147 71H467Z" glyph-name="Lcedilla" horiz-adv-x="506" unicode="&#57615;" /><glyph d="M197 -76H293L188 -247H129ZM454 0H43L168 678H259L147 71H467Z" glyph-name="Lcommaaccent" horiz-adv-x="506" unicode="&#315;" /><glyph d="M477 303H388L404 388H493ZM454 0H43L168 678H259L147 71H467Z" glyph-name="Ldot" horiz-adv-x="536" unicode="&#319;" /><glyph d="M269 -181H180L196 -96H285ZM454 0H43L168 678H259L147 71H467Z" glyph-name="Ldotbelow" horiz-adv-x="506" unicode="&#7734;" /><glyph d="M269 -181H180L196 -96H285ZM391 767H60L72 835H403ZM454 0H43L168 678H259L147 71H467Z" glyph-name="Ldotbelowmacron" horiz-adv-x="506" unicode="&#7736;" /><glyph d="M474 0H63L105 230L-12 163L5 254L122 321L188 678H279L224 380L442 506L424 414L207 289L167 71H487Z" glyph-name="Lslash" horiz-adv-x="526" unicode="&#321;" /><glyph d="M706 678H827L702 0H613L646 181Q663 271 684 371Q705 471 722 561H719Q706 540 694.5 521.5Q683 503 671.5 486Q660 469 648 451.5Q636 434 622 414L434 142H366L280 414Q267 454 257 486.5Q247 519 235 561H232Q216 471 200.5 371Q185 271 168 181L135 0H43L168 678H285L415 260H418Z" glyph-name="M" horiz-adv-x="839" unicode="M" /><glyph d="M358 -34Q392 -36 412 -45.5Q432 -55 443 -66Q455 -78 455 -96Q455 -122 434 -143Q417 -160 387.5 -167Q358 -174 323 -174Q310 -174 289 -172.5Q268 -171 246 -164L256 -110Q271 -115 288 -117Q305 -119 320 -119Q329 -119 339.5 -118.5Q350 -118 358 -116Q366 -114 371.5 -109Q377 -104 377 -96Q377 -90 371.5 -86Q366 -82 358.5 -80Q351 -78 343.5 -77Q336 -76 331 -75ZM706 678H827L702 0H613L646 181Q663 271 684 371Q705 471 722 561H719Q706 540 694.5 521.5Q683 503 671.5 486Q660 469 648 451.5Q636 434 622 414L434 142H366L280 414Q267 454 257 486.5Q247 519 235 561H232Q216 471 200.5 371Q185 271 168 181L135 0H43L168 678H285L415 260H418Z" glyph-name="Mcedilla" horiz-adv-x="839" unicode="&#57619;" /><glyph d="M384 -181H295L311 -96H400ZM706 678H827L702 0H613L646 181Q663 271 684 371Q705 471 722 561H719Q706 540 694.5 521.5Q683 503 671.5 486Q660 469 648 451.5Q636 434 622 414L434 142H366L280 414Q267 454 257 486.5Q247 519 235 561H232Q216 471 200.5 371Q185 271 168 181L135 0H43L168 678H285L415 260H418Z" glyph-name="Mdotbelow" horiz-adv-x="839" unicode="&#7746;" /><glyph d="M675 767H344L356 835H687ZM706 678H827L702 0H613L646 181Q663 271 684 371Q705 471 722 561H719Q706 540 694.5 521.5Q683 503 671.5 486Q660 469 648 451.5Q636 434 622 414L434 142H366L280 414Q267 454 257 486.5Q247 519 235 561H232Q216 471 200.5 371Q185 271 168 181L135 0H43L168 678H285L415 260H418Z" glyph-name="Mmacron" horiz-adv-x="839" unicode="&#57617;" /><glyph d="M451 264Q467 230 479 201Q491 172 507 131H510Q517 171 525 219Q533 267 542 316Q551 365 559 411.5Q567 458 574 496L608 678H696L572 0H475L286 414Q271 448 259 477Q247 506 231 547H228Q221 507 213 459Q205 411 196 362Q187 313 178.5 266Q170 219 163 182L131 0H43L167 678H264Z" glyph-name="N" horiz-adv-x="709" unicode="N" /><glyph d="M472 734H391L520 846H633ZM451 264Q467 230 479 201Q491 172 507 131H510Q517 171 525 219Q533 267 542 316Q551 365 559 411.5Q567 458 574 496L608 678H696L572 0H475L286 414Q271 448 259 477Q247 506 231 547H228Q221 507 213 459Q205 411 196 362Q187 313 178.5 266Q170 219 163 182L131 0H43L167 678H264Z" glyph-name="Nacute" horiz-adv-x="709" unicode="&#323;" /><glyph d="M309 846H385L440 776L521 846H607L475 730H396ZM451 264Q467 230 479 201Q491 172 507 131H510Q517 171 525 219Q533 267 542 316Q551 365 559 411.5Q567 458 574 496L608 678H696L572 0H475L286 414Q271 448 259 477Q247 506 231 547H228Q221 507 213 459Q205 411 196 362Q187 313 178.5 266Q170 219 163 182L131 0H43L167 678H264Z" glyph-name="Ncaron" horiz-adv-x="709" unicode="&#327;" /><glyph d="M289 -34Q323 -36 343 -45.5Q363 -55 374 -66Q386 -78 386 -96Q386 -122 365 -143Q348 -160 318.5 -167Q289 -174 254 -174Q241 -174 220 -172.5Q199 -171 177 -164L187 -110Q202 -115 219 -117Q236 -119 251 -119Q260 -119 270.5 -118.5Q281 -118 289 -116Q297 -114 302.5 -109Q308 -104 308 -96Q308 -90 302.5 -86Q297 -82 289.5 -80Q282 -78 274.5 -77Q267 -76 262 -75ZM451 264Q467 230 479 201Q491 172 507 131H510Q517 171 525 219Q533 267 542 316Q551 365 559 411.5Q567 458 574 496L608 678H696L572 0H475L286 414Q271 448 259 477Q247 506 231 547H228Q221 507 213 459Q205 411 196 362Q187 313 178.5 266Q170 219 163 182L131 0H43L167 678H264Z" glyph-name="Ncedilla" horiz-adv-x="709" unicode="&#57625;" /><glyph d="M240 -76H336L231 -247H172ZM451 264Q467 230 479 201Q491 172 507 131H510Q517 171 525 219Q533 267 542 316Q551 365 559 411.5Q567 458 574 496L608 678H696L572 0H475L286 414Q271 448 259 477Q247 506 231 547H228Q221 507 213 459Q205 411 196 362Q187 313 178.5 266Q170 219 163 182L131 0H43L167 678H264Z" glyph-name="Ncommaaccent" horiz-adv-x="709" unicode="&#325;" /><glyph d="M451 264Q467 230 479 201Q491 172 507 131H510Q517 171 525 219Q533 267 542 316Q551 365 559 411.5Q567 458 574 496L608 678H696L585 71H665L630 -118H548L570 0H475L286 414Q271 448 259 477Q247 506 231 547H228Q221 507 213 459Q205 411 196 362Q187 313 178.5 266Q170 219 163 182L131 0H43L167 678H264Z" glyph-name="Ndescender" horiz-adv-x="709" unicode="&#59398;" /><glyph d="M580 755H491L507 841H596ZM390 755H301L317 841H406ZM451 264Q467 230 479 201Q491 172 507 131H510Q517 171 525 219Q533 267 542 316Q551 365 559 411.5Q567 458 574 496L608 678H696L572 0H475L286 414Q271 448 259 477Q247 506 231 547H228Q221 507 213 459Q205 411 196 362Q187 313 178.5 266Q170 219 163 182L131 0H43L167 678H264Z" glyph-name="Ndieresis" horiz-adv-x="709" unicode="&#57621;" /><glyph d="M487 755H395L412 844H504ZM451 264Q467 230 479 201Q491 172 507 131H510Q517 171 525 219Q533 267 542 316Q551 365 559 411.5Q567 458 574 496L608 678H696L572 0H475L286 414Q271 448 259 477Q247 506 231 547H228Q221 507 213 459Q205 411 196 362Q187 313 178.5 266Q170 219 163 182L131 0H43L167 678H264Z" glyph-name="Ndotaccent" horiz-adv-x="709" unicode="&#7748;" /><glyph d="M317 -181H228L244 -96H333ZM451 264Q467 230 479 201Q491 172 507 131H510Q517 171 525 219Q533 267 542 316Q551 365 559 411.5Q567 458 574 496L608 678H696L572 0H475L286 414Q271 448 259 477Q247 506 231 547H228Q221 507 213 459Q205 411 196 362Q187 313 178.5 266Q170 219 163 182L131 0H43L167 678H264Z" glyph-name="Ndotbelow" horiz-adv-x="709" unicode="&#7750;" /><glyph d="M309 846H416L503 734H428ZM451 264Q467 230 479 201Q491 172 507 131H510Q517 171 525 219Q533 267 542 316Q551 365 559 411.5Q567 458 574 496L608 678H696L572 0H475L286 414Q271 448 259 477Q247 506 231 547H228Q221 507 213 459Q205 411 196 362Q187 313 178.5 266Q170 219 163 182L131 0H43L167 678H264Z" glyph-name="Ngrave" horiz-adv-x="709" unicode="&#504;" /><glyph d="M611 767H280L292 835H623ZM451 264Q467 230 479 201Q491 172 507 131H510Q517 171 525 219Q533 267 542 316Q551 365 559 411.5Q567 458 574 496L608 678H696L572 0H475L286 414Q271 448 259 477Q247 506 231 547H228Q221 507 213 459Q205 411 196 362Q187 313 178.5 266Q170 219 163 182L131 0H43L167 678H264Z" glyph-name="Nmacron" horiz-adv-x="709" unicode="&#57623;" /><glyph d="M529 824Q551 824 578 835Q605 846 628 860L616 794Q607 788 595.5 782Q584 776 570.5 771Q557 766 543.5 762.5Q530 759 518 759Q499 759 480.5 764Q462 769 444.5 775.5Q427 782 409.5 787Q392 792 374 792Q352 792 325 781Q298 770 275 756L288 822Q305 833 333 845.5Q361 858 385 858Q404 858 422 852.5Q440 847 457.5 841Q475 835 492.5 829.5Q510 824 529 824ZM451 264Q467 230 479 201Q491 172 507 131H510Q517 171 525 219Q533 267 542 316Q551 365 559 411.5Q567 458 574 496L608 678H696L572 0H475L286 414Q271 448 259 477Q247 506 231 547H228Q221 507 213 459Q205 411 196 362Q187 313 178.5 266Q170 219 163 182L131 0H43L167 678H264Z" glyph-name="Ntilde" horiz-adv-x="709" unicode="&#209;" /><glyph d="M309 63Q409 63 464 118Q490 144 509.5 188Q529 232 541.5 281.5Q554 331 560.5 379Q567 427 567 462Q567 542 529 580Q494 615 411 615Q311 615 256 560Q230 534 210.5 490Q191 446 178 396.5Q165 347 159 299Q153 251 153 216Q153 136 191 98Q226 63 309 63ZM425 690Q491 690 536.5 673Q582 656 609 629Q638 600 650.5 557.5Q663 515 663 462Q663 419 655 364Q647 309 631.5 254Q616 199 592 149.5Q568 100 536 68Q494 26 433 7Q372 -12 295 -12Q229 -12 183.5 5Q138 22 111 49Q82 78 69.5 120.5Q57 163 57 216Q57 259 64.5 314Q72 369 88 424Q104 479 128 528.5Q152 578 184 610Q226 652 287 671Q348 690 425 690Z" glyph-name="O" horiz-adv-x="690" unicode="O" /><glyph d="M309 63Q409 63 464 118Q490 144 509.5 188Q529 232 541.5 281.5Q554 331 560.5 379Q567 427 567 462Q567 542 529 580Q494 615 411 615Q311 615 256 560Q230 534 210.5 490Q191 446 178 396.5Q165 347 159 299Q153 251 153 216Q153 136 191 98Q226 63 309 63ZM295 -12Q229 -12 183.5 5Q138 22 111 49Q82 78 69.5 119Q57 160 57 213Q57 256 64.5 311.5Q72 367 88 422.5Q104 478 128 528Q152 578 184 610Q226 652 287 671Q348 690 425 690Q494 690 535 673.5Q576 657 606 620H608L619 678H1028L1015 607H697L655 381H931L918 310H642L598 71H924L911 0H494L503 54H501Q467 19 418 3.5Q369 -12 295 -12Z" glyph-name="OE" horiz-adv-x="996" unicode="&#338;" /><glyph d="M463 734H382L511 846H624ZM309 63Q409 63 464 118Q490 144 509.5 188Q529 232 541.5 281.5Q554 331 560.5 379Q567 427 567 462Q567 542 529 580Q494 615 411 615Q311 615 256 560Q230 534 210.5 490Q191 446 178 396.5Q165 347 159 299Q153 251 153 216Q153 136 191 98Q226 63 309 63ZM425 690Q491 690 536.5 673Q582 656 609 629Q638 600 650.5 557.5Q663 515 663 462Q663 419 655 364Q647 309 631.5 254Q616 199 592 149.5Q568 100 536 68Q494 26 433 7Q372 -12 295 -12Q229 -12 183.5 5Q138 22 111 49Q82 78 69.5 120.5Q57 163 57 216Q57 259 64.5 314Q72 369 88 424Q104 479 128 528.5Q152 578 184 610Q226 652 287 671Q348 690 425 690Z" glyph-name="Oacute" horiz-adv-x="690" unicode="&#211;" /><glyph d="M436 786Q459 786 482.5 791.5Q506 797 523 814Q537 828 544 846H617Q603 805 578 780Q551 753 512.5 740.5Q474 728 428 728Q349 728 312 765Q297 780 288.5 799Q280 818 281 846H350Q350 832 354 823Q358 814 366 806Q378 794 397 790Q416 786 436 786ZM309 63Q409 63 464 118Q490 144 509.5 188Q529 232 541.5 281.5Q554 331 560.5 379Q567 427 567 462Q567 542 529 580Q494 615 411 615Q311 615 256 560Q230 534 210.5 490Q191 446 178 396.5Q165 347 159 299Q153 251 153 216Q153 136 191 98Q226 63 309 63ZM425 690Q491 690 536.5 673Q582 656 609 629Q638 600 650.5 557.5Q663 515 663 462Q663 419 655 364Q647 309 631.5 254Q616 199 592 149.5Q568 100 536 68Q494 26 433 7Q372 -12 295 -12Q229 -12 183.5 5Q138 22 111 49Q82 78 69.5 120.5Q57 163 57 216Q57 259 64.5 314Q72 369 88 424Q104 479 128 528.5Q152 578 184 610Q226 652 287 671Q348 690 425 690Z" glyph-name="Obreve" horiz-adv-x="690" unicode="&#334;" /><glyph d="M301 846H377L432 776L513 846H599L467 730H388ZM309 63Q409 63 464 118Q490 144 509.5 188Q529 232 541.5 281.5Q554 331 560.5 379Q567 427 567 462Q567 542 529 580Q494 615 411 615Q311 615 256 560Q230 534 210.5 490Q191 446 178 396.5Q165 347 159 299Q153 251 153 216Q153 136 191 98Q226 63 309 63ZM425 690Q491 690 536.5 673Q582 656 609 629Q638 600 650.5 557.5Q663 515 663 462Q663 419 655 364Q647 309 631.5 254Q616 199 592 149.5Q568 100 536 68Q494 26 433 7Q372 -12 295 -12Q229 -12 183.5 5Q138 22 111 49Q82 78 69.5 120.5Q57 163 57 216Q57 259 64.5 314Q72 369 88 424Q104 479 128 528.5Q152 578 184 610Q226 652 287 671Q348 690 425 690Z" glyph-name="Ocaron" horiz-adv-x="690" unicode="&#465;" /><glyph d="M309 63Q409 63 464 118Q490 144 509.5 188Q529 232 541.5 281.5Q554 331 560.5 379Q567 427 567 462Q567 542 529 580Q494 615 411 615Q311 615 256 560Q230 534 210.5 490Q191 446 178 396.5Q165 347 159 299Q153 251 153 216Q153 136 191 98Q226 63 309 63ZM259 -10Q208 -5 171 10.5Q134 26 111 49Q82 78 69.5 120.5Q57 163 57 216Q57 259 64.5 314Q72 369 88 424Q104 479 128 528.5Q152 578 184 610Q226 652 287 671Q348 690 425 690Q491 690 536.5 673Q582 656 609 629Q638 600 650.5 557.5Q663 515 663 462Q663 419 655 364Q647 309 631.5 254Q616 199 592 149.5Q568 100 536 68Q498 30 446.5 11.5Q395 -7 331 -11L315 -37Q338 -44 353 -59Q365 -71 365 -90Q365 -105 360 -117.5Q355 -130 342 -143Q324 -161 294 -167.5Q264 -174 226 -174Q215 -174 195.5 -172Q176 -170 155 -164L165 -110Q182 -115 199.5 -116.5Q217 -118 229 -118Q235 -118 245 -117.5Q255 -117 264.5 -114.5Q274 -112 280.5 -106.5Q287 -101 287 -91Q287 -84 282 -80Q277 -76 269.5 -73.5Q262 -71 253.5 -70Q245 -69 239 -68L237 -44Z" glyph-name="Ocedilla" horiz-adv-x="690" unicode="&#57631;" /><glyph d="M309 63Q409 63 464 118Q490 144 509.5 188Q529 232 541.5 281.5Q554 331 560.5 379Q567 427 567 462Q567 542 529 580Q494 615 411 615Q311 615 256 560Q230 534 210.5 490Q191 446 178 396.5Q165 347 159 299Q153 251 153 216Q153 136 191 98Q226 63 309 63ZM425 690Q491 690 536.5 673Q582 656 609 629Q638 600 650.5 557.5Q663 515 663 462Q663 419 655 364Q647 309 631.5 254Q616 199 592 149.5Q568 100 536 68Q494 26 433 7Q372 -12 295 -12Q229 -12 183.5 5Q138 22 111 49Q82 78 69.5 120.5Q57 163 57 216Q57 259 64.5 314Q72 369 88 424Q104 479 128 528.5Q152 578 184 610Q226 652 287 671Q348 690 425 690ZM577 734H501L446 804L365 734H279L411 850H490Z" glyph-name="Ocircumflex" horiz-adv-x="690" unicode="&#212;" /><glyph d="M783 566H689L794 737H851ZM309 63Q409 63 464 118Q490 144 509.5 188Q529 232 541.5 281.5Q554 331 560.5 379Q567 427 567 462Q567 542 529 580Q494 615 411 615Q311 615 256 560Q230 534 210.5 490Q191 446 178 396.5Q165 347 159 299Q153 251 153 216Q153 136 191 98Q226 63 309 63ZM425 690Q491 690 536.5 673Q582 656 609 629Q638 600 650.5 557.5Q663 515 663 462Q663 419 655 364Q647 309 631.5 254Q616 199 592 149.5Q568 100 536 68Q494 26 433 7Q372 -12 295 -12Q229 -12 183.5 5Q138 22 111 49Q82 78 69.5 120.5Q57 163 57 216Q57 259 64.5 314Q72 369 88 424Q104 479 128 528.5Q152 578 184 610Q226 652 287 671Q348 690 425 690Z" glyph-name="Ocommaturnedabove" horiz-adv-x="768" unicode="&#57627;" /><glyph d="M309 63Q409 63 464 118Q490 144 509.5 188Q529 232 541.5 281.5Q554 331 560.5 379Q567 427 567 462Q567 542 529 580Q494 615 411 615Q311 615 256 560Q230 534 210.5 490Q191 446 178 396.5Q165 347 159 299Q153 251 153 216Q153 136 191 98Q226 63 309 63ZM425 690Q491 690 536.5 673Q582 656 609 629Q638 600 650.5 557.5Q663 515 663 462Q663 419 655 364Q647 309 631.5 254Q616 199 592 149.5Q568 100 536 68Q494 26 433 7Q372 -12 295 -12Q229 -12 183.5 5Q138 22 111 49Q82 78 69.5 120.5Q57 163 57 216Q57 259 64.5 314Q72 369 88 424Q104 479 128 528.5Q152 578 184 610Q226 652 287 671Q348 690 425 690ZM577 755H488L504 841H593ZM387 755H298L314 841H403Z" glyph-name="Odieresis" horiz-adv-x="690" unicode="&#214;" /><glyph d="M484 755H392L409 844H501ZM309 63Q409 63 464 118Q490 144 509.5 188Q529 232 541.5 281.5Q554 331 560.5 379Q567 427 567 462Q567 542 529 580Q494 615 411 615Q311 615 256 560Q230 534 210.5 490Q191 446 178 396.5Q165 347 159 299Q153 251 153 216Q153 136 191 98Q226 63 309 63ZM425 690Q491 690 536.5 673Q582 656 609 629Q638 600 650.5 557.5Q663 515 663 462Q663 419 655 364Q647 309 631.5 254Q616 199 592 149.5Q568 100 536 68Q494 26 433 7Q372 -12 295 -12Q229 -12 183.5 5Q138 22 111 49Q82 78 69.5 120.5Q57 163 57 216Q57 259 64.5 314Q72 369 88 424Q104 479 128 528.5Q152 578 184 610Q226 652 287 671Q348 690 425 690Z" glyph-name="Odotabove" horiz-adv-x="690" unicode="&#558;" /><glyph d="M484 754H392L409 843H501ZM629 905H298L310 973H641ZM309 63Q409 63 464 118Q490 144 509.5 188Q529 232 541.5 281.5Q554 331 560.5 379Q567 427 567 462Q567 542 529 580Q494 615 411 615Q311 615 256 560Q230 534 210.5 490Q191 446 178 396.5Q165 347 159 299Q153 251 153 216Q153 136 191 98Q226 63 309 63ZM425 690Q491 690 536.5 673Q582 656 609 629Q638 600 650.5 557.5Q663 515 663 462Q663 419 655 364Q647 309 631.5 254Q616 199 592 149.5Q568 100 536 68Q494 26 433 7Q372 -12 295 -12Q229 -12 183.5 5Q138 22 111 49Q82 78 69.5 120.5Q57 163 57 216Q57 259 64.5 314Q72 369 88 424Q104 479 128 528.5Q152 578 184 610Q226 652 287 671Q348 690 425 690Z" glyph-name="Odotabovemacron" horiz-adv-x="690" unicode="&#560;" /><glyph d="M309 -181H220L236 -96H325ZM309 63Q409 63 464 118Q490 144 509.5 188Q529 232 541.5 281.5Q554 331 560.5 379Q567 427 567 462Q567 542 529 580Q494 615 411 615Q311 615 256 560Q230 534 210.5 490Q191 446 178 396.5Q165 347 159 299Q153 251 153 216Q153 136 191 98Q226 63 309 63ZM425 690Q491 690 536.5 673Q582 656 609 629Q638 600 650.5 557.5Q663 515 663 462Q663 419 655 364Q647 309 631.5 254Q616 199 592 149.5Q568 100 536 68Q494 26 433 7Q372 -12 295 -12Q229 -12 183.5 5Q138 22 111 49Q82 78 69.5 120.5Q57 163 57 216Q57 259 64.5 314Q72 369 88 424Q104 479 128 528.5Q152 578 184 610Q226 652 287 671Q348 690 425 690Z" glyph-name="Odotbelow" horiz-adv-x="690" unicode="&#7884;" /><glyph d="M220 846H313L400 734H339ZM360 846H453L540 734H479ZM309 63Q409 63 464 118Q490 144 509.5 188Q529 232 541.5 281.5Q554 331 560.5 379Q567 427 567 462Q567 542 529 580Q494 615 411 615Q311 615 256 560Q230 534 210.5 490Q191 446 178 396.5Q165 347 159 299Q153 251 153 216Q153 136 191 98Q226 63 309 63ZM425 690Q491 690 536.5 673Q582 656 609 629Q638 600 650.5 557.5Q663 515 663 462Q663 419 655 364Q647 309 631.5 254Q616 199 592 149.5Q568 100 536 68Q494 26 433 7Q372 -12 295 -12Q229 -12 183.5 5Q138 22 111 49Q82 78 69.5 120.5Q57 163 57 216Q57 259 64.5 314Q72 369 88 424Q104 479 128 528.5Q152 578 184 610Q226 652 287 671Q348 690 425 690Z" glyph-name="Odoublegrave" horiz-adv-x="690" unicode="&#524;" /><glyph d="M272 846H379L466 734H391ZM309 63Q409 63 464 118Q490 144 509.5 188Q529 232 541.5 281.5Q554 331 560.5 379Q567 427 567 462Q567 542 529 580Q494 615 411 615Q311 615 256 560Q230 534 210.5 490Q191 446 178 396.5Q165 347 159 299Q153 251 153 216Q153 136 191 98Q226 63 309 63ZM425 690Q491 690 536.5 673Q582 656 609 629Q638 600 650.5 557.5Q663 515 663 462Q663 419 655 364Q647 309 631.5 254Q616 199 592 149.5Q568 100 536 68Q494 26 433 7Q372 -12 295 -12Q229 -12 183.5 5Q138 22 111 49Q82 78 69.5 120.5Q57 163 57 216Q57 259 64.5 314Q72 369 88 424Q104 479 128 528.5Q152 578 184 610Q226 652 287 671Q348 690 425 690Z" glyph-name="Ograve" horiz-adv-x="690" unicode="&#210;" /><glyph d="M522 734H454L583 846H683ZM382 734H314L443 846H543ZM309 63Q409 63 464 118Q490 144 509.5 188Q529 232 541.5 281.5Q554 331 560.5 379Q567 427 567 462Q567 542 529 580Q494 615 411 615Q311 615 256 560Q230 534 210.5 490Q191 446 178 396.5Q165 347 159 299Q153 251 153 216Q153 136 191 98Q226 63 309 63ZM425 690Q491 690 536.5 673Q582 656 609 629Q638 600 650.5 557.5Q663 515 663 462Q663 419 655 364Q647 309 631.5 254Q616 199 592 149.5Q568 100 536 68Q494 26 433 7Q372 -12 295 -12Q229 -12 183.5 5Q138 22 111 49Q82 78 69.5 120.5Q57 163 57 216Q57 259 64.5 314Q72 369 88 424Q104 479 128 528.5Q152 578 184 610Q226 652 287 671Q348 690 425 690Z" glyph-name="Ohungarumlaut" horiz-adv-x="690" unicode="&#336;" /><glyph d="M456 794Q433 794 409.5 788.5Q386 783 369 766Q355 752 348 734H275Q288 774 314 800Q341 827 379.5 839.5Q418 852 464 852Q543 852 580 815Q595 800 603.5 781Q612 762 611 734H542Q542 748 538 757Q534 766 526 774Q514 786 495 790Q476 794 456 794ZM309 63Q409 63 464 118Q490 144 509.5 188Q529 232 541.5 281.5Q554 331 560.5 379Q567 427 567 462Q567 542 529 580Q494 615 411 615Q311 615 256 560Q230 534 210.5 490Q191 446 178 396.5Q165 347 159 299Q153 251 153 216Q153 136 191 98Q226 63 309 63ZM425 690Q491 690 536.5 673Q582 656 609 629Q638 600 650.5 557.5Q663 515 663 462Q663 419 655 364Q647 309 631.5 254Q616 199 592 149.5Q568 100 536 68Q494 26 433 7Q372 -12 295 -12Q229 -12 183.5 5Q138 22 111 49Q82 78 69.5 120.5Q57 163 57 216Q57 259 64.5 314Q72 369 88 424Q104 479 128 528.5Q152 578 184 610Q226 652 287 671Q348 690 425 690Z" glyph-name="Oinvertedbreve" horiz-adv-x="690" unicode="&#526;" /><glyph d="M606 766H275L287 834H618ZM309 63Q409 63 464 118Q490 144 509.5 188Q529 232 541.5 281.5Q554 331 560.5 379Q567 427 567 462Q567 542 529 580Q494 615 411 615Q311 615 256 560Q230 534 210.5 490Q191 446 178 396.5Q165 347 159 299Q153 251 153 216Q153 136 191 98Q226 63 309 63ZM425 690Q491 690 536.5 673Q582 656 609 629Q638 600 650.5 557.5Q663 515 663 462Q663 419 655 364Q647 309 631.5 254Q616 199 592 149.5Q568 100 536 68Q494 26 433 7Q372 -12 295 -12Q229 -12 183.5 5Q138 22 111 49Q82 78 69.5 120.5Q57 163 57 216Q57 259 64.5 314Q72 369 88 424Q104 479 128 528.5Q152 578 184 610Q226 652 287 671Q348 690 425 690Z" glyph-name="Omacron" horiz-adv-x="690" unicode="&#332;" /><glyph d="M309 63Q409 63 464 118Q490 144 509.5 188Q529 232 541.5 281.5Q554 331 560.5 379Q567 427 567 462Q567 542 529 580Q494 615 411 615Q311 615 256 560Q230 534 210.5 490Q191 446 178 396.5Q165 347 159 299Q153 251 153 216Q153 136 191 98Q226 63 309 63ZM425 690Q491 690 536.5 673Q582 656 609 629Q638 600 650.5 557.5Q663 515 663 462Q663 419 655 364Q647 309 631.5 254Q616 199 592 149.5Q568 100 536 68Q500 32 450 13.5Q400 -5 337 -10Q325 -19 312 -32Q300 -44 292 -58.5Q284 -73 284 -89Q284 -101 292 -109Q301 -118 322 -118Q336 -118 352 -116Q368 -114 386 -109L376 -164Q360 -170 338 -172Q316 -174 299 -174Q271 -174 252 -167Q233 -160 222 -149Q205 -132 205 -106Q205 -84 215 -65.5Q225 -47 242 -30Q247 -25 252.5 -20Q258 -15 265 -11Q211 -7 172.5 9Q134 25 111 49Q82 78 69.5 120.5Q57 163 57 216Q57 259 64.5 314Q72 369 88 424Q104 479 128 528.5Q152 578 184 610Q226 652 287 671Q348 690 425 690Z" glyph-name="Oogonek" horiz-adv-x="690" unicode="&#490;" /><glyph d="M605 767H274L286 835H617ZM309 63Q409 63 464 118Q490 144 509.5 188Q529 232 541.5 281.5Q554 331 560.5 379Q567 427 567 462Q567 542 529 580Q494 615 411 615Q311 615 256 560Q230 534 210.5 490Q191 446 178 396.5Q165 347 159 299Q153 251 153 216Q153 136 191 98Q226 63 309 63ZM425 690Q491 690 536.5 673Q582 656 609 629Q638 600 650.5 557.5Q663 515 663 462Q663 419 655 364Q647 309 631.5 254Q616 199 592 149.5Q568 100 536 68Q500 32 449.5 13.5Q399 -5 336 -10Q324 -19 311 -32Q299 -44 291 -58.5Q283 -73 283 -89Q283 -101 291 -109Q300 -118 321 -118Q335 -118 351 -116Q367 -114 385 -109L375 -164Q359 -170 337 -172Q315 -174 298 -174Q270 -174 251 -167Q232 -160 221 -149Q204 -132 204 -106Q204 -84 214 -65.5Q224 -47 241 -30Q246 -25 251.5 -20Q257 -15 264 -11Q210 -7 172 9Q134 25 111 49Q82 78 69.5 120.5Q57 163 57 216Q57 259 64.5 314Q72 369 88 424Q104 479 128 528.5Q152 578 184 610Q226 652 287 671Q348 690 425 690Z" glyph-name="Oogonekmacron" horiz-adv-x="690" unicode="&#492;" /><glyph d="M309 63Q409 63 464 118Q490 144 509.5 188Q529 232 541.5 281.5Q554 331 560.5 379Q567 427 567 462Q567 540 530 578L259 67Q279 63 309 63ZM153 216Q153 136 191 98Q191 97 192 97L464 610Q452 612 439 613.5Q426 615 411 615Q311 615 256 560Q230 534 210.5 490Q191 446 178 396.5Q165 347 159 299Q153 251 153 216ZM572 657Q583 651 592 644Q601 637 609 629Q638 600 650.5 557.5Q663 515 663 462Q663 419 655 364Q647 309 631.5 254Q616 199 592 149.5Q568 100 536 68Q494 26 433 7Q372 -12 295 -12Q275 -12 256.5 -10Q238 -8 221 -5L178 -86H95L151 19Q128 32 111 49Q82 78 69.5 120.5Q57 163 57 216Q57 259 64.5 314Q72 369 88 424Q104 479 128 528.5Q152 578 184 610Q226 652 287 671Q348 690 425 690Q465 690 502 682L545 762H628Z" glyph-name="Oslash" horiz-adv-x="690" unicode="&#216;" /><glyph d="M456 734H375L504 846H617ZM309 63Q409 63 464 118Q490 144 509.5 188Q529 232 541.5 281.5Q554 331 560.5 379Q567 427 567 462Q567 540 530 578L259 67Q279 63 309 63ZM153 216Q153 136 191 98Q191 97 192 97L464 610Q452 612 439 613.5Q426 615 411 615Q311 615 256 560Q230 534 210.5 490Q191 446 178 396.5Q165 347 159 299Q153 251 153 216ZM572 657Q583 651 592 644Q601 637 609 629Q638 600 650.5 557.5Q663 515 663 462Q663 419 655 364Q647 309 631.5 254Q616 199 592 149.5Q568 100 536 68Q494 26 433 7Q372 -12 295 -12Q275 -12 256.5 -10Q238 -8 221 -5L178 -86H95L151 19Q128 32 111 49Q82 78 69.5 120.5Q57 163 57 216Q57 259 64.5 314Q72 369 88 424Q104 479 128 528.5Q152 578 184 610Q226 652 287 671Q348 690 425 690Q465 690 502 682L545 762H628Z" glyph-name="Oslashacute" horiz-adv-x="690" unicode="&#510;" /><glyph d="M525 824Q547 824 574 835Q601 846 624 860L612 794Q603 788 591.5 782Q580 776 566.5 771Q553 766 539.5 762.5Q526 759 514 759Q495 759 476.5 764Q458 769 440.5 775.5Q423 782 405.5 787Q388 792 370 792Q348 792 321 781Q294 770 271 756L284 822Q301 833 329 845.5Q357 858 381 858Q400 858 418 852.5Q436 847 453.5 841Q471 835 488.5 829.5Q506 824 525 824ZM309 63Q409 63 464 118Q490 144 509.5 188Q529 232 541.5 281.5Q554 331 560.5 379Q567 427 567 462Q567 542 529 580Q494 615 411 615Q311 615 256 560Q230 534 210.5 490Q191 446 178 396.5Q165 347 159 299Q153 251 153 216Q153 136 191 98Q226 63 309 63ZM425 690Q491 690 536.5 673Q582 656 609 629Q638 600 650.5 557.5Q663 515 663 462Q663 419 655 364Q647 309 631.5 254Q616 199 592 149.5Q568 100 536 68Q494 26 433 7Q372 -12 295 -12Q229 -12 183.5 5Q138 22 111 49Q82 78 69.5 120.5Q57 163 57 216Q57 259 64.5 314Q72 369 88 424Q104 479 128 528.5Q152 578 184 610Q226 652 287 671Q348 690 425 690Z" glyph-name="Otilde" horiz-adv-x="690" unicode="&#213;" /><glyph d="M526 824Q548 824 575 835Q602 846 625 860L613 794Q604 788 592.5 782Q581 776 567.5 771Q554 766 540.5 762.5Q527 759 515 759Q496 759 477.5 764Q459 769 441.5 775.5Q424 782 406.5 787Q389 792 371 792Q349 792 322 781Q295 770 272 756L285 822Q302 833 330 845.5Q358 858 382 858Q401 858 419 852.5Q437 847 454.5 841Q472 835 489.5 829.5Q507 824 526 824ZM631 905H300L312 973H643ZM309 63Q409 63 464 118Q490 144 509.5 188Q529 232 541.5 281.5Q554 331 560.5 379Q567 427 567 462Q567 542 529 580Q494 615 411 615Q311 615 256 560Q230 534 210.5 490Q191 446 178 396.5Q165 347 159 299Q153 251 153 216Q153 136 191 98Q226 63 309 63ZM425 690Q491 690 536.5 673Q582 656 609 629Q638 600 650.5 557.5Q663 515 663 462Q663 419 655 364Q647 309 631.5 254Q616 199 592 149.5Q568 100 536 68Q494 26 433 7Q372 -12 295 -12Q229 -12 183.5 5Q138 22 111 49Q82 78 69.5 120.5Q57 163 57 216Q57 259 64.5 314Q72 369 88 424Q104 479 128 528.5Q152 578 184 610Q226 652 287 671Q348 690 425 690Z" glyph-name="Otildemacron" horiz-adv-x="690" unicode="&#556;" /><glyph d="M293 -234H215L244 -76H322ZM309 63Q409 63 464 118Q490 144 509.5 188Q529 232 541.5 281.5Q554 331 560.5 379Q567 427 567 462Q567 542 529 580Q494 615 411 615Q311 615 256 560Q230 534 210.5 490Q191 446 178 396.5Q165 347 159 299Q153 251 153 216Q153 136 191 98Q226 63 309 63ZM425 690Q491 690 536.5 673Q582 656 609 629Q638 600 650.5 557.5Q663 515 663 462Q663 419 655 364Q647 309 631.5 254Q616 199 592 149.5Q568 100 536 68Q494 26 433 7Q372 -12 295 -12Q229 -12 183.5 5Q138 22 111 49Q82 78 69.5 120.5Q57 163 57 216Q57 259 64.5 314Q72 369 88 424Q104 479 128 528.5Q152 578 184 610Q226 652 287 671Q348 690 425 690Z" glyph-name="Ounderlineaccent" horiz-adv-x="690" unicode="&#57633;" /><glyph d="M134 0H43L168 678H398Q469 678 512 664.5Q555 651 581 625Q601 605 608 576.5Q615 548 615 518Q615 493 611 463.5Q607 434 598 405Q589 376 574.5 348.5Q560 321 538 299Q517 278 492.5 266Q468 254 440 248Q412 242 382.5 240Q353 238 323 238H178ZM334 309Q368 309 403 313.5Q438 318 466 346Q479 359 489 378.5Q499 398 505.5 420.5Q512 443 515 465.5Q518 488 518 508Q518 527 514 546Q510 565 494 581Q478 597 454.5 602Q431 607 389 607H246L191 309Z" glyph-name="P" horiz-adv-x="601" unicode="P" /><glyph d="M553 767H222L234 835H565ZM134 0H43L168 678H398Q469 678 512 664.5Q555 651 581 625Q601 605 608 576.5Q615 548 615 518Q615 493 611 463.5Q607 434 598 405Q589 376 574.5 348.5Q560 321 538 299Q517 278 492.5 266Q468 254 440 248Q412 242 382.5 240Q353 238 323 238H178ZM334 309Q368 309 403 313.5Q438 318 466 346Q479 359 489 378.5Q499 398 505.5 420.5Q512 443 515 465.5Q518 488 518 508Q518 527 514 546Q510 565 494 581Q478 597 454.5 602Q431 607 389 607H246L191 309Z" glyph-name="Pmacron" horiz-adv-x="601" unicode="&#57635;" /><glyph d="M309 63Q409 63 464 118Q490 144 509.5 188Q529 232 541.5 281.5Q554 331 560.5 379Q567 427 567 462Q567 542 529 580Q494 615 411 615Q311 615 256 560Q230 534 210.5 490Q191 446 178 396.5Q165 347 159 299Q153 251 153 216Q153 136 191 98Q226 63 309 63ZM425 690Q491 690 536.5 673Q582 656 609 629Q638 600 650.5 558.5Q663 517 663 464Q663 421 655 366Q647 311 631.5 255.5Q616 200 592 150Q568 100 536 68Q508 40 472 22L574 -118H464L380 -5Q342 -12 295 -12Q229 -12 183.5 5Q138 22 111 49Q82 78 69.5 119.5Q57 161 57 214Q57 257 64.5 312Q72 367 88 422.5Q104 478 128 528Q152 578 184 610Q226 652 287 671Q348 690 425 690Z" glyph-name="Q" horiz-adv-x="690" unicode="Q" /><glyph d="M246 607 197 344H359Q400 344 425.5 351Q451 358 474 381Q497 404 509 442.5Q521 481 521 519Q521 536 516.5 552.5Q512 569 498 583Q484 597 464 602Q444 607 408 607ZM417 678Q480 678 519 665.5Q558 653 581 630Q601 610 609 581.5Q617 553 617 524Q617 472 599 421Q581 370 543 332Q517 306 482.5 293Q448 280 405 276L546 0H446L306 273H184L134 0H43L168 678Z" glyph-name="R" horiz-adv-x="624" unicode="R" /><glyph d="M409 734H328L457 846H570ZM246 607 197 344H359Q400 344 425.5 351Q451 358 474 381Q497 404 509 442.5Q521 481 521 519Q521 536 516.5 552.5Q512 569 498 583Q484 597 464 602Q444 607 408 607ZM417 678Q480 678 519 665.5Q558 653 581 630Q601 610 609 581.5Q617 553 617 524Q617 472 599 421Q581 370 543 332Q517 306 482.5 293Q448 280 405 276L546 0H446L306 273H184L134 0H43L168 678Z" glyph-name="Racute" horiz-adv-x="624" unicode="&#340;" /><glyph d="M264 846H340L395 776L476 846H562L430 730H351ZM246 607 197 344H359Q400 344 425.5 351Q451 358 474 381Q497 404 509 442.5Q521 481 521 519Q521 536 516.5 552.5Q512 569 498 583Q484 597 464 602Q444 607 408 607ZM417 678Q480 678 519 665.5Q558 653 581 630Q601 610 609 581.5Q617 553 617 524Q617 472 599 421Q581 370 543 332Q517 306 482.5 293Q448 280 405 276L546 0H446L306 273H184L134 0H43L168 678Z" glyph-name="Rcaron" horiz-adv-x="624" unicode="&#344;" /><glyph d="M253 -34Q287 -36 307 -45.5Q327 -55 338 -66Q350 -78 350 -96Q350 -122 329 -143Q312 -160 282.5 -167Q253 -174 218 -174Q205 -174 184 -172.5Q163 -171 141 -164L151 -110Q166 -115 183 -117Q200 -119 215 -119Q224 -119 234.5 -118.5Q245 -118 253 -116Q261 -114 266.5 -109Q272 -104 272 -96Q272 -90 266.5 -86Q261 -82 253.5 -80Q246 -78 238.5 -77Q231 -76 226 -75ZM246 607 197 344H359Q400 344 425.5 351Q451 358 474 381Q497 404 509 442.5Q521 481 521 519Q521 536 516.5 552.5Q512 569 498 583Q484 597 464 602Q444 607 408 607ZM417 678Q480 678 519 665.5Q558 653 581 630Q601 610 609 581.5Q617 553 617 524Q617 472 599 421Q581 370 543 332Q517 306 482.5 293Q448 280 405 276L546 0H446L306 273H184L134 0H43L168 678Z" glyph-name="Rcedilla" horiz-adv-x="624" unicode="&#57639;" /><glyph d="M211 -76H307L202 -247H143ZM246 607 197 344H359Q400 344 425.5 351Q451 358 474 381Q497 404 509 442.5Q521 481 521 519Q521 536 516.5 552.5Q512 569 498 583Q484 597 464 602Q444 607 408 607ZM417 678Q480 678 519 665.5Q558 653 581 630Q601 610 609 581.5Q617 553 617 524Q617 472 599 421Q581 370 543 332Q517 306 482.5 293Q448 280 405 276L546 0H446L306 273H184L134 0H43L168 678Z" glyph-name="Rcommaaccent" horiz-adv-x="624" unicode="&#342;" /><glyph d="M290 -181H201L217 -96H306ZM246 607 197 344H359Q400 344 425.5 351Q451 358 474 381Q497 404 509 442.5Q521 481 521 519Q521 536 516.5 552.5Q512 569 498 583Q484 597 464 602Q444 607 408 607ZM417 678Q480 678 519 665.5Q558 653 581 630Q601 610 609 581.5Q617 553 617 524Q617 472 599 421Q581 370 543 332Q517 306 482.5 293Q448 280 405 276L546 0H446L306 273H184L134 0H43L168 678Z" glyph-name="Rdotbelow" horiz-adv-x="624" unicode="&#7770;" /><glyph d="M290 -181H201L217 -96H306ZM554 767H223L235 835H566ZM246 607 197 344H359Q400 344 425.5 351Q451 358 474 381Q497 404 509 442.5Q521 481 521 519Q521 536 516.5 552.5Q512 569 498 583Q484 597 464 602Q444 607 408 607ZM417 678Q480 678 519 665.5Q558 653 581 630Q601 610 609 581.5Q617 553 617 524Q617 472 599 421Q581 370 543 332Q517 306 482.5 293Q448 280 405 276L546 0H446L306 273H184L134 0H43L168 678Z" glyph-name="Rdotbelowmacron" horiz-adv-x="624" unicode="&#7772;" /><glyph d="M183 846H276L363 734H302ZM323 846H416L503 734H442ZM246 607 197 344H359Q400 344 425.5 351Q451 358 474 381Q497 404 509 442.5Q521 481 521 519Q521 536 516.5 552.5Q512 569 498 583Q484 597 464 602Q444 607 408 607ZM417 678Q480 678 519 665.5Q558 653 581 630Q601 610 609 581.5Q617 553 617 524Q617 472 599 421Q581 370 543 332Q517 306 482.5 293Q448 280 405 276L546 0H446L306 273H184L134 0H43L168 678Z" glyph-name="Rdoublegrave" horiz-adv-x="624" unicode="&#57637;" /><glyph d="M392 794Q369 794 345.5 788.5Q322 783 305 766Q291 752 284 734H211Q224 774 250 800Q277 827 315.5 839.5Q354 852 400 852Q479 852 516 815Q531 800 539.5 781Q548 762 547 734H478Q478 748 474 757Q470 766 462 774Q450 786 431 790Q412 794 392 794ZM246 607 197 344H359Q400 344 425.5 351Q451 358 474 381Q497 404 509 442.5Q521 481 521 519Q521 536 516.5 552.5Q512 569 498 583Q484 597 464 602Q444 607 408 607ZM417 678Q480 678 519 665.5Q558 653 581 630Q601 610 609 581.5Q617 553 617 524Q617 472 599 421Q581 370 543 332Q517 306 482.5 293Q448 280 405 276L546 0H446L306 273H184L134 0H43L168 678Z" glyph-name="Rinvertedbreve" horiz-adv-x="624" unicode="&#530;" /><glyph d="M232 67Q292 67 331.5 80.5Q371 94 395 117Q415 136 425 163.5Q435 191 435 221Q435 257 417 275Q402 290 381 296.5Q360 303 336 305.5Q312 308 285.5 309Q259 310 233 314Q207 318 182.5 327.5Q158 337 139 357Q122 374 112 398.5Q102 423 102 455Q102 500 117 543.5Q132 587 162 617Q185 640 213 654.5Q241 669 271.5 677Q302 685 334.5 687.5Q367 690 400 690Q412 690 432 689Q452 688 475 686Q498 684 521.5 679Q545 674 565 667L551 592Q506 608 461 611.5Q416 615 384 615Q284 615 236 567Q219 550 210 525.5Q201 501 201 474Q201 443 218 426Q237 407 272 403Q307 399 347.5 395.5Q388 392 428.5 382Q469 372 500 341Q515 326 525.5 300.5Q536 275 536 243Q536 198 519.5 149.5Q503 101 465 63Q442 40 413 25.5Q384 11 351.5 2.5Q319 -6 284 -9Q249 -12 215 -12Q203 -12 179 -11Q155 -10 127 -7Q99 -4 71 1.5Q43 7 23 16L38 95Q61 86 88 80.5Q115 75 141.5 72Q168 69 192 68Q216 67 232 67Z" glyph-name="S" horiz-adv-x="582" unicode="S" /><glyph d="M411 734H330L459 846H572ZM232 67Q292 67 331.5 80.5Q371 94 395 117Q415 136 425 163.5Q435 191 435 221Q435 257 417 275Q402 290 381 296.5Q360 303 336 305.5Q312 308 285.5 309Q259 310 233 314Q207 318 182.5 327.5Q158 337 139 357Q122 374 112 398.5Q102 423 102 455Q102 500 117 543.5Q132 587 162 617Q185 640 213 654.5Q241 669 271.5 677Q302 685 334.5 687.5Q367 690 400 690Q412 690 432 689Q452 688 475 686Q498 684 521.5 679Q545 674 565 667L551 592Q506 608 461 611.5Q416 615 384 615Q284 615 236 567Q219 550 210 525.5Q201 501 201 474Q201 443 218 426Q237 407 272 403Q307 399 347.5 395.5Q388 392 428.5 382Q469 372 500 341Q515 326 525.5 300.5Q536 275 536 243Q536 198 519.5 149.5Q503 101 465 63Q442 40 413 25.5Q384 11 351.5 2.5Q319 -6 284 -9Q249 -12 215 -12Q203 -12 179 -11Q155 -10 127 -7Q99 -4 71 1.5Q43 7 23 16L38 95Q61 86 88 80.5Q115 75 141.5 72Q168 69 192 68Q216 67 232 67Z" glyph-name="Sacute" horiz-adv-x="582" unicode="&#346;" /><glyph d="M250 846H326L381 776L462 846H548L416 730H337ZM232 67Q292 67 331.5 80.5Q371 94 395 117Q415 136 425 163.5Q435 191 435 221Q435 257 417 275Q402 290 381 296.5Q360 303 336 305.5Q312 308 285.5 309Q259 310 233 314Q207 318 182.5 327.5Q158 337 139 357Q122 374 112 398.5Q102 423 102 455Q102 500 117 543.5Q132 587 162 617Q185 640 213 654.5Q241 669 271.5 677Q302 685 334.5 687.5Q367 690 400 690Q412 690 432 689Q452 688 475 686Q498 684 521.5 679Q545 674 565 667L551 592Q506 608 461 611.5Q416 615 384 615Q284 615 236 567Q219 550 210 525.5Q201 501 201 474Q201 443 218 426Q237 407 272 403Q307 399 347.5 395.5Q388 392 428.5 382Q469 372 500 341Q515 326 525.5 300.5Q536 275 536 243Q536 198 519.5 149.5Q503 101 465 63Q442 40 413 25.5Q384 11 351.5 2.5Q319 -6 284 -9Q249 -12 215 -12Q203 -12 179 -11Q155 -10 127 -7Q99 -4 71 1.5Q43 7 23 16L38 95Q61 86 88 80.5Q115 75 141.5 72Q168 69 192 68Q216 67 232 67Z" glyph-name="Scaron" horiz-adv-x="582" unicode="&#352;" /><glyph d="M207 -12Q192 -12 168.5 -10.5Q145 -9 119 -6Q93 -3 67.5 2.5Q42 8 23 16L38 95Q61 86 88 80.5Q115 75 141.5 72Q168 69 192 68Q216 67 232 67Q292 67 331.5 80.5Q371 94 395 117Q415 136 425 163.5Q435 191 435 221Q435 257 417 275Q402 290 381 296.5Q360 303 336 305.5Q312 308 285.5 309Q259 310 233 314Q207 318 182.5 327.5Q158 337 139 357Q122 374 112 398.5Q102 423 102 455Q102 500 117 543.5Q132 587 162 617Q185 640 213 654.5Q241 669 271.5 677Q302 685 334.5 687.5Q367 690 400 690Q412 690 432 689Q452 688 475 686Q498 684 521.5 679Q545 674 565 667L551 592Q506 608 461 611.5Q416 615 384 615Q284 615 236 567Q219 550 210 525.5Q201 501 201 474Q201 443 218 426Q237 407 272 403Q307 399 347.5 395.5Q388 392 428.5 382Q469 372 500 341Q515 326 525.5 300.5Q536 275 536 243Q536 198 519.5 149.5Q503 101 465 63Q430 28 382 12Q334 -4 281 -9L264 -37Q287 -44 302 -59Q314 -71 314 -90Q314 -105 309 -117.5Q304 -130 291 -143Q273 -161 243 -167.5Q213 -174 175 -174Q164 -174 144.5 -172Q125 -170 104 -164L114 -110Q131 -115 148.5 -116.5Q166 -118 178 -118Q184 -118 194 -117.5Q204 -117 213.5 -114.5Q223 -112 229.5 -106.5Q236 -101 236 -91Q236 -84 231 -80Q226 -76 218.5 -73.5Q211 -71 202.5 -70Q194 -69 188 -68L186 -44Z" glyph-name="Scedilla" horiz-adv-x="582" unicode="&#350;" /><glyph d="M286 62Q328 62 370.5 74.5Q413 87 445 119Q471 145 491.5 185.5Q512 226 527 285H151Q146 262 141.5 237Q137 212 137 185Q137 162 143 138.5Q149 115 166 98Q185 79 216.5 70.5Q248 62 286 62ZM50 186Q50 229 58 271Q66 313 77 356H542Q547 385 549.5 410Q552 435 552 457Q552 486 545.5 515.5Q539 545 516 568Q469 615 347 615Q305 615 253.5 610Q202 605 148 588L162 661Q216 678 276 684Q336 690 381 690Q455 690 507.5 671Q560 652 592 620Q647 565 647 455Q647 410 640 358.5Q633 307 616.5 255.5Q600 204 574 156Q548 108 511 71Q463 23 401 6Q339 -11 270 -11Q210 -11 167 5.5Q124 22 97 49Q50 96 50 186Z" glyph-name="Schwa" horiz-adv-x="675" unicode="&#399;" /><glyph d="M526 734H450L395 804L314 734H228L360 850H439ZM232 67Q292 67 331.5 80.5Q371 94 395 117Q415 136 425 163.5Q435 191 435 221Q435 257 417 275Q402 290 381 296.5Q360 303 336 305.5Q312 308 285.5 309Q259 310 233 314Q207 318 182.5 327.5Q158 337 139 357Q122 374 112 398.5Q102 423 102 455Q102 500 117 543.5Q132 587 162 617Q185 640 213 654.5Q241 669 271.5 677Q302 685 334.5 687.5Q367 690 400 690Q412 690 432 689Q452 688 475 686Q498 684 521.5 679Q545 674 565 667L551 592Q506 608 461 611.5Q416 615 384 615Q284 615 236 567Q219 550 210 525.5Q201 501 201 474Q201 443 218 426Q237 407 272 403Q307 399 347.5 395.5Q388 392 428.5 382Q469 372 500 341Q515 326 525.5 300.5Q536 275 536 243Q536 198 519.5 149.5Q503 101 465 63Q442 40 413 25.5Q384 11 351.5 2.5Q319 -6 284 -9Q249 -12 215 -12Q203 -12 179 -11Q155 -10 127 -7Q99 -4 71 1.5Q43 7 23 16L38 95Q61 86 88 80.5Q115 75 141.5 72Q168 69 192 68Q216 67 232 67Z" glyph-name="Scircumflex" horiz-adv-x="582" unicode="&#348;" /><glyph d="M198 -76H294L189 -247H130ZM232 67Q292 67 331.5 80.5Q371 94 395 117Q415 136 425 163.5Q435 191 435 221Q435 257 417 275Q402 290 381 296.5Q360 303 336 305.5Q312 308 285.5 309Q259 310 233 314Q207 318 182.5 327.5Q158 337 139 357Q122 374 112 398.5Q102 423 102 455Q102 500 117 543.5Q132 587 162 617Q185 640 213 654.5Q241 669 271.5 677Q302 685 334.5 687.5Q367 690 400 690Q412 690 432 689Q452 688 475 686Q498 684 521.5 679Q545 674 565 667L551 592Q506 608 461 611.5Q416 615 384 615Q284 615 236 567Q219 550 210 525.5Q201 501 201 474Q201 443 218 426Q237 407 272 403Q307 399 347.5 395.5Q388 392 428.5 382Q469 372 500 341Q515 326 525.5 300.5Q536 275 536 243Q536 198 519.5 149.5Q503 101 465 63Q442 40 413 25.5Q384 11 351.5 2.5Q319 -6 284 -9Q249 -12 215 -12Q203 -12 179 -11Q155 -10 127 -7Q99 -4 71 1.5Q43 7 23 16L38 95Q61 86 88 80.5Q115 75 141.5 72Q168 69 192 68Q216 67 232 67Z" glyph-name="Scommaaccent" horiz-adv-x="582" unicode="&#536;" /><glyph d="M264 -181H175L191 -96H280ZM232 67Q292 67 331.5 80.5Q371 94 395 117Q415 136 425 163.5Q435 191 435 221Q435 257 417 275Q402 290 381 296.5Q360 303 336 305.5Q312 308 285.5 309Q259 310 233 314Q207 318 182.5 327.5Q158 337 139 357Q122 374 112 398.5Q102 423 102 455Q102 500 117 543.5Q132 587 162 617Q185 640 213 654.5Q241 669 271.5 677Q302 685 334.5 687.5Q367 690 400 690Q412 690 432 689Q452 688 475 686Q498 684 521.5 679Q545 674 565 667L551 592Q506 608 461 611.5Q416 615 384 615Q284 615 236 567Q219 550 210 525.5Q201 501 201 474Q201 443 218 426Q237 407 272 403Q307 399 347.5 395.5Q388 392 428.5 382Q469 372 500 341Q515 326 525.5 300.5Q536 275 536 243Q536 198 519.5 149.5Q503 101 465 63Q442 40 413 25.5Q384 11 351.5 2.5Q319 -6 284 -9Q249 -12 215 -12Q203 -12 179 -11Q155 -10 127 -7Q99 -4 71 1.5Q43 7 23 16L38 95Q61 86 88 80.5Q115 75 141.5 72Q168 69 192 68Q216 67 232 67Z" glyph-name="Sdotbelow" horiz-adv-x="582" unicode="&#7778;" /><glyph d="M260 0H169L281 607H80L93 678H586L573 607H372Z" glyph-name="T" horiz-adv-x="523" unicode="T" /><glyph d="M460 310H317L260 0H169L226 310H84L97 381H239L281 607H80L93 678H586L573 607H372L330 381H473Z" glyph-name="Tbar" horiz-adv-x="523" unicode="&#358;" /><glyph d="M217 846H293L348 776L429 846H515L383 730H304ZM260 0H169L281 607H80L93 678H586L573 607H372Z" glyph-name="Tcaron" horiz-adv-x="523" unicode="&#356;" /><glyph d="M189 -34Q223 -36 243 -45.5Q263 -55 274 -66Q286 -78 286 -96Q286 -122 265 -143Q248 -160 218.5 -167Q189 -174 154 -174Q141 -174 120 -172.5Q99 -171 77 -164L87 -110Q102 -115 119 -117Q136 -119 151 -119Q160 -119 170.5 -118.5Q181 -118 189 -116Q197 -114 202.5 -109Q208 -104 208 -96Q208 -90 202.5 -86Q197 -82 189.5 -80Q182 -78 174.5 -77Q167 -76 162 -75ZM260 0H169L281 607H80L93 678H586L573 607H372Z" glyph-name="Tcedilla" horiz-adv-x="523" unicode="&#57641;" /><glyph d="M149 -76H245L140 -247H81ZM260 0H169L281 607H80L93 678H586L573 607H372Z" glyph-name="Tcommaaccent" horiz-adv-x="523" unicode="&#354;" /><glyph d="M225 -181H136L152 -96H241ZM260 0H169L281 607H80L93 678H586L573 607H372Z" glyph-name="Tdotbelow" horiz-adv-x="523" unicode="&#7788;" /><glyph d="M371 549Q442 549 485.5 535.5Q529 522 555 496Q575 476 583 447.5Q591 419 591 389Q591 364 587 334.5Q583 305 574 276Q565 247 550.5 219.5Q536 192 514 170Q493 149 468.5 137Q444 125 416 119Q388 113 358.5 111Q329 109 299 109H154L134 0H43L168 678H260L236 549ZM310 180Q344 180 379 184.5Q414 189 442 217Q455 230 465 249.5Q475 269 481.5 291.5Q488 314 491 336.5Q494 359 494 379Q494 398 490 417Q486 436 470 452Q453 469 430 473.5Q407 478 365 478H222L167 180Z" glyph-name="Thorn" horiz-adv-x="601" unicode="&#222;" /><glyph d="M294 58Q331 58 370 67.5Q409 77 439 107Q465 132 475 160.5Q485 189 490 213L576 678H667L583 224Q575 179 559.5 138.5Q544 98 505 59Q482 36 456 22Q430 8 401.5 0.5Q373 -7 343 -9.5Q313 -12 281 -12Q209 -12 165 5Q121 22 95 54Q65 91 62.5 138Q60 185 69 234L151 678H242L156 213Q151 187 151.5 156Q152 125 173 99Q190 78 217.5 68Q245 58 294 58Z" glyph-name="U" horiz-adv-x="666" unicode="U" /><glyph d="M985 678 972 607H654L612 381H888L875 310H599L555 71H881L868 0H392Q344 -12 281 -12Q209 -12 165 5Q121 22 95 54Q65 91 62.5 138Q60 185 69 234L151 678H242L156 213Q151 187 151.5 156Q152 125 173 99Q190 78 217.5 68Q245 58 294 58Q331 58 370 67.5Q409 77 439 107Q465 132 475 160.5Q485 189 490 213L576 678Z" glyph-name="UE" horiz-adv-x="953" unicode="&#59481;" /><glyph d="M451 734H370L499 846H612ZM294 58Q331 58 370 67.5Q409 77 439 107Q465 132 475 160.5Q485 189 490 213L576 678H667L583 224Q575 179 559.5 138.5Q544 98 505 59Q482 36 456 22Q430 8 401.5 0.5Q373 -7 343 -9.5Q313 -12 281 -12Q209 -12 165 5Q121 22 95 54Q65 91 62.5 138Q60 185 69 234L151 678H242L156 213Q151 187 151.5 156Q152 125 173 99Q190 78 217.5 68Q245 58 294 58Z" glyph-name="Uacute" horiz-adv-x="666" unicode="&#218;" /><glyph d="M424 786Q447 786 470.5 791.5Q494 797 511 814Q525 828 532 846H605Q591 805 566 780Q539 753 500.5 740.5Q462 728 416 728Q337 728 300 765Q285 780 276.5 799Q268 818 269 846H338Q338 832 342 823Q346 814 354 806Q366 794 385 790Q404 786 424 786ZM294 58Q331 58 370 67.5Q409 77 439 107Q465 132 475 160.5Q485 189 490 213L576 678H667L583 224Q575 179 559.5 138.5Q544 98 505 59Q482 36 456 22Q430 8 401.5 0.5Q373 -7 343 -9.5Q313 -12 281 -12Q209 -12 165 5Q121 22 95 54Q65 91 62.5 138Q60 185 69 234L151 678H242L156 213Q151 187 151.5 156Q152 125 173 99Q190 78 217.5 68Q245 58 294 58Z" glyph-name="Ubreve" horiz-adv-x="666" unicode="&#364;" /><glyph d="M279 846H355L410 776L491 846H577L445 730H366ZM294 58Q331 58 370 67.5Q409 77 439 107Q465 132 475 160.5Q485 189 490 213L576 678H667L583 224Q575 179 559.5 138.5Q544 98 505 59Q482 36 456 22Q430 8 401.5 0.5Q373 -7 343 -9.5Q313 -12 281 -12Q209 -12 165 5Q121 22 95 54Q65 91 62.5 138Q60 185 69 234L151 678H242L156 213Q151 187 151.5 156Q152 125 173 99Q190 78 217.5 68Q245 58 294 58Z" glyph-name="Ucaron" horiz-adv-x="666" unicode="&#467;" /><glyph d="M565 734H489L434 804L353 734H267L399 850H478ZM294 58Q331 58 370 67.5Q409 77 439 107Q465 132 475 160.5Q485 189 490 213L576 678H667L583 224Q575 179 559.5 138.5Q544 98 505 59Q482 36 456 22Q430 8 401.5 0.5Q373 -7 343 -9.5Q313 -12 281 -12Q209 -12 165 5Q121 22 95 54Q65 91 62.5 138Q60 185 69 234L151 678H242L156 213Q151 187 151.5 156Q152 125 173 99Q190 78 217.5 68Q245 58 294 58Z" glyph-name="Ucircumflex" horiz-adv-x="666" unicode="&#219;" /><glyph d="M560 755H471L487 841H576ZM370 755H281L297 841H386ZM294 58Q331 58 370 67.5Q409 77 439 107Q465 132 475 160.5Q485 189 490 213L576 678H667L583 224Q575 179 559.5 138.5Q544 98 505 59Q482 36 456 22Q430 8 401.5 0.5Q373 -7 343 -9.5Q313 -12 281 -12Q209 -12 165 5Q121 22 95 54Q65 91 62.5 138Q60 185 69 234L151 678H242L156 213Q151 187 151.5 156Q152 125 173 99Q190 78 217.5 68Q245 58 294 58Z" glyph-name="Udieresis" horiz-adv-x="666" unicode="&#220;" /><glyph d="M297 -181H208L224 -96H313ZM294 58Q331 58 370 67.5Q409 77 439 107Q465 132 475 160.5Q485 189 490 213L576 678H667L583 224Q575 179 559.5 138.5Q544 98 505 59Q482 36 456 22Q430 8 401.5 0.5Q373 -7 343 -9.5Q313 -12 281 -12Q209 -12 165 5Q121 22 95 54Q65 91 62.5 138Q60 185 69 234L151 678H242L156 213Q151 187 151.5 156Q152 125 173 99Q190 78 217.5 68Q245 58 294 58Z" glyph-name="Udotbelow" horiz-adv-x="666" unicode="&#7908;" /><glyph d="M213 846H306L393 734H332ZM353 846H446L533 734H472ZM294 58Q331 58 370 67.5Q409 77 439 107Q465 132 475 160.5Q485 189 490 213L576 678H667L583 224Q575 179 559.5 138.5Q544 98 505 59Q482 36 456 22Q430 8 401.5 0.5Q373 -7 343 -9.5Q313 -12 281 -12Q209 -12 165 5Q121 22 95 54Q65 91 62.5 138Q60 185 69 234L151 678H242L156 213Q151 187 151.5 156Q152 125 173 99Q190 78 217.5 68Q245 58 294 58Z" glyph-name="Udoublegrave" horiz-adv-x="666" unicode="&#532;" /><glyph d="M272 846H379L466 734H391ZM294 58Q331 58 370 67.5Q409 77 439 107Q465 132 475 160.5Q485 189 490 213L576 678H667L583 224Q575 179 559.5 138.5Q544 98 505 59Q482 36 456 22Q430 8 401.5 0.5Q373 -7 343 -9.5Q313 -12 281 -12Q209 -12 165 5Q121 22 95 54Q65 91 62.5 138Q60 185 69 234L151 678H242L156 213Q151 187 151.5 156Q152 125 173 99Q190 78 217.5 68Q245 58 294 58Z" glyph-name="Ugrave" horiz-adv-x="666" unicode="&#217;" /><glyph d="M501 734H433L562 846H662ZM361 734H293L422 846H522ZM294 58Q331 58 370 67.5Q409 77 439 107Q465 132 475 160.5Q485 189 490 213L576 678H667L583 224Q575 179 559.5 138.5Q544 98 505 59Q482 36 456 22Q430 8 401.5 0.5Q373 -7 343 -9.5Q313 -12 281 -12Q209 -12 165 5Q121 22 95 54Q65 91 62.5 138Q60 185 69 234L151 678H242L156 213Q151 187 151.5 156Q152 125 173 99Q190 78 217.5 68Q245 58 294 58Z" glyph-name="Uhungarumlaut" horiz-adv-x="666" unicode="&#368;" /><glyph d="M429 794Q406 794 382.5 788.5Q359 783 342 766Q328 752 321 734H248Q261 774 287 800Q314 827 352.5 839.5Q391 852 437 852Q516 852 553 815Q568 800 576.5 781Q585 762 584 734H515Q515 748 511 757Q507 766 499 774Q487 786 468 790Q449 794 429 794ZM294 58Q331 58 370 67.5Q409 77 439 107Q465 132 475 160.5Q485 189 490 213L576 678H667L583 224Q575 179 559.5 138.5Q544 98 505 59Q482 36 456 22Q430 8 401.5 0.5Q373 -7 343 -9.5Q313 -12 281 -12Q209 -12 165 5Q121 22 95 54Q65 91 62.5 138Q60 185 69 234L151 678H242L156 213Q151 187 151.5 156Q152 125 173 99Q190 78 217.5 68Q245 58 294 58Z" glyph-name="Uinvertedbreve" horiz-adv-x="666" unicode="&#534;" /><glyph d="M589 767H258L270 835H601ZM294 58Q331 58 370 67.5Q409 77 439 107Q465 132 475 160.5Q485 189 490 213L576 678H667L583 224Q575 179 559.5 138.5Q544 98 505 59Q482 36 456 22Q430 8 401.5 0.5Q373 -7 343 -9.5Q313 -12 281 -12Q209 -12 165 5Q121 22 95 54Q65 91 62.5 138Q60 185 69 234L151 678H242L156 213Q151 187 151.5 156Q152 125 173 99Q190 78 217.5 68Q245 58 294 58Z" glyph-name="Umacron" horiz-adv-x="666" unicode="&#362;" /><glyph d="M421 -157H90L102 -89H433ZM294 58Q331 58 370 67.5Q409 77 439 107Q465 132 475 160.5Q485 189 490 213L576 678H667L583 224Q575 179 559.5 138.5Q544 98 505 59Q482 36 456 22Q430 8 401.5 0.5Q373 -7 343 -9.5Q313 -12 281 -12Q209 -12 165 5Q121 22 95 54Q65 91 62.5 138Q60 185 69 234L151 678H242L156 213Q151 187 151.5 156Q152 125 173 99Q190 78 217.5 68Q245 58 294 58Z" glyph-name="Umacronbelow" horiz-adv-x="666" unicode="&#57643;" /><glyph d="M294 58Q331 58 370 67.5Q409 77 439 107Q465 132 475 160.5Q485 189 490 213L576 678H667L583 224Q575 179 559.5 138.5Q544 98 505 59Q467 21 421.5 6.5Q376 -8 325 -11Q313 -19 300 -32Q288 -44 280 -58.5Q272 -73 272 -89Q272 -101 280 -109Q289 -118 310 -118Q324 -118 340 -116Q356 -114 374 -109L364 -164Q348 -170 326 -172Q304 -174 287 -174Q259 -174 240 -167Q221 -160 210 -149Q193 -132 193 -106Q193 -84 203 -65.5Q213 -47 230 -30Q240 -20 252 -11Q193 -8 155.5 8.5Q118 25 95 54Q65 91 62.5 138Q60 185 69 234L151 678H242L156 213Q151 187 151.5 156Q152 125 173 99Q190 78 217.5 68Q245 58 294 58Z" glyph-name="Uogonek" horiz-adv-x="666" unicode="&#370;" /><glyph d="M425 775Q447 775 458 786Q469 797 469 817Q469 827 464 832Q456 840 437 840Q415 840 404 829Q399 824 396 815.5Q393 807 393 798Q393 788 398 783Q406 775 425 775ZM417 735Q374 735 353 756Q339 770 339 793Q339 810 345 827.5Q351 845 363 857Q377 871 397 876Q417 881 444 881Q488 881 509 860Q523 846 523 823Q523 806 517 788.5Q511 771 499 759Q485 745 464.5 740Q444 735 417 735ZM294 58Q331 58 370 67.5Q409 77 439 107Q465 132 475 160.5Q485 189 490 213L576 678H667L583 224Q575 179 559.5 138.5Q544 98 505 59Q482 36 456 22Q430 8 401.5 0.5Q373 -7 343 -9.5Q313 -12 281 -12Q209 -12 165 5Q121 22 95 54Q65 91 62.5 138Q60 185 69 234L151 678H242L156 213Q151 187 151.5 156Q152 125 173 99Q190 78 217.5 68Q245 58 294 58Z" glyph-name="Uring" horiz-adv-x="666" unicode="&#366;" /><glyph d="M508 824Q530 824 557 835Q584 846 607 860L595 794Q586 788 574.5 782Q563 776 549.5 771Q536 766 522.5 762.5Q509 759 497 759Q478 759 459.5 764Q441 769 423.5 775.5Q406 782 388.5 787Q371 792 353 792Q331 792 304 781Q277 770 254 756L267 822Q284 833 312 845.5Q340 858 364 858Q383 858 401 852.5Q419 847 436.5 841Q454 835 471.5 829.5Q489 824 508 824ZM294 58Q331 58 370 67.5Q409 77 439 107Q465 132 475 160.5Q485 189 490 213L576 678H667L583 224Q575 179 559.5 138.5Q544 98 505 59Q482 36 456 22Q430 8 401.5 0.5Q373 -7 343 -9.5Q313 -12 281 -12Q209 -12 165 5Q121 22 95 54Q65 91 62.5 138Q60 185 69 234L151 678H242L156 213Q151 187 151.5 156Q152 125 173 99Q190 78 217.5 68Q245 58 294 58Z" glyph-name="Utilde" horiz-adv-x="666" unicode="&#360;" /><glyph d="M238 286Q246 232 253 179Q260 126 264 90H268Q285 126 312.5 179.5Q340 233 368 286L572 678H669L310 0H196L87 678H178Z" glyph-name="V" horiz-adv-x="600" unicode="V" /><glyph d="M503 451Q492 430 477.5 402.5Q463 375 447 345Q431 315 415 286Q399 257 387 234L261 0H160L91 678H180L208 373Q214 306 219.5 237.5Q225 169 230 101H234Q268 167 303.5 234.5Q339 302 374 367L481 568L461 678H548L596 388Q608 318 619.5 246Q631 174 642 103H646Q678 175 710.5 247Q743 319 779 399L908 678H1001L682 0H581L542 234Q538 256 533.5 285.5Q529 315 524 345Q519 375 514 403Q509 431 506 451Z" glyph-name="W" horiz-adv-x="938" unicode="W" /><glyph d="M552 734H471L600 846H713ZM503 451Q492 430 477.5 402.5Q463 375 447 345Q431 315 415 286Q399 257 387 234L261 0H160L91 678H180L208 373Q214 306 219.5 237.5Q225 169 230 101H234Q268 167 303.5 234.5Q339 302 374 367L481 568L461 678H548L596 388Q608 318 619.5 246Q631 174 642 103H646Q678 175 710.5 247Q743 319 779 399L908 678H1001L682 0H581L542 234Q538 256 533.5 285.5Q529 315 524 345Q519 375 514 403Q509 431 506 451Z" glyph-name="Wacute" horiz-adv-x="938" unicode="&#7810;" /><glyph d="M701 734H625L570 804L489 734H403L535 850H614ZM503 451Q492 430 477.5 402.5Q463 375 447 345Q431 315 415 286Q399 257 387 234L261 0H160L91 678H180L208 373Q214 306 219.5 237.5Q225 169 230 101H234Q268 167 303.5 234.5Q339 302 374 367L481 568L461 678H548L596 388Q608 318 619.5 246Q631 174 642 103H646Q678 175 710.5 247Q743 319 779 399L908 678H1001L682 0H581L542 234Q538 256 533.5 285.5Q529 315 524 345Q519 375 514 403Q509 431 506 451Z" glyph-name="Wcircumflex" horiz-adv-x="938" unicode="&#372;" /><glyph d="M696 755H607L623 841H712ZM506 755H417L433 841H522ZM503 451Q492 430 477.5 402.5Q463 375 447 345Q431 315 415 286Q399 257 387 234L261 0H160L91 678H180L208 373Q214 306 219.5 237.5Q225 169 230 101H234Q268 167 303.5 234.5Q339 302 374 367L481 568L461 678H548L596 388Q608 318 619.5 246Q631 174 642 103H646Q678 175 710.5 247Q743 319 779 399L908 678H1001L682 0H581L542 234Q538 256 533.5 285.5Q529 315 524 345Q519 375 514 403Q509 431 506 451Z" glyph-name="Wdieresis" horiz-adv-x="938" unicode="&#7812;" /><glyph d="M352 846H459L546 734H471ZM503 451Q492 430 477.5 402.5Q463 375 447 345Q431 315 415 286Q399 257 387 234L261 0H160L91 678H180L208 373Q214 306 219.5 237.5Q225 169 230 101H234Q268 167 303.5 234.5Q339 302 374 367L481 568L461 678H548L596 388Q608 318 619.5 246Q631 174 642 103H646Q678 175 710.5 247Q743 319 779 399L908 678H1001L682 0H581L542 234Q538 256 533.5 285.5Q529 315 524 345Q519 375 514 403Q509 431 506 451Z" glyph-name="Wgrave" horiz-adv-x="938" unicode="&#7808;" /><glyph d="M68 0H-38L250 348L94 678H190L311 420L523 678H629L350 340L511 0H415L288 268Z" glyph-name="X" horiz-adv-x="567" unicode="X" /><glyph d="M298 344H299L548 678H649L334 264L286 0H195L243 263L82 678H175Z" glyph-name="Y" horiz-adv-x="575" unicode="Y" /><glyph d="M402 734H321L450 846H563ZM298 344H299L548 678H649L334 264L286 0H195L243 263L82 678H175Z" glyph-name="Yacute" horiz-adv-x="575" unicode="&#221;" /><glyph d="M522 734H446L391 804L310 734H224L356 850H435ZM298 344H299L548 678H649L334 264L286 0H195L243 263L82 678H175Z" glyph-name="Ycircumflex" horiz-adv-x="575" unicode="&#374;" /><glyph d="M516 755H427L443 841H532ZM326 755H237L253 841H342ZM298 344H299L548 678H649L334 264L286 0H195L243 263L82 678H175Z" glyph-name="Ydieresis" horiz-adv-x="575" unicode="&#376;" /><glyph d="M221 846H328L415 734H340ZM298 344H299L548 678H649L334 264L286 0H195L243 263L82 678H175Z" glyph-name="Ygrave" horiz-adv-x="575" unicode="&#7922;" /><glyph d="M552 767H221L233 835H564ZM298 344H299L548 678H649L334 264L286 0H195L243 263L82 678H175Z" glyph-name="Ymacron" horiz-adv-x="575" unicode="&#562;" /><glyph d="M147 333 423 605V607H98L111 678H549L535 603L268 343Q321 338 363.5 320Q406 302 435 273Q456 252 467.5 222.5Q479 193 479 154Q479 100 460 48.5Q441 -3 400 -44Q375 -69 345 -85.5Q315 -102 282 -112Q249 -122 214 -126Q179 -130 145 -130Q121 -130 92.5 -128Q64 -126 36.5 -122.5Q9 -119 -14.5 -113.5Q-38 -108 -53 -101L-39 -19Q-15 -28 13 -34Q41 -40 69 -43Q97 -46 121 -47.5Q145 -49 162 -49Q220 -49 262 -32.5Q304 -16 330 10Q354 34 367 68Q380 102 380 140Q380 188 354 214Q331 237 292.5 247Q254 257 197 258Q183 258 168 257.5Q153 257 139 255Z" glyph-name="Yogh" horiz-adv-x="554" unicode="&#439;" /><glyph d="M230 846H306L361 776L442 846H528L396 730H317ZM147 333 423 605V607H98L111 678H549L535 603L268 343Q321 338 363.5 320Q406 302 435 273Q456 252 467.5 222.5Q479 193 479 154Q479 100 460 48.5Q441 -3 400 -44Q375 -69 345 -85.5Q315 -102 282 -112Q249 -122 214 -126Q179 -130 145 -130Q121 -130 92.5 -128Q64 -126 36.5 -122.5Q9 -119 -14.5 -113.5Q-38 -108 -53 -101L-39 -19Q-15 -28 13 -34Q41 -40 69 -43Q97 -46 121 -47.5Q145 -49 162 -49Q220 -49 262 -32.5Q304 -16 330 10Q354 34 367 68Q380 102 380 140Q380 188 354 214Q331 237 292.5 247Q254 257 197 258Q183 258 168 257.5Q153 257 139 255Z" glyph-name="Yoghcaron" horiz-adv-x="549" unicode="&#59526;" /><glyph d="M471 830Q493 830 520 841Q547 852 570 866L558 800Q549 794 537.5 788Q526 782 512.5 777Q499 772 485.5 768.5Q472 765 460 765Q441 765 422.5 770Q404 775 386.5 781.5Q369 788 351.5 793Q334 798 316 798Q294 798 267 787Q240 776 217 762L230 828Q247 839 275 851.5Q303 864 327 864Q346 864 364 858.5Q382 853 399.5 847Q417 841 434.5 835.5Q452 830 471 830ZM298 344H299L548 678H649L334 264L286 0H195L243 263L82 678H175Z" glyph-name="Ytilde" horiz-adv-x="575" unicode="&#7928;" /><glyph d="M560 611 118 72V71H461L448 0H-6L6 66L449 606V607H121L134 678H572Z" glyph-name="Z" horiz-adv-x="536" unicode="Z" /><glyph d="M378 734H297L426 846H539ZM560 611 118 72V71H461L448 0H-6L6 66L449 606V607H121L134 678H572Z" glyph-name="Zacute" horiz-adv-x="536" unicode="&#377;" /><glyph d="M233 846H309L364 776L445 846H531L399 730H320ZM560 611 118 72V71H461L448 0H-6L6 66L449 606V607H121L134 678H572Z" glyph-name="Zcaron" horiz-adv-x="536" unicode="&#381;" /><glyph d="M411 755H319L336 844H428ZM560 611 118 72V71H461L448 0H-6L6 66L449 606V607H121L134 678H572Z" glyph-name="Zdotaccent" horiz-adv-x="536" unicode="&#379;" /><glyph d="M366 235Q337 238 311 239Q285 240 277 240Q259 240 240 239.5Q221 239 203 235.5Q185 232 168 224Q151 216 137 202Q123 188 116.5 168Q110 148 110 127Q110 99 126 83Q138 72 158 67Q178 62 202 62Q254 62 289 84Q324 106 348 134ZM390 364Q395 393 392.5 410.5Q390 428 377 437Q364 446 340 449Q316 452 278 452Q251 452 211 448.5Q171 445 120 434L133 504Q152 509 175 512.5Q198 516 221.5 518Q245 520 266.5 521Q288 522 303 522Q352 522 388 515Q424 508 445.5 490.5Q467 473 474 442.5Q481 412 472 365L407 0H350L345 53H344Q308 21 264.5 6Q221 -9 174 -9Q138 -9 107.5 0Q77 9 54 32Q39 47 31 69.5Q23 92 23 115Q23 152 35.5 187Q48 222 74 248Q93 267 117.5 278.5Q142 290 169 296Q196 302 225.5 303.5Q255 305 284 305Q292 305 320 303.5Q348 302 378 299Z" glyph-name="a" horiz-adv-x="530" unicode="a" /><glyph d="M448 413Q438 423 422 431Q408 438 386.5 443.5Q365 449 336 449Q294 449 262.5 438.5Q231 428 206 403Q187 384 173.5 357.5Q160 331 151 300.5Q142 270 137.5 237.5Q133 205 133 175Q133 143 141 122Q149 101 163 87Q190 61 246 61Q271 61 294 69.5Q317 78 336 91Q355 104 370.5 118.5Q386 133 398 145ZM493 510H548L455 0H396V60H395Q358 30 317.5 10.5Q277 -9 219 -9Q176 -9 143.5 4Q111 17 89 37Q44 79 44 167Q44 200 49.5 239Q55 278 67 316.5Q79 355 97.5 390.5Q116 426 142 452Q180 490 232.5 504.5Q285 519 341 519Q375 519 400 512.5Q425 506 442 498Q461 488 475 477H477Z" glyph-name="a.hist" horiz-adv-x="587" unicode="&#59153;" /><glyph d="M157 196H349L318 379Q314 400 310.5 425.5Q307 451 304 471H302Q293 451 282.5 429Q272 407 257 380ZM362 131H121L50 0H-41L264 541H362L468 0H386Z" glyph-name="a.small" horiz-adv-x="521" unicode="&#63329;" /><glyph d="M258 426Q243 428 230 428Q217 428 212 428Q193 428 171.5 425Q150 422 134 406Q126 398 121.5 386.5Q117 375 117 361Q117 346 125 338Q132 331 142.5 329Q153 327 167 327Q187 327 208 333.5Q229 340 246 361ZM229 612Q262 612 285.5 607.5Q309 603 323 591.5Q337 580 342 560Q347 540 341 509L298 279H247V308H246Q230 293 203 283Q176 273 148 273Q96 273 68 299Q49 320 49 353Q49 375 57 398.5Q65 422 82 439Q108 465 143 471.5Q178 478 218 478Q223 478 236.5 478Q250 478 268 476L274 509Q280 542 267 550Q254 558 213 558Q196 558 170 555.5Q144 553 107 545L116 598Q144 605 177 608.5Q210 612 229 612Z" glyph-name="a.superior" horiz-adv-x="346" unicode="&#58209;" /><glyph d="M347 566H266L395 678H508ZM366 235Q337 238 311 239Q285 240 277 240Q259 240 240 239.5Q221 239 203 235.5Q185 232 168 224Q151 216 137 202Q123 188 116.5 168Q110 148 110 127Q110 99 126 83Q138 72 158 67Q178 62 202 62Q254 62 289 84Q324 106 348 134ZM390 364Q395 393 392.5 410.5Q390 428 377 437Q364 446 340 449Q316 452 278 452Q251 452 211 448.5Q171 445 120 434L133 504Q152 509 175 512.5Q198 516 221.5 518Q245 520 266.5 521Q288 522 303 522Q352 522 388 515Q424 508 445.5 490.5Q467 473 474 442.5Q481 412 472 365L407 0H350L345 53H344Q308 21 264.5 6Q221 -9 174 -9Q138 -9 107.5 0Q77 9 54 32Q39 47 31 69.5Q23 92 23 115Q23 152 35.5 187Q48 222 74 248Q93 267 117.5 278.5Q142 290 169 296Q196 302 225.5 303.5Q255 305 284 305Q292 305 320 303.5Q348 302 378 299Z" glyph-name="aacute" horiz-adv-x="530" unicode="&#225;" /><glyph d="M378 566H297L426 678H539ZM448 413Q438 423 422 431Q408 438 386.5 443.5Q365 449 336 449Q294 449 262.5 438.5Q231 428 206 403Q187 384 173.5 357.5Q160 331 151 300.5Q142 270 137.5 237.5Q133 205 133 175Q133 143 141 122Q149 101 163 87Q190 61 246 61Q271 61 294 69.5Q317 78 336 91Q355 104 370.5 118.5Q386 133 398 145ZM493 510H548L455 0H396V60H395Q358 30 317.5 10.5Q277 -9 219 -9Q176 -9 143.5 4Q111 17 89 37Q44 79 44 167Q44 200 49.5 239Q55 278 67 316.5Q79 355 97.5 390.5Q116 426 142 452Q180 490 232.5 504.5Q285 519 341 519Q375 519 400 512.5Q425 506 442 498Q461 488 475 477H477Z" glyph-name="aacute.hist" horiz-adv-x="587" unicode="&#59154;" /><glyph d="M358 598H277L406 710H519ZM157 196H349L318 379Q314 400 310.5 425.5Q307 451 304 471H302Q293 451 282.5 429Q272 407 257 380ZM362 131H121L50 0H-41L264 541H362L468 0H386Z" glyph-name="aacute.small" horiz-adv-x="521" unicode="&#63457;" /><glyph d="M336 618Q359 618 382.5 623.5Q406 629 423 646Q437 660 444 678H517Q503 637 478 612Q451 585 412.5 572.5Q374 560 328 560Q249 560 212 597Q197 612 188.5 631Q180 650 181 678H250Q250 664 254 655Q258 646 266 638Q278 626 297 622Q316 618 336 618ZM366 235Q337 238 311 239Q285 240 277 240Q259 240 240 239.5Q221 239 203 235.5Q185 232 168 224Q151 216 137 202Q123 188 116.5 168Q110 148 110 127Q110 99 126 83Q138 72 158 67Q178 62 202 62Q254 62 289 84Q324 106 348 134ZM390 364Q395 393 392.5 410.5Q390 428 377 437Q364 446 340 449Q316 452 278 452Q251 452 211 448.5Q171 445 120 434L133 504Q152 509 175 512.5Q198 516 221.5 518Q245 520 266.5 521Q288 522 303 522Q352 522 388 515Q424 508 445.5 490.5Q467 473 474 442.5Q481 412 472 365L407 0H350L345 53H344Q308 21 264.5 6Q221 -9 174 -9Q138 -9 107.5 0Q77 9 54 32Q39 47 31 69.5Q23 92 23 115Q23 152 35.5 187Q48 222 74 248Q93 267 117.5 278.5Q142 290 169 296Q196 302 225.5 303.5Q255 305 284 305Q292 305 320 303.5Q348 302 378 299Z" glyph-name="abreve" horiz-adv-x="530" unicode="&#259;" /><glyph d="M354 618Q377 618 400.5 623.5Q424 629 441 646Q455 660 462 678H535Q521 637 496 612Q469 585 430.5 572.5Q392 560 346 560Q267 560 230 597Q215 612 206.5 631Q198 650 199 678H268Q268 664 272 655Q276 646 284 638Q296 626 315 622Q334 618 354 618ZM448 413Q438 423 422 431Q408 438 386.5 443.5Q365 449 336 449Q294 449 262.5 438.5Q231 428 206 403Q187 384 173.5 357.5Q160 331 151 300.5Q142 270 137.5 237.5Q133 205 133 175Q133 143 141 122Q149 101 163 87Q190 61 246 61Q271 61 294 69.5Q317 78 336 91Q355 104 370.5 118.5Q386 133 398 145ZM493 510H548L455 0H396V60H395Q358 30 317.5 10.5Q277 -9 219 -9Q176 -9 143.5 4Q111 17 89 37Q44 79 44 167Q44 200 49.5 239Q55 278 67 316.5Q79 355 97.5 390.5Q116 426 142 452Q180 490 232.5 504.5Q285 519 341 519Q375 519 400 512.5Q425 506 442 498Q461 488 475 477H477Z" glyph-name="abreve.hist" horiz-adv-x="587" unicode="&#59155;" /><glyph d="M323 650Q346 650 369.5 655.5Q393 661 410 678Q424 692 431 710H504Q490 669 465 644Q438 617 399.5 604.5Q361 592 315 592Q236 592 199 629Q184 644 175.5 663Q167 682 168 710H237Q237 696 241 687Q245 678 253 670Q265 658 284 654Q303 650 323 650ZM157 196H349L318 379Q314 400 310.5 425.5Q307 451 304 471H302Q293 451 282.5 429Q272 407 257 380ZM362 131H121L50 0H-41L264 541H362L468 0H386Z" glyph-name="abreve.small" horiz-adv-x="521" unicode="&#63040;" /><glyph d="M196 678H272L327 608L408 678H494L362 562H283ZM366 235Q337 238 311 239Q285 240 277 240Q259 240 240 239.5Q221 239 203 235.5Q185 232 168 224Q151 216 137 202Q123 188 116.5 168Q110 148 110 127Q110 99 126 83Q138 72 158 67Q178 62 202 62Q254 62 289 84Q324 106 348 134ZM390 364Q395 393 392.5 410.5Q390 428 377 437Q364 446 340 449Q316 452 278 452Q251 452 211 448.5Q171 445 120 434L133 504Q152 509 175 512.5Q198 516 221.5 518Q245 520 266.5 521Q288 522 303 522Q352 522 388 515Q424 508 445.5 490.5Q467 473 474 442.5Q481 412 472 365L407 0H350L345 53H344Q308 21 264.5 6Q221 -9 174 -9Q138 -9 107.5 0Q77 9 54 32Q39 47 31 69.5Q23 92 23 115Q23 152 35.5 187Q48 222 74 248Q93 267 117.5 278.5Q142 290 169 296Q196 302 225.5 303.5Q255 305 284 305Q292 305 320 303.5Q348 302 378 299Z" glyph-name="acaron" horiz-adv-x="530" unicode="&#462;" /><glyph d="M225 678H301L356 608L437 678H523L391 562H312ZM448 413Q438 423 422 431Q408 438 386.5 443.5Q365 449 336 449Q294 449 262.5 438.5Q231 428 206 403Q187 384 173.5 357.5Q160 331 151 300.5Q142 270 137.5 237.5Q133 205 133 175Q133 143 141 122Q149 101 163 87Q190 61 246 61Q271 61 294 69.5Q317 78 336 91Q355 104 370.5 118.5Q386 133 398 145ZM493 510H548L455 0H396V60H395Q358 30 317.5 10.5Q277 -9 219 -9Q176 -9 143.5 4Q111 17 89 37Q44 79 44 167Q44 200 49.5 239Q55 278 67 316.5Q79 355 97.5 390.5Q116 426 142 452Q180 490 232.5 504.5Q285 519 341 519Q375 519 400 512.5Q425 506 442 498Q461 488 475 477H477Z" glyph-name="acaron.hist" horiz-adv-x="587" unicode="&#59156;" /><glyph d="M190 710H266L321 640L402 710H488L356 594H277ZM157 196H349L318 379Q314 400 310.5 425.5Q307 451 304 471H302Q293 451 282.5 429Q272 407 257 380ZM362 131H121L50 0H-41L264 541H362L468 0H386Z" glyph-name="acaron.small" horiz-adv-x="521" unicode="&#59157;" /><glyph d="M475 566H399L344 636L263 566H177L309 682H388ZM366 235Q337 238 311 239Q285 240 277 240Q259 240 240 239.5Q221 239 203 235.5Q185 232 168 224Q151 216 137 202Q123 188 116.5 168Q110 148 110 127Q110 99 126 83Q138 72 158 67Q178 62 202 62Q254 62 289 84Q324 106 348 134ZM390 364Q395 393 392.5 410.5Q390 428 377 437Q364 446 340 449Q316 452 278 452Q251 452 211 448.5Q171 445 120 434L133 504Q152 509 175 512.5Q198 516 221.5 518Q245 520 266.5 521Q288 522 303 522Q352 522 388 515Q424 508 445.5 490.5Q467 473 474 442.5Q481 412 472 365L407 0H350L345 53H344Q308 21 264.5 6Q221 -9 174 -9Q138 -9 107.5 0Q77 9 54 32Q39 47 31 69.5Q23 92 23 115Q23 152 35.5 187Q48 222 74 248Q93 267 117.5 278.5Q142 290 169 296Q196 302 225.5 303.5Q255 305 284 305Q292 305 320 303.5Q348 302 378 299Z" glyph-name="acircumflex" horiz-adv-x="530" unicode="&#226;" /><glyph d="M495 566H419L364 636L283 566H197L329 682H408ZM448 413Q438 423 422 431Q408 438 386.5 443.5Q365 449 336 449Q294 449 262.5 438.5Q231 428 206 403Q187 384 173.5 357.5Q160 331 151 300.5Q142 270 137.5 237.5Q133 205 133 175Q133 143 141 122Q149 101 163 87Q190 61 246 61Q271 61 294 69.5Q317 78 336 91Q355 104 370.5 118.5Q386 133 398 145ZM493 510H548L455 0H396V60H395Q358 30 317.5 10.5Q277 -9 219 -9Q176 -9 143.5 4Q111 17 89 37Q44 79 44 167Q44 200 49.5 239Q55 278 67 316.5Q79 355 97.5 390.5Q116 426 142 452Q180 490 232.5 504.5Q285 519 341 519Q375 519 400 512.5Q425 506 442 498Q461 488 475 477H477Z" glyph-name="acircumflex.hist" horiz-adv-x="587" unicode="&#59158;" /><glyph d="M466 595H390L335 665L254 595H168L300 711H379ZM157 196H349L318 379Q314 400 310.5 425.5Q307 451 304 471H302Q293 451 282.5 429Q272 407 257 380ZM362 131H121L50 0H-41L264 541H362L468 0H386Z" glyph-name="acircumflex.small" horiz-adv-x="521" unicode="&#63458;" /><glyph d="M376 566H295L424 678H537Z" glyph-name="acute" horiz-adv-x="600" unicode="&#180;" /><glyph d="M387 734H306L435 846H548Z" glyph-name="acute.cap" horiz-adv-x="600" unicode="&#58402;" /><glyph d="M355 598H274L403 710H516Z" glyph-name="acute.small" horiz-adv-x="600" unicode="&#63412;" /><glyph d="M464 587H375L391 673H480ZM274 587H185L201 673H290ZM366 235Q337 238 311 239Q285 240 277 240Q259 240 240 239.5Q221 239 203 235.5Q185 232 168 224Q151 216 137 202Q123 188 116.5 168Q110 148 110 127Q110 99 126 83Q138 72 158 67Q178 62 202 62Q254 62 289 84Q324 106 348 134ZM390 364Q395 393 392.5 410.5Q390 428 377 437Q364 446 340 449Q316 452 278 452Q251 452 211 448.5Q171 445 120 434L133 504Q152 509 175 512.5Q198 516 221.5 518Q245 520 266.5 521Q288 522 303 522Q352 522 388 515Q424 508 445.5 490.5Q467 473 474 442.5Q481 412 472 365L407 0H350L345 53H344Q308 21 264.5 6Q221 -9 174 -9Q138 -9 107.5 0Q77 9 54 32Q39 47 31 69.5Q23 92 23 115Q23 152 35.5 187Q48 222 74 248Q93 267 117.5 278.5Q142 290 169 296Q196 302 225.5 303.5Q255 305 284 305Q292 305 320 303.5Q348 302 378 299Z" glyph-name="adieresis" horiz-adv-x="530" unicode="&#228;" /><glyph d="M490 587H401L417 673H506ZM300 587H211L227 673H316ZM448 413Q438 423 422 431Q408 438 386.5 443.5Q365 449 336 449Q294 449 262.5 438.5Q231 428 206 403Q187 384 173.5 357.5Q160 331 151 300.5Q142 270 137.5 237.5Q133 205 133 175Q133 143 141 122Q149 101 163 87Q190 61 246 61Q271 61 294 69.5Q317 78 336 91Q355 104 370.5 118.5Q386 133 398 145ZM493 510H548L455 0H396V60H395Q358 30 317.5 10.5Q277 -9 219 -9Q176 -9 143.5 4Q111 17 89 37Q44 79 44 167Q44 200 49.5 239Q55 278 67 316.5Q79 355 97.5 390.5Q116 426 142 452Q180 490 232.5 504.5Q285 519 341 519Q375 519 400 512.5Q425 506 442 498Q461 488 475 477H477Z" glyph-name="adieresis.hist" horiz-adv-x="587" unicode="&#59159;" /><glyph d="M461 619H372L388 705H477ZM271 619H182L198 705H287ZM157 196H349L318 379Q314 400 310.5 425.5Q307 451 304 471H302Q293 451 282.5 429Q272 407 257 380ZM362 131H121L50 0H-41L264 541H362L468 0H386Z" glyph-name="adieresis.small" horiz-adv-x="521" unicode="&#63460;" /><glyph d="M517 737H186L198 805H529ZM464 587H375L391 673H480ZM274 587H185L201 673H290ZM366 235Q337 238 311 239Q285 240 277 240Q259 240 240 239.5Q221 239 203 235.5Q185 232 168 224Q151 216 137 202Q123 188 116.5 168Q110 148 110 127Q110 99 126 83Q138 72 158 67Q178 62 202 62Q254 62 289 84Q324 106 348 134ZM390 364Q395 393 392.5 410.5Q390 428 377 437Q364 446 340 449Q316 452 278 452Q251 452 211 448.5Q171 445 120 434L133 504Q152 509 175 512.5Q198 516 221.5 518Q245 520 266.5 521Q288 522 303 522Q352 522 388 515Q424 508 445.5 490.5Q467 473 474 442.5Q481 412 472 365L407 0H350L345 53H344Q308 21 264.5 6Q221 -9 174 -9Q138 -9 107.5 0Q77 9 54 32Q39 47 31 69.5Q23 92 23 115Q23 152 35.5 187Q48 222 74 248Q93 267 117.5 278.5Q142 290 169 296Q196 302 225.5 303.5Q255 305 284 305Q292 305 320 303.5Q348 302 378 299Z" glyph-name="adieresismacron" horiz-adv-x="530" unicode="&#479;" /><glyph d="M492 587H403L419 673H508ZM302 587H213L229 673H318ZM546 737H215L227 805H558ZM448 413Q438 423 422 431Q408 438 386.5 443.5Q365 449 336 449Q294 449 262.5 438.5Q231 428 206 403Q187 384 173.5 357.5Q160 331 151 300.5Q142 270 137.5 237.5Q133 205 133 175Q133 143 141 122Q149 101 163 87Q190 61 246 61Q271 61 294 69.5Q317 78 336 91Q355 104 370.5 118.5Q386 133 398 145ZM493 510H548L455 0H396V60H395Q358 30 317.5 10.5Q277 -9 219 -9Q176 -9 143.5 4Q111 17 89 37Q44 79 44 167Q44 200 49.5 239Q55 278 67 316.5Q79 355 97.5 390.5Q116 426 142 452Q180 490 232.5 504.5Q285 519 341 519Q375 519 400 512.5Q425 506 442 498Q461 488 475 477H477Z" glyph-name="adieresismacron.hist" horiz-adv-x="587" unicode="&#59160;" /><glyph d="M521 768H190L202 836H533ZM463 618H374L390 704H479ZM273 618H184L200 704H289ZM157 196H349L318 379Q314 400 310.5 425.5Q307 451 304 471H302Q293 451 282.5 429Q272 407 257 380ZM362 131H121L50 0H-41L264 541H362L468 0H386Z" glyph-name="adieresismacron.small" horiz-adv-x="521" unicode="&#59161;" /><glyph d="M369 587H277L294 676H386ZM366 235Q337 238 311 239Q285 240 277 240Q259 240 240 239.5Q221 239 203 235.5Q185 232 168 224Q151 216 137 202Q123 188 116.5 168Q110 148 110 127Q110 99 126 83Q138 72 158 67Q178 62 202 62Q254 62 289 84Q324 106 348 134ZM390 364Q395 393 392.5 410.5Q390 428 377 437Q364 446 340 449Q316 452 278 452Q251 452 211 448.5Q171 445 120 434L133 504Q152 509 175 512.5Q198 516 221.5 518Q245 520 266.5 521Q288 522 303 522Q352 522 388 515Q424 508 445.5 490.5Q467 473 474 442.5Q481 412 472 365L407 0H350L345 53H344Q308 21 264.5 6Q221 -9 174 -9Q138 -9 107.5 0Q77 9 54 32Q39 47 31 69.5Q23 92 23 115Q23 152 35.5 187Q48 222 74 248Q93 267 117.5 278.5Q142 290 169 296Q196 302 225.5 303.5Q255 305 284 305Q292 305 320 303.5Q348 302 378 299Z" glyph-name="adotabove" horiz-adv-x="530" unicode="&#551;" /><glyph d="M392 587H300L317 676H409ZM448 413Q438 423 422 431Q408 438 386.5 443.5Q365 449 336 449Q294 449 262.5 438.5Q231 428 206 403Q187 384 173.5 357.5Q160 331 151 300.5Q142 270 137.5 237.5Q133 205 133 175Q133 143 141 122Q149 101 163 87Q190 61 246 61Q271 61 294 69.5Q317 78 336 91Q355 104 370.5 118.5Q386 133 398 145ZM493 510H548L455 0H396V60H395Q358 30 317.5 10.5Q277 -9 219 -9Q176 -9 143.5 4Q111 17 89 37Q44 79 44 167Q44 200 49.5 239Q55 278 67 316.5Q79 355 97.5 390.5Q116 426 142 452Q180 490 232.5 504.5Q285 519 341 519Q375 519 400 512.5Q425 506 442 498Q461 488 475 477H477Z" glyph-name="adotabove.hist" horiz-adv-x="587" unicode="&#59168;" /><glyph d="M367 619H275L292 708H384ZM157 196H349L318 379Q314 400 310.5 425.5Q307 451 304 471H302Q293 451 282.5 429Q272 407 257 380ZM362 131H121L50 0H-41L264 541H362L468 0H386Z" glyph-name="adotabove.small" horiz-adv-x="521" unicode="&#59169;" /><glyph d="M118 678H211L298 566H237ZM258 678H351L438 566H377ZM366 235Q337 238 311 239Q285 240 277 240Q259 240 240 239.5Q221 239 203 235.5Q185 232 168 224Q151 216 137 202Q123 188 116.5 168Q110 148 110 127Q110 99 126 83Q138 72 158 67Q178 62 202 62Q254 62 289 84Q324 106 348 134ZM390 364Q395 393 392.5 410.5Q390 428 377 437Q364 446 340 449Q316 452 278 452Q251 452 211 448.5Q171 445 120 434L133 504Q152 509 175 512.5Q198 516 221.5 518Q245 520 266.5 521Q288 522 303 522Q352 522 388 515Q424 508 445.5 490.5Q467 473 474 442.5Q481 412 472 365L407 0H350L345 53H344Q308 21 264.5 6Q221 -9 174 -9Q138 -9 107.5 0Q77 9 54 32Q39 47 31 69.5Q23 92 23 115Q23 152 35.5 187Q48 222 74 248Q93 267 117.5 278.5Q142 290 169 296Q196 302 225.5 303.5Q255 305 284 305Q292 305 320 303.5Q348 302 378 299Z" glyph-name="adoublegrave" horiz-adv-x="530" unicode="&#59170;" /><glyph d="M146 678H239L326 566H265ZM286 678H379L466 566H405ZM448 413Q438 423 422 431Q408 438 386.5 443.5Q365 449 336 449Q294 449 262.5 438.5Q231 428 206 403Q187 384 173.5 357.5Q160 331 151 300.5Q142 270 137.5 237.5Q133 205 133 175Q133 143 141 122Q149 101 163 87Q190 61 246 61Q271 61 294 69.5Q317 78 336 91Q355 104 370.5 118.5Q386 133 398 145ZM493 510H548L455 0H396V60H395Q358 30 317.5 10.5Q277 -9 219 -9Q176 -9 143.5 4Q111 17 89 37Q44 79 44 167Q44 200 49.5 239Q55 278 67 316.5Q79 355 97.5 390.5Q116 426 142 452Q180 490 232.5 504.5Q285 519 341 519Q375 519 400 512.5Q425 506 442 498Q461 488 475 477H477Z" glyph-name="adoublegrave.hist" horiz-adv-x="587" unicode="&#59171;" /><glyph d="M107 710H200L287 598H226ZM247 710H340L427 598H366ZM157 196H349L318 379Q314 400 310.5 425.5Q307 451 304 471H302Q293 451 282.5 429Q272 407 257 380ZM362 131H121L50 0H-41L264 541H362L468 0H386Z" glyph-name="adoublegrave.small" horiz-adv-x="521" unicode="&#59172;" /><glyph d="M638 452Q612 452 582.5 444Q553 436 530 413Q513 396 500 369Q487 342 476 305H733Q737 320 739.5 336.5Q742 353 742 369Q742 384 738 400.5Q734 417 723 428Q710 441 688 446.5Q666 452 638 452ZM204 62Q249 62 293 84.5Q337 107 368 140Q367 147 367 154Q367 161 367 169Q367 185 368 201Q369 217 371 234Q356 236 341.5 237Q327 238 314 239Q301 240 292 240Q283 240 279 240Q261 240 242 239.5Q223 239 205 235.5Q187 232 170 224Q153 216 139 202Q125 188 118.5 168Q112 148 112 127Q112 99 128 83Q140 72 160 67Q180 62 204 62ZM462 238Q456 202 456 173Q456 150 461.5 127.5Q467 105 484 88Q501 71 527.5 64.5Q554 58 595 58Q627 58 668 62.5Q709 67 751 82L738 12Q698 -2 650.5 -7Q603 -12 568 -12Q513 -12 473.5 3Q434 18 410 42Q398 53 388 71Q367 49 339.5 33.5Q312 18 282.5 8.5Q253 -1 225 -5Q197 -9 176 -9Q140 -9 109.5 0Q79 9 56 32Q41 47 33 69.5Q25 92 25 115Q25 152 37.5 187Q50 222 76 248Q95 267 119.5 278.5Q144 290 171 296Q198 302 227.5 303.5Q257 305 286 305Q294 305 322 303Q350 301 380 299L392 364Q397 393 394.5 410.5Q392 428 379 437Q366 446 342 449Q318 452 280 452Q253 452 213 448.5Q173 445 122 434L135 504Q154 509 177 512.5Q200 516 223.5 518Q247 520 268.5 521Q290 522 305 522Q371 522 412.5 509Q454 496 470 461Q508 497 554.5 509.5Q601 522 652 522Q700 522 733 508Q766 494 787 473Q805 455 813.5 428.5Q822 402 822 369Q822 335 815 303Q808 271 797 238Z" glyph-name="ae" horiz-adv-x="857" unicode="&#230;" /><glyph d="M193 196H392Q398 230 404 260.5Q410 291 415 321.5Q420 352 426 382.5Q432 413 438 447H436Q418 428 397 405.5Q376 383 354 360ZM709 0H356L380 131H131L1 0H-114L430 541H803L791 477H525L494 309H725L713 243H482L449 66H721Z" glyph-name="ae.small" horiz-adv-x="798" unicode="&#63462;" /><glyph d="M533 569H452L581 681H694ZM638 452Q612 452 582.5 444Q553 436 530 413Q513 396 500 369Q487 342 476 305H733Q737 320 739.5 336.5Q742 353 742 369Q742 384 738 400.5Q734 417 723 428Q710 441 688 446.5Q666 452 638 452ZM204 62Q249 62 293 84.5Q337 107 368 140Q367 147 367 154Q367 161 367 169Q367 185 368 201Q369 217 371 234Q356 236 341.5 237Q327 238 314 239Q301 240 292 240Q283 240 279 240Q261 240 242 239.5Q223 239 205 235.5Q187 232 170 224Q153 216 139 202Q125 188 118.5 168Q112 148 112 127Q112 99 128 83Q140 72 160 67Q180 62 204 62ZM462 238Q456 202 456 173Q456 150 461.5 127.5Q467 105 484 88Q501 71 527.5 64.5Q554 58 595 58Q627 58 668 62.5Q709 67 751 82L738 12Q698 -2 650.5 -7Q603 -12 568 -12Q513 -12 473.5 3Q434 18 410 42Q398 53 388 71Q367 49 339.5 33.5Q312 18 282.5 8.5Q253 -1 225 -5Q197 -9 176 -9Q140 -9 109.5 0Q79 9 56 32Q41 47 33 69.5Q25 92 25 115Q25 152 37.5 187Q50 222 76 248Q95 267 119.5 278.5Q144 290 171 296Q198 302 227.5 303.5Q257 305 286 305Q294 305 322 303Q350 301 380 299L392 364Q397 393 394.5 410.5Q392 428 379 437Q366 446 342 449Q318 452 280 452Q253 452 213 448.5Q173 445 122 434L135 504Q154 509 177 512.5Q200 516 223.5 518Q247 520 268.5 521Q290 522 305 522Q371 522 412.5 509Q454 496 470 461Q508 497 554.5 509.5Q601 522 652 522Q700 522 733 508Q766 494 787 473Q805 455 813.5 428.5Q822 402 822 369Q822 335 815 303Q808 271 797 238Z" glyph-name="aeacute" horiz-adv-x="857" unicode="&#509;" /><glyph d="M552 598H471L600 710H713ZM193 196H392Q398 230 404 260.5Q410 291 415 321.5Q420 352 426 382.5Q432 413 438 447H436Q418 428 397 405.5Q376 383 354 360ZM709 0H356L380 131H131L1 0H-114L430 541H803L791 477H525L494 309H725L713 243H482L449 66H721Z" glyph-name="aeacute.small" horiz-adv-x="798" unicode="&#63012;" /><glyph d="M670 599H339L351 667H682ZM638 452Q612 452 582.5 444Q553 436 530 413Q513 396 500 369Q487 342 476 305H733Q737 320 739.5 336.5Q742 353 742 369Q742 384 738 400.5Q734 417 723 428Q710 441 688 446.5Q666 452 638 452ZM204 62Q249 62 293 84.5Q337 107 368 140Q367 147 367 154Q367 161 367 169Q367 185 368 201Q369 217 371 234Q356 236 341.5 237Q327 238 314 239Q301 240 292 240Q283 240 279 240Q261 240 242 239.5Q223 239 205 235.5Q187 232 170 224Q153 216 139 202Q125 188 118.5 168Q112 148 112 127Q112 99 128 83Q140 72 160 67Q180 62 204 62ZM462 238Q456 202 456 173Q456 150 461.5 127.5Q467 105 484 88Q501 71 527.5 64.5Q554 58 595 58Q627 58 668 62.5Q709 67 751 82L738 12Q698 -2 650.5 -7Q603 -12 568 -12Q513 -12 473.5 3Q434 18 410 42Q398 53 388 71Q367 49 339.5 33.5Q312 18 282.5 8.5Q253 -1 225 -5Q197 -9 176 -9Q140 -9 109.5 0Q79 9 56 32Q41 47 33 69.5Q25 92 25 115Q25 152 37.5 187Q50 222 76 248Q95 267 119.5 278.5Q144 290 171 296Q198 302 227.5 303.5Q257 305 286 305Q294 305 322 303Q350 301 380 299L392 364Q397 393 394.5 410.5Q392 428 379 437Q366 446 342 449Q318 452 280 452Q253 452 213 448.5Q173 445 122 434L135 504Q154 509 177 512.5Q200 516 223.5 518Q247 520 268.5 521Q290 522 305 522Q371 522 412.5 509Q454 496 470 461Q508 497 554.5 509.5Q601 522 652 522Q700 522 733 508Q766 494 787 473Q805 455 813.5 428.5Q822 402 822 369Q822 335 815 303Q808 271 797 238Z" glyph-name="aemacron" horiz-adv-x="857" unicode="&#483;" /><glyph d="M676 631H345L357 699H688ZM193 196H392Q398 230 404 260.5Q410 291 415 321.5Q420 352 426 382.5Q432 413 438 447H436Q418 428 397 405.5Q376 383 354 360ZM709 0H356L380 131H131L1 0H-114L430 541H803L791 477H525L494 309H725L713 243H482L449 66H721Z" glyph-name="aemacron.small" horiz-adv-x="798" unicode="&#59173;" /><glyph d="M210 336Q231 360 251.5 392Q272 424 288.5 459.5Q305 495 315.5 531Q326 567 326 597Q326 605 322 614Q318 623 307 623Q295 623 283 611Q269 597 258 567.5Q247 538 237 484ZM57 224Q70 230 87 239.5Q104 249 116 258L159 488Q170 551 187.5 590.5Q205 630 228 653Q248 673 271 681.5Q294 690 319 690Q338 690 354 682Q370 674 380.5 660.5Q391 647 397 629.5Q403 612 403 593Q403 542 383.5 490.5Q364 439 333 391Q302 343 264.5 301Q227 259 190 226L171 125Q169 113 168.5 101.5Q168 90 171.5 81Q175 72 183.5 66.5Q192 61 207 61Q221 61 237.5 64Q254 67 265 71L252 0Q238 -4 220.5 -6Q203 -8 194 -8Q168 -8 146.5 -2.5Q125 3 110 16.5Q95 30 89 52.5Q83 75 89 108L101 173Q93 168 75 159.5Q57 151 43 146Z" glyph-name="afii61289" horiz-adv-x="394" unicode="&#8467;" /><glyph d="M186 678H293L380 566H305ZM366 235Q337 238 311 239Q285 240 277 240Q259 240 240 239.5Q221 239 203 235.5Q185 232 168 224Q151 216 137 202Q123 188 116.5 168Q110 148 110 127Q110 99 126 83Q138 72 158 67Q178 62 202 62Q254 62 289 84Q324 106 348 134ZM390 364Q395 393 392.5 410.5Q390 428 377 437Q364 446 340 449Q316 452 278 452Q251 452 211 448.5Q171 445 120 434L133 504Q152 509 175 512.5Q198 516 221.5 518Q245 520 266.5 521Q288 522 303 522Q352 522 388 515Q424 508 445.5 490.5Q467 473 474 442.5Q481 412 472 365L407 0H350L345 53H344Q308 21 264.5 6Q221 -9 174 -9Q138 -9 107.5 0Q77 9 54 32Q39 47 31 69.5Q23 92 23 115Q23 152 35.5 187Q48 222 74 248Q93 267 117.5 278.5Q142 290 169 296Q196 302 225.5 303.5Q255 305 284 305Q292 305 320 303.5Q348 302 378 299Z" glyph-name="agrave" horiz-adv-x="530" unicode="&#224;" /><glyph d="M192 678H299L386 566H311ZM448 413Q438 423 422 431Q408 438 386.5 443.5Q365 449 336 449Q294 449 262.5 438.5Q231 428 206 403Q187 384 173.5 357.5Q160 331 151 300.5Q142 270 137.5 237.5Q133 205 133 175Q133 143 141 122Q149 101 163 87Q190 61 246 61Q271 61 294 69.5Q317 78 336 91Q355 104 370.5 118.5Q386 133 398 145ZM493 510H548L455 0H396V60H395Q358 30 317.5 10.5Q277 -9 219 -9Q176 -9 143.5 4Q111 17 89 37Q44 79 44 167Q44 200 49.5 239Q55 278 67 316.5Q79 355 97.5 390.5Q116 426 142 452Q180 490 232.5 504.5Q285 519 341 519Q375 519 400 512.5Q425 506 442 498Q461 488 475 477H477Z" glyph-name="agrave.hist" horiz-adv-x="587" unicode="&#59174;" /><glyph d="M157 710H264L351 598H276ZM157 196H349L318 379Q314 400 310.5 425.5Q307 451 304 471H302Q293 451 282.5 429Q272 407 257 380ZM362 131H121L50 0H-41L264 541H362L468 0H386Z" glyph-name="agrave.small" horiz-adv-x="521" unicode="&#63456;" /><glyph d="M335 626Q312 626 288.5 620.5Q265 615 248 598Q234 584 227 566H154Q167 606 193 632Q220 659 258.5 671.5Q297 684 343 684Q422 684 459 647Q474 632 482.5 613Q491 594 490 566H421Q421 580 417 589Q413 598 405 606Q393 618 374 622Q355 626 335 626ZM366 235Q337 238 311 239Q285 240 277 240Q259 240 240 239.5Q221 239 203 235.5Q185 232 168 224Q151 216 137 202Q123 188 116.5 168Q110 148 110 127Q110 99 126 83Q138 72 158 67Q178 62 202 62Q254 62 289 84Q324 106 348 134ZM390 364Q395 393 392.5 410.5Q390 428 377 437Q364 446 340 449Q316 452 278 452Q251 452 211 448.5Q171 445 120 434L133 504Q152 509 175 512.5Q198 516 221.5 518Q245 520 266.5 521Q288 522 303 522Q352 522 388 515Q424 508 445.5 490.5Q467 473 474 442.5Q481 412 472 365L407 0H350L345 53H344Q308 21 264.5 6Q221 -9 174 -9Q138 -9 107.5 0Q77 9 54 32Q39 47 31 69.5Q23 92 23 115Q23 152 35.5 187Q48 222 74 248Q93 267 117.5 278.5Q142 290 169 296Q196 302 225.5 303.5Q255 305 284 305Q292 305 320 303.5Q348 302 378 299Z" glyph-name="ainvertedbreve" horiz-adv-x="530" unicode="&#515;" /><glyph d="M357 626Q334 626 310.5 620.5Q287 615 270 598Q256 584 249 566H176Q189 606 215 632Q242 659 280.5 671.5Q319 684 365 684Q444 684 481 647Q496 632 504.5 613Q513 594 512 566H443Q443 580 439 589Q435 598 427 606Q415 618 396 622Q377 626 357 626ZM448 413Q438 423 422 431Q408 438 386.5 443.5Q365 449 336 449Q294 449 262.5 438.5Q231 428 206 403Q187 384 173.5 357.5Q160 331 151 300.5Q142 270 137.5 237.5Q133 205 133 175Q133 143 141 122Q149 101 163 87Q190 61 246 61Q271 61 294 69.5Q317 78 336 91Q355 104 370.5 118.5Q386 133 398 145ZM493 510H548L455 0H396V60H395Q358 30 317.5 10.5Q277 -9 219 -9Q176 -9 143.5 4Q111 17 89 37Q44 79 44 167Q44 200 49.5 239Q55 278 67 316.5Q79 355 97.5 390.5Q116 426 142 452Q180 490 232.5 504.5Q285 519 341 519Q375 519 400 512.5Q425 506 442 498Q461 488 475 477H477Z" glyph-name="ainvertedbreve.hist" horiz-adv-x="587" unicode="&#59175;" /><glyph d="M330 658Q307 658 283.5 652.5Q260 647 243 630Q229 616 222 598H149Q162 638 188 664Q215 691 253.5 703.5Q292 716 338 716Q417 716 454 679Q469 664 477.5 645Q486 626 485 598H416Q416 612 412 621Q408 630 400 638Q388 650 369 654Q350 658 330 658ZM157 196H349L318 379Q314 400 310.5 425.5Q307 451 304 471H302Q293 451 282.5 429Q272 407 257 380ZM362 131H121L50 0H-41L264 541H362L468 0H386Z" glyph-name="ainvertedbreve.small" horiz-adv-x="521" unicode="&#59176;" /><glyph d="M237 -34Q271 -36 291 -45.5Q311 -55 322 -66Q334 -78 334 -96Q334 -122 313 -143Q296 -160 266.5 -167Q237 -174 202 -174Q189 -174 168 -172.5Q147 -171 125 -164L135 -110Q150 -115 167 -117Q184 -119 199 -119Q208 -119 218.5 -118.5Q229 -118 237 -116Q245 -114 250.5 -109Q256 -104 256 -96Q256 -90 250.5 -86Q245 -82 237.5 -80Q230 -78 222.5 -77Q215 -76 210 -75Z" glyph-name="altcedilla" horiz-adv-x="600" unicode="&#58390;" /><glyph d="M496 599H165L177 667H508ZM366 235Q337 238 311 239Q285 240 277 240Q259 240 240 239.5Q221 239 203 235.5Q185 232 168 224Q151 216 137 202Q123 188 116.5 168Q110 148 110 127Q110 99 126 83Q138 72 158 67Q178 62 202 62Q254 62 289 84Q324 106 348 134ZM390 364Q395 393 392.5 410.5Q390 428 377 437Q364 446 340 449Q316 452 278 452Q251 452 211 448.5Q171 445 120 434L133 504Q152 509 175 512.5Q198 516 221.5 518Q245 520 266.5 521Q288 522 303 522Q352 522 388 515Q424 508 445.5 490.5Q467 473 474 442.5Q481 412 472 365L407 0H350L345 53H344Q308 21 264.5 6Q221 -9 174 -9Q138 -9 107.5 0Q77 9 54 32Q39 47 31 69.5Q23 92 23 115Q23 152 35.5 187Q48 222 74 248Q93 267 117.5 278.5Q142 290 169 296Q196 302 225.5 303.5Q255 305 284 305Q292 305 320 303.5Q348 302 378 299Z" glyph-name="amacron" horiz-adv-x="530" unicode="&#257;" /><glyph d="M519 599H188L200 667H531ZM448 413Q438 423 422 431Q408 438 386.5 443.5Q365 449 336 449Q294 449 262.5 438.5Q231 428 206 403Q187 384 173.5 357.5Q160 331 151 300.5Q142 270 137.5 237.5Q133 205 133 175Q133 143 141 122Q149 101 163 87Q190 61 246 61Q271 61 294 69.5Q317 78 336 91Q355 104 370.5 118.5Q386 133 398 145ZM493 510H548L455 0H396V60H395Q358 30 317.5 10.5Q277 -9 219 -9Q176 -9 143.5 4Q111 17 89 37Q44 79 44 167Q44 200 49.5 239Q55 278 67 316.5Q79 355 97.5 390.5Q116 426 142 452Q180 490 232.5 504.5Q285 519 341 519Q375 519 400 512.5Q425 506 442 498Q461 488 475 477H477Z" glyph-name="amacron.hist" horiz-adv-x="587" unicode="&#59177;" /><glyph d="M490 631H159L171 699H502ZM157 196H349L318 379Q314 400 310.5 425.5Q307 451 304 471H302Q293 451 282.5 429Q272 407 257 380ZM362 131H121L50 0H-41L264 541H362L468 0H386Z" glyph-name="amacron.small" horiz-adv-x="521" unicode="&#63041;" /><glyph d="M468 310H328Q293 310 256 299Q219 288 190 259Q172 241 160.5 213Q149 185 149 153Q149 116 170 95Q184 81 208.5 74.5Q233 68 266 68Q314 68 359.5 87.5Q405 107 437 141ZM439 60Q401 28 348.5 8Q296 -12 246 -12Q198 -12 158 1.5Q118 15 95 38Q75 58 64 84.5Q53 111 53 143Q53 185 67 223.5Q81 262 114 295Q139 320 161 333Q183 346 204 354V355Q187 367 177 377Q157 397 144 423.5Q131 450 131 484Q131 523 146 561Q161 599 190 628Q222 660 271.5 674.5Q321 689 386 690Q398 690 413 689Q428 688 444.5 686.5Q461 685 477 682Q493 679 505 676L491 602Q465 608 436 611.5Q407 615 385 615Q337 615 308 604Q279 593 259 573Q243 557 234 532Q225 507 225 480Q225 440 253 412Q270 395 292 388Q314 381 343 381H489L528 484H583L563 381H691L678 310H550L520 147Q515 122 516.5 105.5Q518 89 526 79.5Q534 70 551 66Q568 62 595 62Q609 62 625.5 64.5Q642 67 656 71L643 3Q620 -4 598 -6Q576 -8 555 -8Q537 -8 518.5 -5Q500 -2 484.5 5.5Q469 13 457 26.5Q445 40 441 60Z" glyph-name="ampersand" horiz-adv-x="730" unicode="&amp;" /><glyph d="M-32 0 255 510H357L456 0H372L320 289Q313 327 306.5 367Q300 407 295 439H293Q279 410 258 368.5Q237 327 216 289L56 0Z" glyph-name="anocross" horiz-adv-x="516" unicode="&#59184;" /><glyph d="M-41 0 264 541H362L468 0H386L328 321Q321 360 315 399Q309 438 304 471H302Q285 438 264.5 398.5Q244 359 224 321L50 0Z" glyph-name="anocross.small" horiz-adv-x="521" unicode="&#59186;" /><glyph d="M366 235Q337 238 311 239Q285 240 277 240Q259 240 240 239.5Q221 239 203 235.5Q185 232 168 224Q151 216 137 202Q123 188 116.5 168Q110 148 110 127Q110 99 126 83Q138 72 158 67Q178 62 202 62Q254 62 289 84Q324 106 348 134ZM390 364Q395 393 392.5 410.5Q390 428 377 437Q364 446 340 449Q316 452 278 452Q251 452 211 448.5Q171 445 120 434L133 504Q152 509 175 512.5Q198 516 221.5 518Q245 520 266.5 521Q288 522 303 522Q352 522 388 515Q424 508 445.5 490.5Q467 473 474 442.5Q481 412 472 365L407 0Q385 -11 369 -27Q358 -38 347 -53.5Q336 -69 336 -89Q336 -101 344 -109Q353 -118 374 -118Q388 -118 404 -116Q420 -114 438 -109L428 -164Q412 -170 390 -172Q368 -174 351 -174Q323 -174 304 -167Q285 -160 274 -149Q257 -132 257 -106Q257 -86 267.5 -66.5Q278 -47 293 -32Q317 -7 349 11L345 53H344Q308 21 264.5 6Q221 -9 174 -9Q138 -9 107.5 0Q77 9 54 32Q39 47 31 69.5Q23 92 23 115Q23 152 35.5 187Q48 222 74 248Q93 267 117.5 278.5Q142 290 169 296Q196 302 225.5 303.5Q255 305 284 305Q292 305 320 303.5Q348 302 378 299Z" glyph-name="aogonek" horiz-adv-x="530" unicode="&#261;" /><glyph d="M448 413Q438 423 422 431Q408 438 386.5 443.5Q365 449 336 449Q294 449 262.5 438.5Q231 428 206 403Q187 384 173.5 357.5Q160 331 151 300.5Q142 270 137.5 237.5Q133 205 133 175Q133 143 141 122Q149 101 163 87Q190 61 246 61Q271 61 294 69.5Q317 78 336 91Q355 104 370.5 118.5Q386 133 398 145ZM493 510H548L455 0Q433 -11 417 -27Q406 -38 395 -53.5Q384 -69 384 -89Q384 -101 392 -109Q401 -118 422 -118Q436 -118 452 -116Q468 -114 486 -109L476 -164Q460 -170 438 -172Q416 -174 399 -174Q371 -174 352 -167Q333 -160 322 -149Q305 -132 305 -106Q305 -86 315.5 -66.5Q326 -47 341 -32Q352 -20 365.5 -9Q379 2 396 10V60H395Q358 30 317.5 10.5Q277 -9 219 -9Q176 -9 143.5 4Q111 17 89 37Q44 79 44 167Q44 200 49.5 239Q55 278 67 316.5Q79 355 97.5 390.5Q116 426 142 452Q180 490 232.5 504.5Q285 519 341 519Q375 519 400 512.5Q425 506 442 498Q461 488 475 477H477Z" glyph-name="aogonek.hist" horiz-adv-x="587" unicode="&#59187;" /><glyph d="M468 0Q446 -11 425 -32Q413 -44 405 -58.5Q397 -73 397 -89Q397 -101 405 -109Q414 -118 435 -118Q449 -118 465 -116Q481 -114 499 -109L489 -164Q473 -170 451 -172Q429 -174 412 -174Q384 -174 365 -167Q346 -160 335 -149Q318 -132 318 -106Q318 -84 328 -65.5Q338 -47 355 -30Q364 -21 374.5 -14Q385 -7 396 0ZM157 196H349L318 379Q314 400 310.5 425.5Q307 451 304 471H302Q293 451 282.5 429Q272 407 257 380ZM362 131H121L50 0H-41L264 541H362L468 0H386Z" glyph-name="aogonek.small" horiz-adv-x="521" unicode="&#63042;" /><glyph d="M439 389Q471 389 509 400Q547 411 584 431L570 358Q541 341 502.5 329.5Q464 318 427 318Q399 318 372 324.5Q345 331 318.5 339.5Q292 348 265.5 354.5Q239 361 212 361Q180 361 142 350Q104 339 67 319L80 390Q109 407 148.5 419.5Q188 432 224 432Q252 432 279 425.5Q306 419 332 410.5Q358 402 384.5 395.5Q411 389 439 389ZM402 189Q434 189 472 200Q510 211 547 231L533 158Q504 141 465.5 129.5Q427 118 390 118Q362 118 335 124.5Q308 131 281.5 139.5Q255 148 228.5 154.5Q202 161 175 161Q143 161 105 150Q67 139 30 119L43 190Q72 207 111.5 219.5Q151 232 187 232Q215 232 242 225.5Q269 219 295 210.5Q321 202 347.5 195.5Q374 189 402 189Z" glyph-name="approxequal" horiz-adv-x="608" unicode="&#8776;" /><glyph d="M335 607Q357 607 368 618Q379 629 379 649Q379 659 374 664Q366 672 347 672Q325 672 314 661Q309 656 306 647.5Q303 639 303 630Q303 620 308 615Q316 607 335 607ZM327 567Q284 567 263 588Q249 602 249 625Q249 642 255 659.5Q261 677 273 689Q287 703 307 708Q327 713 354 713Q398 713 419 692Q433 678 433 655Q433 638 427 620.5Q421 603 409 591Q395 577 374.5 572Q354 567 327 567ZM366 235Q337 238 311 239Q285 240 277 240Q259 240 240 239.5Q221 239 203 235.5Q185 232 168 224Q151 216 137 202Q123 188 116.5 168Q110 148 110 127Q110 99 126 83Q138 72 158 67Q178 62 202 62Q254 62 289 84Q324 106 348 134ZM390 364Q395 393 392.5 410.5Q390 428 377 437Q364 446 340 449Q316 452 278 452Q251 452 211 448.5Q171 445 120 434L133 504Q152 509 175 512.5Q198 516 221.5 518Q245 520 266.5 521Q288 522 303 522Q352 522 388 515Q424 508 445.5 490.5Q467 473 474 442.5Q481 412 472 365L407 0H350L345 53H344Q308 21 264.5 6Q221 -9 174 -9Q138 -9 107.5 0Q77 9 54 32Q39 47 31 69.5Q23 92 23 115Q23 152 35.5 187Q48 222 74 248Q93 267 117.5 278.5Q142 290 169 296Q196 302 225.5 303.5Q255 305 284 305Q292 305 320 303.5Q348 302 378 299Z" glyph-name="aring" horiz-adv-x="530" unicode="&#229;" /><glyph d="M345 607Q367 607 378 618Q389 629 389 649Q389 659 384 664Q376 672 357 672Q335 672 324 661Q319 656 316 647.5Q313 639 313 630Q313 620 318 615Q326 607 345 607ZM337 567Q294 567 273 588Q259 602 259 625Q259 642 265 659.5Q271 677 283 689Q297 703 317 708Q337 713 364 713Q408 713 429 692Q443 678 443 655Q443 638 437 620.5Q431 603 419 591Q405 577 384.5 572Q364 567 337 567ZM448 413Q438 423 422 431Q408 438 386.5 443.5Q365 449 336 449Q294 449 262.5 438.5Q231 428 206 403Q187 384 173.5 357.5Q160 331 151 300.5Q142 270 137.5 237.5Q133 205 133 175Q133 143 141 122Q149 101 163 87Q190 61 246 61Q271 61 294 69.5Q317 78 336 91Q355 104 370.5 118.5Q386 133 398 145ZM493 510H548L455 0H396V60H395Q358 30 317.5 10.5Q277 -9 219 -9Q176 -9 143.5 4Q111 17 89 37Q44 79 44 167Q44 200 49.5 239Q55 278 67 316.5Q79 355 97.5 390.5Q116 426 142 452Q180 490 232.5 504.5Q285 519 341 519Q375 519 400 512.5Q425 506 442 498Q461 488 475 477H477Z" glyph-name="aring.hist" horiz-adv-x="587" unicode="&#59188;" /><glyph d="M326 639Q348 639 359 650Q370 661 370 681Q370 691 365 696Q357 704 338 704Q316 704 305 693Q300 688 297 679.5Q294 671 294 662Q294 652 299 647Q307 639 326 639ZM318 599Q275 599 254 620Q240 634 240 657Q240 674 246 691.5Q252 709 264 721Q278 735 298 740Q318 745 345 745Q389 745 410 724Q424 710 424 687Q424 670 418 652.5Q412 635 400 623Q386 609 365.5 604Q345 599 318 599ZM157 196H349L318 379Q314 400 310.5 425.5Q307 451 304 471H302Q293 451 282.5 429Q272 407 257 380ZM362 131H121L50 0H-41L264 541H362L468 0H386Z" glyph-name="aring.small" horiz-adv-x="521" unicode="&#63461;" /><glyph d="M329 607Q351 607 362 618Q373 629 373 649Q373 659 368 664Q360 672 341 672Q319 672 308 661Q303 656 300 647.5Q297 639 297 630Q297 620 302 615Q310 607 329 607ZM321 567Q278 567 257 588Q243 602 243 625Q243 642 250.5 657.5Q258 673 271 686Q279 694 289 702.5Q299 711 310 721L395 791H463L366 711Q397 706 413 691Q427 677 427 655Q427 638 421 620.5Q415 603 403 591Q389 577 368.5 572Q348 567 321 567ZM366 235Q337 238 311 239Q285 240 277 240Q259 240 240 239.5Q221 239 203 235.5Q185 232 168 224Q151 216 137 202Q123 188 116.5 168Q110 148 110 127Q110 99 126 83Q138 72 158 67Q178 62 202 62Q254 62 289 84Q324 106 348 134ZM390 364Q395 393 392.5 410.5Q390 428 377 437Q364 446 340 449Q316 452 278 452Q251 452 211 448.5Q171 445 120 434L133 504Q152 509 175 512.5Q198 516 221.5 518Q245 520 266.5 521Q288 522 303 522Q352 522 388 515Q424 508 445.5 490.5Q467 473 474 442.5Q481 412 472 365L407 0H350L345 53H344Q308 21 264.5 6Q221 -9 174 -9Q138 -9 107.5 0Q77 9 54 32Q39 47 31 69.5Q23 92 23 115Q23 152 35.5 187Q48 222 74 248Q93 267 117.5 278.5Q142 290 169 296Q196 302 225.5 303.5Q255 305 284 305Q292 305 320 303.5Q348 302 378 299Z" glyph-name="aringacute" horiz-adv-x="530" unicode="&#507;" /><glyph d="M357 607Q379 607 390 618Q401 629 401 649Q401 659 396 664Q388 672 369 672Q347 672 336 661Q331 656 328 647.5Q325 639 325 630Q325 620 330 615Q338 607 357 607ZM349 567Q306 567 285 588Q271 602 271 625Q271 642 278.5 657.5Q286 673 299 686Q307 694 317 702.5Q327 711 338 721L423 791H491L394 711Q425 706 441 691Q455 677 455 655Q455 638 449 620.5Q443 603 431 591Q417 577 396.5 572Q376 567 349 567ZM448 413Q438 423 422 431Q408 438 386.5 443.5Q365 449 336 449Q294 449 262.5 438.5Q231 428 206 403Q187 384 173.5 357.5Q160 331 151 300.5Q142 270 137.5 237.5Q133 205 133 175Q133 143 141 122Q149 101 163 87Q190 61 246 61Q271 61 294 69.5Q317 78 336 91Q355 104 370.5 118.5Q386 133 398 145ZM493 510H548L455 0H396V60H395Q358 30 317.5 10.5Q277 -9 219 -9Q176 -9 143.5 4Q111 17 89 37Q44 79 44 167Q44 200 49.5 239Q55 278 67 316.5Q79 355 97.5 390.5Q116 426 142 452Q180 490 232.5 504.5Q285 519 341 519Q375 519 400 512.5Q425 506 442 498Q461 488 475 477H477Z" glyph-name="aringacute.hist" horiz-adv-x="587" unicode="&#59189;" /><glyph d="M328 639Q350 639 361 650Q372 661 372 681Q372 691 367 696Q359 704 340 704Q318 704 307 693Q302 688 299 679.5Q296 671 296 662Q296 652 301 647Q309 639 328 639ZM320 599Q277 599 256 620Q242 634 242 657Q242 674 249.5 689.5Q257 705 270 718Q278 726 288 734.5Q298 743 309 753L394 823H462L365 743Q396 738 412 723Q426 709 426 687Q426 670 420 652.5Q414 635 402 623Q388 609 367.5 604Q347 599 320 599ZM157 196H349L318 379Q314 400 310.5 425.5Q307 451 304 471H302Q293 451 282.5 429Q272 407 257 380ZM362 131H121L50 0H-41L264 541H362L468 0H386Z" glyph-name="aringacute.small" horiz-adv-x="521" unicode="&#63013;" /><glyph d="M547 678V118L844 404V316L528 0H495L179 316V404L476 119V678Z" glyph-name="arrowdown" horiz-adv-x="990" unicode="&#8595;" /><glyph d="M856 310H296L582 13H494L178 329V362L494 678H582L297 381H856Z" glyph-name="arrowleft" horiz-adv-x="990" unicode="&#8592;" /><glyph d="M166 381H725L440 678H528L844 362V329L528 13H440L726 310H166Z" glyph-name="arrowright" horiz-adv-x="990" unicode="&#8594;" /><glyph d="M476 0V559L179 274V362L495 678H528L844 362V274L547 560V0Z" glyph-name="arrowup" horiz-adv-x="990" unicode="&#8593;" /><glyph d="M320 613 146 387H74L300 678H355L473 387H408Z" glyph-name="asciicircum" horiz-adv-x="499" unicode="^" /><glyph d="M434 358Q466 358 504 369Q542 380 579 400L565 327Q536 310 497.5 298.5Q459 287 422 287Q394 287 367 293.5Q340 300 313.5 308.5Q287 317 260.5 323.5Q234 330 207 330Q175 330 137 319Q99 308 62 288L75 359Q104 376 143.5 388.5Q183 401 219 401Q247 401 274 394.5Q301 388 327 379.5Q353 371 379.5 364.5Q406 358 434 358Z" glyph-name="asciitilde" horiz-adv-x="608" unicode="~" /><glyph d="M362 729H416L390 586L533 629L539 577L396 532L457 417L411 388L350 496L248 386L207 419L312 535L182 581L206 629L333 586Z" glyph-name="asterisk" horiz-adv-x="600" unicode="*" /><glyph d="M484 313Q473 315 462 315.5Q451 316 443 316Q417 316 394 305Q371 294 354 276Q334 256 320 227Q306 198 306 165Q306 147 315 138Q327 128 349 128Q380 128 402.5 150Q425 172 437 201ZM439 112Q420 93 403 83Q386 73 371.5 68.5Q357 64 346 63.5Q335 63 329 63Q305 63 287 70.5Q269 78 256 91Q232 115 232 159Q232 202 250 244.5Q268 287 300 319Q359 378 460 378Q495 378 524.5 373Q554 368 575 363L514 202Q509 188 506 172Q503 156 506 143Q509 130 519.5 121.5Q530 113 551 113Q593 113 623 143Q654 174 665.5 221Q677 268 677 315Q677 360 665.5 396Q654 432 628 458Q602 484 562 499Q522 514 466 514Q392 514 332 489Q272 464 227 419Q176 368 148 295.5Q120 223 120 147Q120 49 178 -9Q207 -38 252.5 -53.5Q298 -69 358 -69Q386 -69 422 -61.5Q458 -54 486 -42L474 -106Q450 -117 417.5 -123Q385 -129 347 -129Q272 -129 214.5 -107.5Q157 -86 119 -48Q51 20 51 136Q51 179 58.5 223Q66 267 82 309.5Q98 352 122.5 391.5Q147 431 180 464Q235 519 312.5 546Q390 573 477 573Q552 573 604.5 550.5Q657 528 690 492Q747 430 747 326Q747 297 743.5 267Q740 237 731.5 207.5Q723 178 708 151Q693 124 671 102Q642 73 608.5 63.5Q575 54 535 54Q519 54 503.5 57.5Q488 61 475 68Q462 75 453 86Q444 97 441 112Z" glyph-name="at" horiz-adv-x="796" unicode="@" /><glyph d="M506 430Q495 432 484 432.5Q473 433 465 433Q439 433 416 422Q393 411 376 393Q356 373 342 344Q328 315 328 282Q328 264 337 255Q349 245 371 245Q402 245 424.5 267Q447 289 459 318ZM461 229Q442 210 425 200Q408 190 393.5 185.5Q379 181 368 180.5Q357 180 351 180Q327 180 309 187.5Q291 195 278 208Q254 232 254 276Q254 319 272 361.5Q290 404 322 436Q381 495 482 495Q517 495 546.5 490Q576 485 597 480L536 319Q531 305 528 289Q525 273 528 260Q531 247 541.5 238.5Q552 230 573 230Q615 230 645 260Q676 291 687.5 338Q699 385 699 432Q699 477 687.5 513Q676 549 650 575Q624 601 584 616Q544 631 488 631Q414 631 354 606Q294 581 249 536Q198 485 170 412.5Q142 340 142 264Q142 166 200 108Q229 79 274.5 63.5Q320 48 380 48Q408 48 444 55.5Q480 63 508 75L496 11Q472 0 439.5 -6Q407 -12 369 -12Q294 -12 236.5 9.5Q179 31 141 69Q73 137 73 253Q73 296 80.5 340Q88 384 104 426.5Q120 469 144.5 508.5Q169 548 202 581Q257 636 334.5 663Q412 690 499 690Q574 690 626.5 667.5Q679 645 712 609Q769 547 769 443Q769 414 765.5 384Q762 354 753.5 324.5Q745 295 730 268Q715 241 693 219Q664 190 630.5 180.5Q597 171 557 171Q541 171 525.5 174.5Q510 178 497 185Q484 192 475 203Q466 214 463 229Z" glyph-name="at.cap" horiz-adv-x="796" unicode="&#58643;" /><glyph d="M423 656Q445 656 472 667Q499 678 522 692L510 626Q501 620 489.5 614Q478 608 464.5 603Q451 598 437.5 594.5Q424 591 412 591Q393 591 374.5 596Q356 601 338.5 607.5Q321 614 303.5 619Q286 624 268 624Q246 624 219 613Q192 602 169 588L182 654Q199 665 227 677.5Q255 690 279 690Q298 690 316 684.5Q334 679 351.5 673Q369 667 386.5 661.5Q404 656 423 656ZM366 235Q337 238 311 239Q285 240 277 240Q259 240 240 239.5Q221 239 203 235.5Q185 232 168 224Q151 216 137 202Q123 188 116.5 168Q110 148 110 127Q110 99 126 83Q138 72 158 67Q178 62 202 62Q254 62 289 84Q324 106 348 134ZM390 364Q395 393 392.5 410.5Q390 428 377 437Q364 446 340 449Q316 452 278 452Q251 452 211 448.5Q171 445 120 434L133 504Q152 509 175 512.5Q198 516 221.5 518Q245 520 266.5 521Q288 522 303 522Q352 522 388 515Q424 508 445.5 490.5Q467 473 474 442.5Q481 412 472 365L407 0H350L345 53H344Q308 21 264.5 6Q221 -9 174 -9Q138 -9 107.5 0Q77 9 54 32Q39 47 31 69.5Q23 92 23 115Q23 152 35.5 187Q48 222 74 248Q93 267 117.5 278.5Q142 290 169 296Q196 302 225.5 303.5Q255 305 284 305Q292 305 320 303.5Q348 302 378 299Z" glyph-name="atilde" horiz-adv-x="530" unicode="&#227;" /><glyph d="M429 656Q451 656 478 667Q505 678 528 692L516 626Q507 620 495.5 614Q484 608 470.5 603Q457 598 443.5 594.5Q430 591 418 591Q399 591 380.5 596Q362 601 344.5 607.5Q327 614 309.5 619Q292 624 274 624Q252 624 225 613Q198 602 175 588L188 654Q205 665 233 677.5Q261 690 285 690Q304 690 322 684.5Q340 679 357.5 673Q375 667 392.5 661.5Q410 656 429 656ZM448 413Q438 423 422 431Q408 438 386.5 443.5Q365 449 336 449Q294 449 262.5 438.5Q231 428 206 403Q187 384 173.5 357.5Q160 331 151 300.5Q142 270 137.5 237.5Q133 205 133 175Q133 143 141 122Q149 101 163 87Q190 61 246 61Q271 61 294 69.5Q317 78 336 91Q355 104 370.5 118.5Q386 133 398 145ZM493 510H548L455 0H396V60H395Q358 30 317.5 10.5Q277 -9 219 -9Q176 -9 143.5 4Q111 17 89 37Q44 79 44 167Q44 200 49.5 239Q55 278 67 316.5Q79 355 97.5 390.5Q116 426 142 452Q180 490 232.5 504.5Q285 519 341 519Q375 519 400 512.5Q425 506 442 498Q461 488 475 477H477Z" glyph-name="atilde.hist" horiz-adv-x="587" unicode="&#59190;" /><glyph d="M409 688Q431 688 458 699Q485 710 508 724L496 658Q487 652 475.5 646Q464 640 450.5 635Q437 630 423.5 626.5Q410 623 398 623Q379 623 360.5 628Q342 633 324.5 639.5Q307 646 289.5 651Q272 656 254 656Q232 656 205 645Q178 634 155 620L168 686Q185 697 213 709.5Q241 722 265 722Q284 722 302 716.5Q320 711 337.5 705Q355 699 372.5 693.5Q390 688 409 688ZM157 196H349L318 379Q314 400 310.5 425.5Q307 451 304 471H302Q293 451 282.5 429Q272 407 257 380ZM362 131H121L50 0H-41L264 541H362L468 0H386Z" glyph-name="atilde.small" horiz-adv-x="521" unicode="&#63459;" /><glyph d="M248 61Q289 61 322 72Q355 83 381 109Q397 125 410.5 151.5Q424 178 433 208.5Q442 239 447 271.5Q452 304 452 333Q452 393 422 423Q410 435 389 442Q368 449 342 449Q300 449 261 425.5Q222 402 187 366L138 99Q156 79 186 70Q216 61 248 61ZM366 519Q410 519 442.5 506.5Q475 494 497 472Q519 450 530 419Q541 388 541 343Q541 308 535 269Q529 230 517 191.5Q505 153 487 118.5Q469 84 444 59Q406 21 354.5 6Q303 -9 250 -9Q235 -9 216.5 -6.5Q198 -4 179 1.5Q160 7 142.5 15.5Q125 24 112 36H110L93 0H38L162 678H244L204 460H206Q247 492 287.5 505.5Q328 519 366 519Z" glyph-name="b" horiz-adv-x="587" unicode="b" /><glyph d="M413 273Q429 265 443 252Q457 238 465 218.5Q473 199 473 173Q473 135 461 105Q449 75 422 48Q404 30 381 20Q358 10 332.5 5.5Q307 1 280.5 0.5Q254 0 230 0H36L136 541H330Q379 541 416.5 532Q454 523 477 500Q491 486 497 465.5Q503 445 503 425Q503 354 451 302Q443 294 433.5 287.5Q424 281 414 275ZM291 309Q324 309 346 312.5Q368 316 389 337Q404 352 410 375.5Q416 399 416 419Q416 445 404 457Q390 471 370.5 474Q351 477 322 477H206L175 309ZM257 66Q287 66 314.5 71Q342 76 358 92Q379 113 384 137Q389 161 389 182Q389 206 375 220Q358 237 338.5 240Q319 243 290 243H163L130 66Z" glyph-name="b.small" horiz-adv-x="534" unicode="&#63330;" /><glyph d="M138 345Q149 337 166.5 331.5Q184 326 200 326Q223 326 240 331.5Q257 337 272 352Q284 364 292.5 380Q301 396 306.5 415Q312 434 314.5 453.5Q317 473 317 491Q317 526 301 542Q286 557 253 557Q232 557 209.5 546.5Q187 536 170 516ZM196 273Q180 273 157 278.5Q134 284 116 297L107 279H60L140 708H206L182 581H183Q205 596 228.5 603Q252 610 273 610Q304 610 324.5 602.5Q345 595 362 578Q388 552 388 499Q388 476 384 451Q380 426 371.5 402Q363 378 350.5 355.5Q338 333 322 317Q299 294 266 283.5Q233 273 196 273Z" glyph-name="b.superior" horiz-adv-x="380" unicode="&#58210;" /><glyph d="M84 763H158L294 -85H220Z" glyph-name="backslash" horiz-adv-x="347" unicode="\" /><glyph d="M225 -85H155L312 763H382Z" glyph-name="bar" horiz-adv-x="506" unicode="|" /><glyph d="M309 63Q409 63 464 118Q493 147 513 196.5Q533 246 546 301H159Q153 253 153 216Q153 136 191 98Q226 63 309 63ZM256 560Q226 530 205 479Q184 428 172 372H560Q564 398 565.5 420.5Q567 443 567 462Q567 542 529 580Q494 615 411 615Q311 615 256 560ZM425 690Q491 690 536.5 673Q582 656 609 629Q638 600 650.5 557.5Q663 515 663 462Q663 419 655 364Q647 309 631.5 254Q616 199 592 149.5Q568 100 536 68Q494 26 433 7Q372 -12 295 -12Q229 -12 183.5 5Q138 22 111 49Q82 78 69.5 120.5Q57 163 57 216Q57 259 64.5 314Q72 369 88 424Q104 479 128 528.5Q152 578 184 610Q226 652 287 671Q348 690 425 690Z" glyph-name="barredO" horiz-adv-x="690" unicode="&#59192;" /><glyph d="M256 58Q294 58 324.5 68Q355 78 379 102Q402 125 416.5 155.5Q431 186 439 221H135Q133 209 133 198Q133 187 133 176Q133 144 140.5 122Q148 100 162 86Q177 71 201 64.5Q225 58 256 58ZM206 408Q183 385 168 354Q153 323 145 288H450Q451 299 451.5 311Q452 323 452 334Q452 366 444.5 388Q437 410 423 424Q408 439 384 445.5Q360 452 329 452Q291 452 260.5 442Q230 432 206 408ZM241 -12Q142 -12 90 40Q46 84 46 175Q46 211 51 249Q56 287 68 324.5Q80 362 99 396.5Q118 431 145 458Q183 496 236 509Q289 522 340 522Q387 522 428 509Q469 496 495 470Q539 426 539 335Q539 299 534 261Q529 223 517 185.5Q505 148 486 113.5Q467 79 440 52Q421 33 397 20.5Q373 8 347 1Q321 -6 293.5 -9Q266 -12 241 -12Z" glyph-name="barredo" horiz-adv-x="586" unicode="&#59191;" /><glyph d="M389 102Q412 125 428 161Q444 197 454 237H134Q131 205 131 179Q131 116 161 87Q192 57 260 57Q344 57 389 102ZM209 438Q185 413 169.5 377.5Q154 342 145 303H465Q467 319 468 333.5Q469 348 469 362Q469 424 442 452Q412 485 339 485Q254 485 209 438ZM554 373Q554 336 548.5 293Q543 250 530.5 207.5Q518 165 498 126Q478 87 450 59Q415 24 365.5 6Q316 -12 247 -12Q191 -12 153 0Q115 12 91 35Q45 80 45 168Q45 206 50.5 249Q56 292 68 334Q80 376 100 414Q120 452 150 482Q185 516 234 534.5Q283 553 352 553Q409 553 448 540.5Q487 528 511 504Q534 481 544 448Q554 415 554 373Z" glyph-name="barredo.small" horiz-adv-x="593" unicode="&#59193;" /><glyph d="M511 693Q584 693 648.5 665Q713 637 761 589Q809 541 837 476.5Q865 412 865 339Q865 266 837 201.5Q809 137 761 89Q713 41 648.5 13Q584 -15 511 -15Q438 -15 373.5 13Q309 41 261 89Q213 137 185 201.5Q157 266 157 339Q157 412 185 476.5Q213 541 261 589Q309 637 373.5 665Q438 693 511 693Z" glyph-name="blackcircle" horiz-adv-x="990" unicode="&#9679;" /><glyph d="M256 510H766V0H256Z" glyph-name="blacksmallsquare" horiz-adv-x="990" unicode="&#9642;" /><glyph d="M172 678H850V0H172Z" glyph-name="blacksquare" horiz-adv-x="990" unicode="&#59200;" /><glyph d="M77 303 80 323 142 374Q149 416 151.5 461Q154 506 158.5 547.5Q163 589 173.5 625Q184 661 208 685Q231 708 263.5 719Q296 730 347 730Q354 730 361 730Q368 730 376 729L363 662H350Q315 662 296 657.5Q277 653 266 642Q253 629 247 603.5Q241 578 237.5 545.5Q234 513 232 477.5Q230 442 225.5 409.5Q221 377 211.5 351.5Q202 326 185 313Q197 298 197 269Q197 238 187.5 201.5Q178 165 167 128Q156 91 146.5 55.5Q137 20 137 -10Q137 -32 152.5 -40.5Q168 -49 215 -50H231L219 -117Q206 -118 202 -118Q198 -118 191 -118Q153 -118 127 -112Q101 -106 85 -93.5Q69 -81 62.5 -63Q56 -45 56 -21Q56 8 64 43.5Q72 79 83 115.5Q94 152 104 187.5Q114 223 119 252Z" glyph-name="braceleft" horiz-adv-x="332" unicode="{" /><glyph d="M83 336 86 356 148 407Q155 449 157.5 494Q160 539 164.5 580.5Q169 622 179.5 658Q190 694 214 718Q237 741 269.5 752Q302 763 353 763Q360 763 367 763Q374 763 382 762L369 695H356Q321 695 302 690.5Q283 686 272 675Q259 662 253 636.5Q247 611 243.5 578.5Q240 546 238 510.5Q236 475 231.5 442.5Q227 410 217.5 384.5Q208 359 191 346Q203 331 203 302Q203 271 193.5 234.5Q184 198 173 161Q162 124 152.5 88.5Q143 53 143 23Q143 1 158.5 -7.5Q174 -16 221 -17H237L225 -84Q212 -85 208 -85Q204 -85 197 -85Q159 -85 133 -79Q107 -73 91 -60.5Q75 -48 68.5 -30Q62 -12 62 12Q62 41 70 76.5Q78 112 89 148.5Q100 185 110 220.5Q120 256 125 285Z" glyph-name="braceleft.cap" horiz-adv-x="332" unicode="&#58517;" /><glyph d="M276 323 273 303 211 252Q203 206 200 158.5Q197 111 192 67.5Q187 24 176.5 -12.5Q166 -49 142 -73Q119 -96 86.5 -107Q54 -118 3 -118Q-4 -118 -11 -118Q-18 -118 -26 -117L-13 -50H5Q38 -49 56 -44.5Q74 -40 84 -30Q96 -18 102 8.5Q108 35 112 68.5Q116 102 118.5 140Q121 178 126.5 212Q132 246 141.5 273Q151 300 168 313Q156 328 156 357Q156 387 165 420.5Q174 454 184.5 488.5Q195 523 204 557Q213 591 213 622Q213 643 198.5 652Q184 661 140 662H119L131 729Q146 730 149 730Q152 730 159 730Q235 730 264.5 705.5Q294 681 294 633Q294 604 286.5 570.5Q279 537 269 502.5Q259 468 249 435Q239 402 234 374Z" glyph-name="braceright" horiz-adv-x="332" unicode="}" /><glyph d="M282 356 279 336 217 285Q209 239 206 191.5Q203 144 198 100.5Q193 57 182.5 20.5Q172 -16 148 -40Q125 -63 92.5 -74Q60 -85 9 -85Q2 -85 -5 -85Q-12 -85 -20 -84L-7 -17H11Q44 -16 62 -11.5Q80 -7 90 3Q102 15 108 41.5Q114 68 118 101.5Q122 135 124.5 173Q127 211 132.5 245Q138 279 147.5 306Q157 333 174 346Q162 361 162 390Q162 420 171 453.5Q180 487 190.5 521.5Q201 556 210 590Q219 624 219 655Q219 676 204.5 685Q190 694 146 695H125L137 762Q152 763 155 763Q158 763 165 763Q241 763 270.5 738.5Q300 714 300 666Q300 637 292.5 603.5Q285 570 275 535.5Q265 501 255 468Q245 435 240 407Z" glyph-name="braceright.cap" horiz-adv-x="332" unicode="&#58518;" /><glyph d="M219 -118H33L190 730H376L363 663H259L127 -51H231Z" glyph-name="bracketleft" horiz-adv-x="332" unicode="[" /><glyph d="M225 -85H39L196 763H382L369 696H265L133 -18H237Z" glyph-name="bracketleft.cap" horiz-adv-x="332" unicode="&#58515;" /><glyph d="M-13 -51H91L223 663H119L132 730H318L161 -118H-25Z" glyph-name="bracketright" horiz-adv-x="332" unicode="]" /><glyph d="M-7 -18H97L229 696H125L138 763H324L167 -85H-19Z" glyph-name="bracketright.cap" horiz-adv-x="332" unicode="&#58516;" /><glyph d="M365 618Q388 618 411.5 623.5Q435 629 452 646Q466 660 473 678H546Q532 637 507 612Q480 585 441.5 572.5Q403 560 357 560Q278 560 241 597Q226 612 217.5 631Q209 650 210 678H279Q279 664 283 655Q287 646 295 638Q307 626 326 622Q345 618 365 618Z" glyph-name="breve" horiz-adv-x="600" unicode="&#728;" /><glyph d="M365 786Q388 786 411.5 791.5Q435 797 452 814Q466 828 473 846H546Q532 805 507 780Q480 753 441.5 740.5Q403 728 357 728Q278 728 241 765Q226 780 217.5 799Q209 818 210 846H279Q279 832 283 823Q287 814 295 806Q307 794 326 790Q345 786 365 786Z" glyph-name="breve.cap" horiz-adv-x="600" unicode="&#58406;" /><glyph d="M365 650Q388 650 411.5 655.5Q435 661 452 678Q466 692 473 710H546Q532 669 507 644Q480 617 441.5 604.5Q403 592 357 592Q278 592 241 629Q226 644 217.5 663Q209 682 210 710H279Q279 696 283 687Q287 678 295 670Q307 658 326 654Q345 650 365 650Z" glyph-name="breve.small" horiz-adv-x="600" unicode="&#63220;" /><glyph d="M241 381 312 763H382L311 381ZM298 310 225 -85H155L228 310Z" glyph-name="brokenbar" horiz-adv-x="506" unicode="&#166;" /><glyph d="M190 342Q190 368 199.5 391Q209 414 226 431Q243 448 266 458Q289 468 315 468Q341 468 364 458Q387 448 404 431Q421 414 431 391Q441 368 441 342Q441 316 431 293Q421 270 404 253Q387 236 364 226.5Q341 217 315 217Q289 217 266 226.5Q243 236 226 253Q209 270 199.5 293Q190 316 190 342Z" glyph-name="bullet" horiz-adv-x="600" unicode="&#8226;" /><glyph d="M389 12Q346 -2 311 -7Q276 -12 244 -12Q191 -12 153.5 1.5Q116 15 93 38Q70 61 57.5 93.5Q45 126 45 171Q45 205 50 243.5Q55 282 66 320Q77 358 95 393Q113 428 139 454Q174 489 226.5 505.5Q279 522 343 522Q369 522 401 518.5Q433 515 465 504L452 434Q423 445 393.5 448.5Q364 452 339 452Q304 452 269 443Q234 434 207 407Q189 389 175 362Q161 335 152 304Q143 273 138.5 241Q134 209 134 180Q134 157 140.5 132Q147 107 164 90Q180 74 206 68Q232 62 267 62Q293 62 328.5 67Q364 72 402 86Z" glyph-name="c" horiz-adv-x="470" unicode="c" /><glyph d="M45 174Q45 210 51.5 253.5Q58 297 70.5 340Q83 383 103 422Q123 461 150 488Q187 525 235 539Q283 553 346 553Q372 553 406.5 550Q441 547 482 535L469 466Q434 477 402 481Q370 485 346 485Q304 485 271.5 475Q239 465 213 439Q193 419 178.5 388Q164 357 153.5 321Q143 285 138 249Q133 213 133 184Q133 120 162 91Q179 74 206 67.5Q233 61 268 61Q298 61 336.5 66.5Q375 72 409 83L396 12Q378 4 356 -0.5Q334 -5 313 -7.5Q292 -10 273 -11Q254 -12 241 -12Q190 -12 151.5 2.5Q113 17 90 40Q67 63 56 95Q45 127 45 174Z" glyph-name="c.small" horiz-adv-x="475" unicode="&#63331;" /><glyph d="M288 287Q258 277 234.5 274Q211 271 191 271Q159 271 133 278.5Q107 286 91 302Q61 332 61 386Q61 407 65 432Q69 457 76.5 481.5Q84 506 95.5 528Q107 550 122 565Q148 591 179.5 601.5Q211 612 254 612Q271 612 292 609.5Q313 607 336 598L326 544Q303 553 283.5 555.5Q264 558 250 558Q233 558 213 554Q193 550 176 533Q165 522 156.5 504.5Q148 487 142.5 467.5Q137 448 134 428.5Q131 409 131 394Q131 380 135 366.5Q139 353 150 342Q159 333 173 330Q187 327 207 327Q221 327 244.5 330.5Q268 334 298 345Z" glyph-name="c.superior" horiz-adv-x="304" unicode="&#58211;" /><glyph d="M358 566H277L406 678H519ZM389 12Q346 -2 311 -7Q276 -12 244 -12Q191 -12 153.5 1.5Q116 15 93 38Q70 61 57.5 93.5Q45 126 45 171Q45 205 50 243.5Q55 282 66 320Q77 358 95 393Q113 428 139 454Q174 489 226.5 505.5Q279 522 343 522Q369 522 401 518.5Q433 515 465 504L452 434Q423 445 393.5 448.5Q364 452 339 452Q304 452 269 443Q234 434 207 407Q189 389 175 362Q161 335 152 304Q143 273 138.5 241Q134 209 134 180Q134 157 140.5 132Q147 107 164 90Q180 74 206 68Q232 62 267 62Q293 62 328.5 67Q364 72 402 86Z" glyph-name="cacute" horiz-adv-x="470" unicode="&#263;" /><glyph d="M360 598H279L408 710H521ZM45 174Q45 210 51.5 253.5Q58 297 70.5 340Q83 383 103 422Q123 461 150 488Q187 525 235 539Q283 553 346 553Q372 553 406.5 550Q441 547 482 535L469 466Q434 477 402 481Q370 485 346 485Q304 485 271.5 475Q239 465 213 439Q193 419 178.5 388Q164 357 153.5 321Q143 285 138 249Q133 213 133 184Q133 120 162 91Q179 74 206 67.5Q233 61 268 61Q298 61 336.5 66.5Q375 72 409 83L396 12Q378 4 356 -0.5Q334 -5 313 -7.5Q292 -10 273 -11Q254 -12 241 -12Q190 -12 151.5 2.5Q113 17 90 40Q67 63 56 95Q45 127 45 174Z" glyph-name="cacute.small" horiz-adv-x="475" unicode="&#63043;" /><glyph d="M236 678H312L367 608L448 678H534L402 562H323Z" glyph-name="caron" horiz-adv-x="600" unicode="&#711;" /><glyph d="M236 846H312L367 776L448 846H534L402 730H323Z" glyph-name="caron.cap" horiz-adv-x="600" unicode="&#58413;" /><glyph d="M236 710H312L367 640L448 710H534L402 594H323Z" glyph-name="caron.small" horiz-adv-x="600" unicode="&#63221;" /><glyph d="M469 678H567L461 507H400Z" glyph-name="caronSlovak" horiz-adv-x="600" unicode="&#58387;" /><glyph d="M194 678H270L325 608L406 678H492L360 562H281ZM389 12Q346 -2 311 -7Q276 -12 244 -12Q191 -12 153.5 1.5Q116 15 93 38Q70 61 57.5 93.5Q45 126 45 171Q45 205 50 243.5Q55 282 66 320Q77 358 95 393Q113 428 139 454Q174 489 226.5 505.5Q279 522 343 522Q369 522 401 518.5Q433 515 465 504L452 434Q423 445 393.5 448.5Q364 452 339 452Q304 452 269 443Q234 434 207 407Q189 389 175 362Q161 335 152 304Q143 273 138.5 241Q134 209 134 180Q134 157 140.5 132Q147 107 164 90Q180 74 206 68Q232 62 267 62Q293 62 328.5 67Q364 72 402 86Z" glyph-name="ccaron" horiz-adv-x="470" unicode="&#269;" /><glyph d="M197 710H273L328 640L409 710H495L363 594H284ZM45 174Q45 210 51.5 253.5Q58 297 70.5 340Q83 383 103 422Q123 461 150 488Q187 525 235 539Q283 553 346 553Q372 553 406.5 550Q441 547 482 535L469 466Q434 477 402 481Q370 485 346 485Q304 485 271.5 475Q239 465 213 439Q193 419 178.5 388Q164 357 153.5 321Q143 285 138 249Q133 213 133 184Q133 120 162 91Q179 74 206 67.5Q233 61 268 61Q298 61 336.5 66.5Q375 72 409 83L396 12Q378 4 356 -0.5Q334 -5 313 -7.5Q292 -10 273 -11Q254 -12 241 -12Q190 -12 151.5 2.5Q113 17 90 40Q67 63 56 95Q45 127 45 174Z" glyph-name="ccaron.small" horiz-adv-x="475" unicode="&#63044;" /><glyph d="M196 -8Q128 1 93 38Q70 61 57.5 93.5Q45 126 45 171Q45 205 50 243.5Q55 282 66 320Q77 358 95 393Q113 428 139 454Q174 489 226.5 505.5Q279 522 343 522Q369 522 401 518.5Q433 515 465 504L452 434Q423 445 393.5 448.5Q364 452 339 452Q304 452 269 443Q234 434 207 407Q189 389 175 362Q161 335 152 304Q143 273 138.5 241Q134 209 134 180Q134 157 140.5 132Q147 107 164 90Q180 74 206 68Q232 62 267 62Q293 62 328.5 67Q364 72 402 86L389 12Q354 1 324 -4.5Q294 -10 267 -11L251 -37Q274 -44 289 -59Q301 -71 301 -90Q301 -105 296 -117.5Q291 -130 278 -143Q260 -161 230 -167.5Q200 -174 162 -174Q151 -174 131.5 -172Q112 -170 91 -164L101 -110Q118 -115 135.5 -116.5Q153 -118 165 -118Q171 -118 181 -117.5Q191 -117 200.5 -114.5Q210 -112 216.5 -106.5Q223 -101 223 -91Q223 -84 218 -80Q213 -76 205.5 -73.5Q198 -71 189.5 -70Q181 -69 175 -68L173 -44Z" glyph-name="ccedilla" horiz-adv-x="470" unicode="&#231;" /><glyph d="M196 -8Q128 2 90 40Q67 63 56 95Q45 127 45 174Q45 210 51.5 253.5Q58 297 70.5 340Q83 383 103 422Q123 461 150 488Q187 525 235 539Q283 553 346 553Q372 553 406.5 550Q441 547 482 535L469 466Q434 477 402 481Q370 485 346 485Q304 485 271.5 475Q239 465 213 439Q193 419 178.5 388Q164 357 153.5 321Q143 285 138 249Q133 213 133 184Q133 120 162 91Q179 74 206 67.5Q233 61 268 61Q298 61 336.5 66.5Q375 72 409 83L396 12Q367 0 331 -5Q295 -10 267 -11L251 -37Q274 -44 289 -59Q301 -71 301 -90Q301 -105 296 -117.5Q291 -130 278 -143Q260 -161 230 -167.5Q200 -174 162 -174Q151 -174 131.5 -172Q112 -170 91 -164L101 -110Q118 -115 135.5 -116.5Q153 -118 165 -118Q171 -118 181 -117.5Q191 -117 200.5 -114.5Q210 -112 216.5 -106.5Q223 -101 223 -91Q223 -84 218 -80Q213 -76 205.5 -73.5Q198 -71 189.5 -70Q181 -69 175 -68L173 -44Z" glyph-name="ccedilla.small" horiz-adv-x="475" unicode="&#63463;" /><glyph d="M470 566H394L339 636L258 566H172L304 682H383ZM389 12Q346 -2 311 -7Q276 -12 244 -12Q191 -12 153.5 1.5Q116 15 93 38Q70 61 57.5 93.5Q45 126 45 171Q45 205 50 243.5Q55 282 66 320Q77 358 95 393Q113 428 139 454Q174 489 226.5 505.5Q279 522 343 522Q369 522 401 518.5Q433 515 465 504L452 434Q423 445 393.5 448.5Q364 452 339 452Q304 452 269 443Q234 434 207 407Q189 389 175 362Q161 335 152 304Q143 273 138.5 241Q134 209 134 180Q134 157 140.5 132Q147 107 164 90Q180 74 206 68Q232 62 267 62Q293 62 328.5 67Q364 72 402 86Z" glyph-name="ccircumflex" horiz-adv-x="470" unicode="&#265;" /><glyph d="M473 595H397L342 665L261 595H175L307 711H386ZM45 174Q45 210 51.5 253.5Q58 297 70.5 340Q83 383 103 422Q123 461 150 488Q187 525 235 539Q283 553 346 553Q372 553 406.5 550Q441 547 482 535L469 466Q434 477 402 481Q370 485 346 485Q304 485 271.5 475Q239 465 213 439Q193 419 178.5 388Q164 357 153.5 321Q143 285 138 249Q133 213 133 184Q133 120 162 91Q179 74 206 67.5Q233 61 268 61Q298 61 336.5 66.5Q375 72 409 83L396 12Q378 4 356 -0.5Q334 -5 313 -7.5Q292 -10 273 -11Q254 -12 241 -12Q190 -12 151.5 2.5Q113 17 90 40Q67 63 56 95Q45 127 45 174Z" glyph-name="ccircumflex.small" horiz-adv-x="475" unicode="&#63016;" /><glyph d="M389 12Q346 -2 311 -7Q276 -12 244 -12Q191 -12 153.5 1.5Q116 15 93 38Q70 61 57.5 93.5Q45 126 45 171Q45 205 50 243.5Q55 282 66 320Q77 358 95 393Q113 428 139 454Q174 489 226.5 505.5Q279 522 343 522Q369 522 401 518.5Q433 515 465 504L452 434Q423 445 393.5 448.5Q364 452 339 452Q304 452 269 443Q234 434 207 407Q189 389 175 362Q161 335 152 304Q143 273 138.5 241Q134 209 134 180Q134 157 140.5 132Q147 107 164 90Q180 74 206 68Q232 62 267 62Q293 62 328.5 67Q364 72 402 86ZM371 587H279L296 676H388Z" glyph-name="cdotaccent" horiz-adv-x="470" unicode="&#267;" /><glyph d="M384 619H292L309 708H401ZM45 174Q45 210 51.5 253.5Q58 297 70.5 340Q83 383 103 422Q123 461 150 488Q187 525 235 539Q283 553 346 553Q372 553 406.5 550Q441 547 482 535L469 466Q434 477 402 481Q370 485 346 485Q304 485 271.5 475Q239 465 213 439Q193 419 178.5 388Q164 357 153.5 321Q143 285 138 249Q133 213 133 184Q133 120 162 91Q179 74 206 67.5Q233 61 268 61Q298 61 336.5 66.5Q375 72 409 83L396 12Q378 4 356 -0.5Q334 -5 313 -7.5Q292 -10 273 -11Q254 -12 241 -12Q190 -12 151.5 2.5Q113 17 90 40Q67 63 56 95Q45 127 45 174Z" glyph-name="cdotaccent.small" horiz-adv-x="475" unicode="&#63017;" /><glyph d="M240 0H312L289 -37Q312 -44 327 -59Q339 -71 339 -90Q339 -105 334 -117.5Q329 -130 316 -143Q298 -161 268 -167.5Q238 -174 200 -174Q189 -174 169.5 -172Q150 -170 129 -164L139 -110Q156 -115 173.5 -116.5Q191 -118 203 -118Q209 -118 219 -117.5Q229 -117 238.5 -114.5Q248 -112 254.5 -106.5Q261 -101 261 -91Q261 -84 256 -80Q251 -76 243.5 -73.5Q236 -71 227.5 -70Q219 -69 213 -68L211 -44Z" glyph-name="cedilla" horiz-adv-x="600" unicode="&#184;" /><glyph d="M402 12Q359 -2 324 -7Q289 -12 257 -12Q239 -12 221 -9L176 -118H93L148 11Q123 23 108 40Q83 65 72 97.5Q61 130 61 179Q61 211 66.5 254.5Q72 298 84.5 343.5Q97 389 118 431.5Q139 474 169 504Q201 536 246.5 551Q292 566 346 568L393 678H474L425 565Q440 563 455 559.5Q470 556 486 551L473 481Q444 493 415 496Q386 499 361 499Q277 499 232 454Q211 433 195.5 398.5Q180 364 169.5 325.5Q159 287 154 250Q149 213 149 188Q149 124 181 92Q211 62 280 62Q306 62 341.5 67Q377 72 415 86Z" glyph-name="cent" horiz-adv-x="492" unicode="&#162;" /><glyph d="M515 634Q530 632 545 628.5Q560 625 576 620L563 550Q534 562 505 565Q476 568 451 568Q367 568 322 523Q301 502 285.5 467.5Q270 433 259.5 394.5Q249 356 244 319Q239 282 239 257Q239 193 271 161Q301 131 370 131Q396 131 431.5 136Q467 141 505 155L492 81Q449 67 414 62Q379 57 347 57Q337 57 328 57.5Q319 58 310 59L264 -49H182L238 80Q213 92 198 109Q173 134 162 166.5Q151 199 151 248Q151 280 156.5 323.5Q162 367 174.5 412.5Q187 458 208 500.5Q229 543 259 573Q291 605 336.5 620Q382 635 436 637L483 747H564Z" glyph-name="cent.LP" horiz-adv-x="660" unicode="&#58659;" /><glyph d="M511 525Q567 525 616 503.5Q665 482 702 445.5Q739 409 760 359.5Q781 310 781 254Q781 198 760 149Q739 100 702 63Q665 26 616 5Q567 -16 511 -16Q455 -16 406 5Q357 26 320 63Q283 100 262 149Q241 198 241 254Q241 310 262 359.5Q283 409 320 445.5Q357 482 406 503.5Q455 525 511 525Z" glyph-name="circle" horiz-adv-x="990" unicode="&#59201;" /><glyph d="M512 566H436L381 636L300 566H214L346 682H425Z" glyph-name="circumflex" horiz-adv-x="600" unicode="&#710;" /><glyph d="M512 734H436L381 804L300 734H214L346 850H425Z" glyph-name="circumflex.cap" horiz-adv-x="600" unicode="&#58403;" /><glyph d="M512 595H436L381 665L300 595H214L346 711H425Z" glyph-name="circumflex.small" horiz-adv-x="600" unicode="&#63222;" /><glyph d="M142 0H36L55 107H161ZM216 403H110L130 510H236Z" glyph-name="colon" horiz-adv-x="272" unicode=":" /><glyph d="M72 117H184L40 -118H-27Z" glyph-name="comma" horiz-adv-x="272" unicode="," /><glyph d="M402 678H498L393 507H334Z" glyph-name="commaabovecmb" horiz-adv-x="600" unicode="&#787;" /><glyph d="M191 -76H287L182 -247H123Z" glyph-name="commaaccent" horiz-adv-x="600" unicode="&#63171;" /><glyph d="M611 566H517L622 737H679Z" glyph-name="commaturnedabove" horiz-adv-x="700" unicode="&#59202;" /><glyph d="M376 -12Q298 -12 239.5 11Q181 34 144 71Q77 138 77 257Q77 299 84.5 342.5Q92 386 107 428Q122 470 144.5 508Q167 546 197 576Q257 636 332.5 663Q408 690 506 690Q584 690 642.5 667Q701 644 738 607Q805 540 805 421Q805 379 797.5 335.5Q790 292 775 250.5Q760 209 737.5 171Q715 133 685 103Q625 43 549.5 15.5Q474 -12 376 -12ZM387 47Q466 47 526.5 70.5Q587 94 631 138Q657 164 677 197.5Q697 231 710.5 267.5Q724 304 731 342Q738 380 738 416Q738 465 722.5 505Q707 545 682 570Q621 631 495 631Q416 631 355.5 607.5Q295 584 251 540Q225 514 205 480.5Q185 447 171.5 410.5Q158 374 151 336Q144 298 144 262Q144 213 159.5 173Q175 133 200 108Q261 47 387 47ZM364 482Q387 505 418.5 514.5Q450 524 490 524Q509 524 530.5 521Q552 518 574 510L564 458Q547 465 526.5 468Q506 471 488 471Q462 471 443 464.5Q424 458 409 443Q397 431 388 411Q379 391 373 368.5Q367 346 364.5 324Q362 302 362 286Q362 246 380 230Q398 213 440 213Q458 213 479.5 216Q501 219 521 226L512 174Q487 166 464 163Q441 160 422 160Q389 160 364.5 169.5Q340 179 324 195Q295 224 295 282Q295 308 299.5 336.5Q304 365 313 392Q322 419 334.5 442Q347 465 364 482Z" glyph-name="copyright" horiz-adv-x="852" unicode="&#169;" /><glyph d="M343 292Q308 280 281 276.5Q254 273 228 273Q147 273 108 312Q74 346 74 410Q74 435 78.5 465Q83 495 92 524Q101 553 114.5 579Q128 605 145 622Q198 675 303 675Q319 675 345 672.5Q371 670 400 658L389 596Q363 607 339 610Q315 613 298 613Q275 613 251 607Q227 601 209 583Q197 571 187 551.5Q177 532 170 510Q163 488 159.5 464.5Q156 441 156 420Q156 404 160.5 386.5Q165 369 177 357Q188 346 206 342Q224 338 247 338Q265 338 292.5 341Q320 344 354 356Z" glyph-name="cordinal" horiz-adv-x="361" unicode="&#57729;" /><glyph d="M74 414Q74 443 78.5 475Q83 507 92.5 538.5Q102 570 117 598Q132 626 152 646Q181 675 219 687Q257 699 305 699Q325 699 352.5 696.5Q380 694 413 683L401 620Q373 631 347 634Q321 637 304 637Q276 637 254 630Q232 623 214 605Q202 593 191.5 572Q181 551 173.5 525.5Q166 500 161.5 473Q157 446 157 423Q157 377 178 358Q190 347 207.5 342.5Q225 338 248 338Q269 338 299 341.5Q329 345 360 356L349 293Q333 286 315.5 282Q298 278 281.5 276Q265 274 250.5 273.5Q236 273 226 273Q147 273 109 311Q94 326 84 352.5Q74 379 74 414Z" glyph-name="cordinal.small" horiz-adv-x="367" unicode="&#59203;" /><glyph d="M390 48Q338 48 293 61Q248 74 215 101L90 -4L40 58L170 167Q159 187 154 213Q149 239 149 268Q149 336 171 404Q193 472 239 528L157 630L217 683L303 577Q345 605 395.5 618Q446 631 498 631Q550 631 595 618Q640 605 673 578L798 683L848 621L718 512Q729 492 734 466Q739 440 739 411Q739 343 717 275Q695 207 649 151L731 49L671 -4L585 102Q543 74 492.5 61Q442 48 390 48ZM403 118Q449 118 493.5 132.5Q538 147 574 183Q615 224 635 284Q655 344 655 404Q655 443 644.5 470.5Q634 498 615 517Q591 541 557 551Q523 561 485 561Q439 561 394.5 546.5Q350 532 314 496Q273 455 253 395Q233 335 233 275Q233 236 243.5 208.5Q254 181 273 162Q297 138 331 128Q365 118 403 118Z" glyph-name="currency" horiz-adv-x="858" unicode="&#164;" /><glyph d="M450 413Q432 433 401.5 441Q371 449 339 449Q298 449 265 438Q232 427 206 401Q189 384 176 358Q163 332 154 301.5Q145 271 140 238.5Q135 206 135 177Q135 117 165 87Q177 75 198 68Q219 61 245 61Q288 61 328 85.5Q368 110 400 144ZM397 60Q353 22 308 6.5Q263 -9 221 -9Q177 -9 144.5 3.5Q112 16 90 38Q68 60 57 91Q46 122 46 167Q46 201 52 240.5Q58 280 70 318.5Q82 357 100 391.5Q118 426 143 451Q181 489 233 504Q285 519 338 519Q370 519 406 510Q442 501 463 485L499 678H581L457 0H398V60Z" glyph-name="d" horiz-adv-x="587" unicode="d" /><glyph d="M537 355Q537 320 531.5 280.5Q526 241 513.5 202.5Q501 164 481 127.5Q461 91 432 62Q394 24 345 12Q296 0 241 0H36L136 541H341Q395 541 430 528.5Q465 516 493 488Q517 464 527 428.5Q537 393 537 355ZM372 109Q391 128 405.5 156Q420 184 430 216.5Q440 249 445 284Q450 319 450 351Q450 376 444.5 403Q439 430 419 450Q402 467 379.5 472Q357 477 325 477H206L130 66H249Q281 66 312 73Q343 80 372 109Z" glyph-name="d.small" horiz-adv-x="578" unicode="&#63332;" /><glyph d="M279 309H278Q255 289 227 281Q199 273 175 273Q146 273 125.5 280.5Q105 288 91 302Q62 331 62 386Q62 408 66 433Q70 458 77.5 482Q85 506 96.5 527.5Q108 549 123 564Q147 588 179.5 599Q212 610 253 610Q269 610 287 606Q305 602 321 594L342 708H408L328 279H277ZM310 539Q299 547 282 552Q265 557 249 557Q226 557 207.5 550.5Q189 544 174 529Q164 519 156 502.5Q148 486 142.5 467.5Q137 449 134 429.5Q131 410 131 394Q131 358 149 340Q163 326 196 326Q217 326 239.5 336.5Q262 347 279 367Z" glyph-name="d.superior" horiz-adv-x="380" unicode="&#58212;" /><glyph d="M183 -85H131L215 405L59 396L73 472L225 463L257 678H338L290 463L447 472L433 396L279 404Z" glyph-name="dagger" horiz-adv-x="438" unicode="&#8224;" /><glyph d="M249 257 379 264 368 200 239 206 182 -85H130L179 207L50 200L61 264L188 257L214 405L58 396L72 472L224 463L256 678H337L289 463L446 472L432 396L278 404Z" glyph-name="daggerdbl" horiz-adv-x="438" unicode="&#8225;" /><glyph d="M702 678H800L694 507H633ZM448 413Q430 433 399.5 441Q369 449 337 449Q296 449 263 438Q230 427 204 401Q187 384 174 358Q161 332 152 301.5Q143 271 138 238.5Q133 206 133 177Q133 117 163 87Q175 75 196 68Q217 61 243 61Q286 61 326 85.5Q366 110 398 144ZM395 60Q351 22 306 6.5Q261 -9 219 -9Q175 -9 142.5 3.5Q110 16 88 38Q66 60 55 91Q44 122 44 167Q44 201 50 240.5Q56 280 68 318.5Q80 357 98 391.5Q116 426 141 451Q179 489 231 504Q283 519 336 519Q368 519 404 510Q440 501 461 485L497 678H579L455 0H396V60Z" glyph-name="dcaron" horiz-adv-x="714" unicode="&#271;" /><glyph d="M206 710H282L337 640L418 710H504L372 594H293ZM537 355Q537 320 531.5 280.5Q526 241 513.5 202.5Q501 164 481 127.5Q461 91 432 62Q394 24 345 12Q296 0 241 0H36L136 541H341Q395 541 430 528.5Q465 516 493 488Q517 464 527 428.5Q537 393 537 355ZM372 109Q391 128 405.5 156Q420 184 430 216.5Q440 249 445 284Q450 319 450 351Q450 376 444.5 403Q439 430 419 450Q402 467 379.5 472Q357 477 325 477H206L130 66H249Q281 66 312 73Q343 80 372 109Z" glyph-name="dcaron.small" horiz-adv-x="578" unicode="&#63045;" /><glyph d="M220 -34Q254 -36 274 -45.5Q294 -55 305 -66Q317 -78 317 -96Q317 -122 296 -143Q279 -160 249.5 -167Q220 -174 185 -174Q172 -174 151 -172.5Q130 -171 108 -164L118 -110Q133 -115 150 -117Q167 -119 182 -119Q191 -119 201.5 -118.5Q212 -118 220 -116Q228 -114 233.5 -109Q239 -104 239 -96Q239 -90 233.5 -86Q228 -82 220.5 -80Q213 -78 205.5 -77Q198 -76 193 -75ZM448 413Q430 433 399.5 441Q369 449 337 449Q296 449 263 438Q230 427 204 401Q187 384 174 358Q161 332 152 301.5Q143 271 138 238.5Q133 206 133 177Q133 117 163 87Q175 75 196 68Q217 61 243 61Q286 61 326 85.5Q366 110 398 144ZM395 60Q351 22 306 6.5Q261 -9 219 -9Q175 -9 142.5 3.5Q110 16 88 38Q66 60 55 91Q44 122 44 167Q44 201 50 240.5Q56 280 68 318.5Q80 357 98 391.5Q116 426 141 451Q179 489 231 504Q283 519 336 519Q368 519 404 510Q440 501 461 485L497 678H579L455 0H396V60Z" glyph-name="dcedilla" horiz-adv-x="587" unicode="&#7697;" /><glyph d="M204 -34Q238 -36 258 -45.5Q278 -55 289 -66Q301 -78 301 -96Q301 -122 280 -143Q263 -160 233.5 -167Q204 -174 169 -174Q156 -174 135 -172.5Q114 -171 92 -164L102 -110Q117 -115 134 -117Q151 -119 166 -119Q175 -119 185.5 -118.5Q196 -118 204 -116Q212 -114 217.5 -109Q223 -104 223 -96Q223 -90 217.5 -86Q212 -82 204.5 -80Q197 -78 189.5 -77Q182 -76 177 -75ZM537 355Q537 320 531.5 280.5Q526 241 513.5 202.5Q501 164 481 127.5Q461 91 432 62Q394 24 345 12Q296 0 241 0H36L136 541H341Q395 541 430 528.5Q465 516 493 488Q517 464 527 428.5Q537 393 537 355ZM372 109Q391 128 405.5 156Q420 184 430 216.5Q440 249 445 284Q450 319 450 351Q450 376 444.5 403Q439 430 419 450Q402 467 379.5 472Q357 477 325 477H206L130 66H249Q281 66 312 73Q343 80 372 109Z" glyph-name="dcedilla.small" horiz-adv-x="578" unicode="&#59207;" /><glyph d="M448 413Q430 433 399.5 441Q369 449 337 449Q296 449 263 438Q230 427 204 401Q187 384 174 358Q161 332 152 301.5Q143 271 138 238.5Q133 206 133 177Q133 117 163 87Q175 75 196 68Q217 61 243 61Q286 61 326 85.5Q366 110 398 144ZM662 556H556L455 0H396V60H395Q351 22 306 6.5Q261 -9 219 -9Q175 -9 142.5 3.5Q110 16 88 38Q66 60 55 91Q44 122 44 167Q44 201 50 240.5Q56 280 68 318.5Q80 357 98 391.5Q116 426 141 451Q179 489 231 504Q283 519 336 519Q368 519 404 510Q440 501 461 485L474 556H328L341 623H486L497 678H579L569 623H675Z" glyph-name="dcroat" horiz-adv-x="587" unicode="&#273;" /><glyph d="M384 109Q403 128 417.5 156Q432 184 442 216.5Q452 249 457 284Q462 319 462 351Q462 376 456.5 403Q451 430 431 450Q414 467 391.5 472Q369 477 337 477H218L187 309H357L345 243H174L142 66H261Q293 66 324 73Q355 80 384 109ZM549 355Q549 320 543.5 280.5Q538 241 525.5 202.5Q513 164 493 127.5Q473 91 444 62Q406 24 357 12Q308 0 253 0H48L93 243H12L24 309H105L148 541H353Q407 541 442 528.5Q477 516 505 488Q529 464 539 428.5Q549 393 549 355Z" glyph-name="dcroat.small" horiz-adv-x="590" unicode="&#63046;" /><glyph d="M259 -181H170L186 -96H275ZM448 413Q430 433 399.5 441Q369 449 337 449Q296 449 263 438Q230 427 204 401Q187 384 174 358Q161 332 152 301.5Q143 271 138 238.5Q133 206 133 177Q133 117 163 87Q175 75 196 68Q217 61 243 61Q286 61 326 85.5Q366 110 398 144ZM395 60Q351 22 306 6.5Q261 -9 219 -9Q175 -9 142.5 3.5Q110 16 88 38Q66 60 55 91Q44 122 44 167Q44 201 50 240.5Q56 280 68 318.5Q80 357 98 391.5Q116 426 141 451Q179 489 231 504Q283 519 336 519Q368 519 404 510Q440 501 461 485L497 678H579L455 0H396V60Z" glyph-name="ddotbelow" horiz-adv-x="587" unicode="&#7693;" /><glyph d="M238 -181H149L165 -96H254ZM537 355Q537 320 531.5 280.5Q526 241 513.5 202.5Q501 164 481 127.5Q461 91 432 62Q394 24 345 12Q296 0 241 0H36L136 541H341Q395 541 430 528.5Q465 516 493 488Q517 464 527 428.5Q537 393 537 355ZM372 109Q391 128 405.5 156Q420 184 430 216.5Q440 249 445 284Q450 319 450 351Q450 376 444.5 403Q439 430 419 450Q402 467 379.5 472Q357 477 325 477H206L130 66H249Q281 66 312 73Q343 80 372 109Z" glyph-name="ddotbelow.small" horiz-adv-x="578" unicode="&#59208;" /><glyph d="M237 366Q162 366 121 407Q106 422 96.5 445Q87 468 87 496Q87 534 101.5 571.5Q116 609 143 636Q172 665 213 677.5Q254 690 297 690Q372 690 413 649Q428 634 437.5 611Q447 588 447 560Q447 522 432.5 484.5Q418 447 391 420Q362 391 321 378.5Q280 366 237 366ZM249 431Q301 431 334 464Q349 479 358 503.5Q367 528 367 556Q367 573 361.5 586.5Q356 600 348 608Q337 619 321.5 623Q306 627 286 627Q234 627 201 594Q186 579 177 554.5Q168 530 168 502Q168 485 173.5 471.5Q179 458 187 450Q206 431 249 431Z" glyph-name="degree" horiz-adv-x="434" unicode="&#176;" /><glyph d="M516 587H427L443 673H532ZM326 587H237L253 673H342Z" glyph-name="dieresis" horiz-adv-x="600" unicode="&#168;" /><glyph d="M516 755H427L443 841H532ZM326 755H237L253 841H342Z" glyph-name="dieresis.cap" horiz-adv-x="600" unicode="&#58409;" /><glyph d="M516 619H427L443 705H532ZM326 619H237L253 705H342Z" glyph-name="dieresis.small" horiz-adv-x="600" unicode="&#63400;" /><glyph d="M509 737H178L190 805H521ZM456 587H367L383 673H472ZM266 587H177L193 673H282Z" glyph-name="dieresismacron" horiz-adv-x="0" unicode="&#59209;" /><glyph d="M569 905H238L250 973H581ZM516 755H427L443 841H532ZM326 755H237L253 841H342Z" glyph-name="dieresismacron.cap" horiz-adv-x="0" unicode="&#59216;" /><glyph d="M302 51H206L223 144H319ZM522 236H52L66 307H536ZM367 402H271L289 495H385Z" glyph-name="divide" horiz-adv-x="582" unicode="&#247;" /><glyph d="M331 123H235L253 216H349ZM567 310H66L79 381H580ZM397 474H301L318 567H414Z" glyph-name="divide.cap" horiz-adv-x="613" unicode="&#58772;" /><glyph d="M393 564Q410 562 427 557.5Q444 553 459 548L446 478Q409 492 372.5 495Q336 498 310 498Q233 498 197 462Q183 448 174.5 428Q166 408 166 387Q166 365 180 351Q195 336 223 332Q251 328 283.5 324.5Q316 321 348.5 312.5Q381 304 405 280Q418 267 425.5 249Q433 231 433 205Q433 163 417.5 122.5Q402 82 370 50Q333 13 280.5 1Q228 -11 168 -11L123 -118H41L90 -3Q70 -1 50 3Q30 7 16 13L30 87Q48 80 70 75.5Q92 71 113.5 68Q135 65 154.5 64Q174 63 187 63Q235 63 265 72Q295 81 312 98Q328 114 336.5 137.5Q345 161 345 186Q345 210 333 222Q316 238 289 242Q262 246 230.5 249Q199 252 167.5 259Q136 266 112 289Q98 302 88.5 322Q79 342 79 369Q79 407 92 443Q105 479 136 510Q170 544 217.5 555.5Q265 567 314 568L362 678H443Z" glyph-name="dollar" horiz-adv-x="496" unicode="$" /><glyph d="M210 -118H128L186 20Q161 23 135 28.5Q109 34 92 44L106 123Q127 114 151 108.5Q175 103 199 100Q223 97 244 96Q265 95 280 95Q332 95 366.5 106Q401 117 422 138Q440 156 448.5 180Q457 204 457 228Q457 244 452.5 254.5Q448 265 440 273Q421 292 390.5 297Q360 302 325.5 306Q291 310 256.5 319Q222 328 195 355Q181 369 171.5 393Q162 417 162 444Q162 485 176 524Q190 563 219 592Q258 631 312.5 646Q367 661 425 662L483 795H564L504 658Q524 656 544.5 651Q565 646 582 639L568 564Q529 580 490 583.5Q451 587 423 587Q334 587 292 543Q275 526 268 504.5Q261 483 261 462Q261 447 264.5 438Q268 429 276 421Q292 405 323 400Q354 395 390 390Q426 385 462 375Q498 365 524 339Q538 325 547 302.5Q556 280 556 249Q556 204 540 161.5Q524 119 492 87Q450 45 390.5 30.5Q331 16 266 16Z" glyph-name="dollar.LP" horiz-adv-x="660" unicode="&#58658;" /><glyph d="M400 587H308L325 676H417ZM548 742H217L229 810H560Z" glyph-name="dotabovemacron" horiz-adv-x="0" unicode="&#59218;" /><glyph d="M467 755H375L392 844H484ZM617 923H286L298 991H629Z" glyph-name="dotabovemacron.cap" horiz-adv-x="0" unicode="&#59219;" /><glyph d="M407 619H315L332 708H424ZM555 767H224L236 835H567Z" glyph-name="dotabovemacron.small" horiz-adv-x="0" unicode="&#59220;" /><glyph d="M407 587H315L332 676H424Z" glyph-name="dotaccent" horiz-adv-x="600" unicode="&#729;" /><glyph d="M407 755H315L332 844H424Z" glyph-name="dotaccent.cap" horiz-adv-x="600" unicode="&#58408;" /><glyph d="M407 619H315L332 708H424Z" glyph-name="dotaccent.small" horiz-adv-x="600" unicode="&#63223;" /><glyph d="M134 0H43L168 678H259Z" glyph-name="dotlessI" horiz-adv-x="271" unicode="&#59221;" /><glyph d="M-58 -118Q-4 -52 29 16.5Q62 85 78 172L172 678H263L173 193Q164 143 152.5 101Q141 59 124.5 21.5Q108 -16 86.5 -50Q65 -84 35 -118Z" glyph-name="dotlessJ" horiz-adv-x="275" unicode="&#59223;" /><glyph d="M120 0H38L132 510H214Z" glyph-name="dotlessi" horiz-adv-x="252" unicode="&#305;" /><glyph d="M117 0H36L136 541H217Z" glyph-name="dotlessi.small" horiz-adv-x="247" unicode="&#59222;" /><glyph d="M-50 -168Q-14 -126 14 -72Q42 -18 53 41L140 510H222L147 103Q139 59 130.5 22Q122 -15 110 -47.5Q98 -80 80.5 -109.5Q63 -139 37 -168Z" glyph-name="dotlessj" horiz-adv-x="257" unicode="&#567;" /><glyph d="M-52 -91Q-7 -37 23 18.5Q53 74 66 141L140 541H222L151 157Q143 118 133.5 84.5Q124 51 110 21Q96 -9 77.5 -36.5Q59 -64 34 -91Z" glyph-name="dotlessj.small" horiz-adv-x="252" unicode="&#59224;" /><glyph d="M288 -85H235L392 763H445ZM208 -85H155L312 763H365Z" glyph-name="doublebar" horiz-adv-x="569" unicode="&#8214;" /><glyph d="M154 678H247L334 566H273ZM294 678H387L474 566H413Z" glyph-name="doublegrave" horiz-adv-x="600" unicode="&#58386;" /><glyph d="M154 846H247L334 734H273ZM294 846H387L474 734H413Z" glyph-name="doublegrave.cap" horiz-adv-x="600" unicode="&#58412;" /><glyph d="M154 710H247L334 598H273ZM294 710H387L474 598H413Z" glyph-name="doublegrave.small" horiz-adv-x="600" unicode="&#59225;" /><glyph d="M317 452Q291 452 261.5 444Q232 436 209 413Q192 396 179 369Q166 342 155 305H412Q416 320 418.5 336.5Q421 353 421 369Q421 384 417 400.5Q413 417 402 428Q389 441 367 446.5Q345 452 317 452ZM141 238Q135 202 135 173Q135 150 140.5 127.5Q146 105 163 88Q180 71 206.5 64.5Q233 58 274 58Q306 58 347 62.5Q388 67 430 82L417 12Q377 -2 329.5 -7Q282 -12 247 -12Q192 -12 153 3Q114 18 90 42Q46 86 46 169Q46 205 51 244Q56 283 67.5 321Q79 359 98 394Q117 429 145 457Q183 495 231.5 508.5Q280 522 331 522Q379 522 412 508Q445 494 466 473Q484 455 492.5 428.5Q501 402 501 369Q501 335 494 303Q487 271 476 238Z" glyph-name="e" horiz-adv-x="536" unicode="e" /><glyph d="M389 0H36L136 541H483L471 477H205L174 309H405L393 243H162L129 66H401Z" glyph-name="e.small" horiz-adv-x="478" unicode="&#63333;" /><glyph d="M236 558Q219 558 203 553.5Q187 549 173 535Q155 517 146 477H289Q294 499 294 512Q294 533 282 545Q269 558 236 558ZM135 426Q132 405 132 390Q132 377 136 364.5Q140 352 148 344Q165 327 212 327Q230 327 257 330Q284 333 316 344L306 287Q278 278 246.5 274.5Q215 271 193 271Q122 271 89 304Q76 317 68.5 338Q61 359 61 386Q61 408 65 432.5Q69 457 77 481.5Q85 506 97 528.5Q109 551 126 568Q151 593 182 602.5Q213 612 247 612Q279 612 300.5 604Q322 596 336 582Q347 571 353 554Q359 537 359 515Q359 492 354 470.5Q349 449 340 426Z" glyph-name="e.superior" horiz-adv-x="348" unicode="&#58213;" /><glyph d="M379 566H298L427 678H540ZM317 452Q291 452 261.5 444Q232 436 209 413Q192 396 179 369Q166 342 155 305H412Q416 320 418.5 336.5Q421 353 421 369Q421 384 417 400.5Q413 417 402 428Q389 441 367 446.5Q345 452 317 452ZM141 238Q135 202 135 173Q135 150 140.5 127.5Q146 105 163 88Q180 71 206.5 64.5Q233 58 274 58Q306 58 347 62.5Q388 67 430 82L417 12Q377 -2 329.5 -7Q282 -12 247 -12Q192 -12 153 3Q114 18 90 42Q46 86 46 169Q46 205 51 244Q56 283 67.5 321Q79 359 98 394Q117 429 145 457Q183 495 231.5 508.5Q280 522 331 522Q379 522 412 508Q445 494 466 473Q484 455 492.5 428.5Q501 402 501 369Q501 335 494 303Q487 271 476 238Z" glyph-name="eacute" horiz-adv-x="536" unicode="&#233;" /><glyph d="M347 598H266L395 710H508ZM389 0H36L136 541H483L471 477H205L174 309H405L393 243H162L129 66H401Z" glyph-name="eacute.small" horiz-adv-x="478" unicode="&#63465;" /><glyph d="M379 566H298L427 678H540ZM317 452Q291 452 261.5 444Q232 436 209 413Q192 396 179 369Q166 342 155 305H412Q416 320 418.5 336.5Q421 353 421 369Q421 384 417 400.5Q413 417 402 428Q389 441 367 446.5Q345 452 317 452ZM141 238Q135 202 135 173Q135 150 140.5 127.5Q146 105 163 88Q180 71 206.5 64.5Q233 58 274 58Q306 58 347 62.5Q388 67 430 82L417 12Q377 -2 329.5 -7Q282 -12 247 -12Q192 -12 153 3Q114 18 90 42Q46 86 46 169Q46 205 51 244Q56 283 67.5 321Q79 359 98 394Q117 429 145 457Q183 495 231.5 508.5Q280 522 331 522Q379 522 412 508Q445 494 466 473Q484 455 492.5 428.5Q501 402 501 369Q501 335 494 303Q487 271 476 238ZM256 -181H167L183 -96H272Z" glyph-name="eacutedotbelow" horiz-adv-x="536" unicode="&#59232;" /><glyph d="M347 598H266L395 710H508ZM223 -181H134L150 -96H239ZM389 0H36L136 541H483L471 477H205L174 309H405L393 243H162L129 66H401Z" glyph-name="eacutedotbelow.small" horiz-adv-x="478" unicode="&#59234;" /><glyph d="M317 452Q291 452 261.5 444Q232 436 209 413Q192 396 179 369Q166 342 155 305H412Q416 320 418.5 336.5Q421 353 421 369Q421 384 417 400.5Q413 417 402 428Q389 441 367 446.5Q345 452 317 452ZM141 238Q135 202 135 173Q135 150 140.5 127.5Q146 105 163 88Q180 71 206.5 64.5Q233 58 274 58Q306 58 347 62.5Q388 67 430 82L417 12Q377 -2 329.5 -7Q282 -12 247 -12Q192 -12 153 3Q114 18 90 42Q46 86 46 169Q46 205 51 244Q56 283 67.5 321Q79 359 98 394Q117 429 145 457Q183 495 231.5 508.5Q280 522 331 522Q379 522 412 508Q445 494 466 473Q484 455 492.5 428.5Q501 402 501 369Q501 335 494 303Q487 271 476 238ZM354 618Q377 618 400.5 623.5Q424 629 441 646Q455 660 462 678H535Q521 637 496 612Q469 585 430.5 572.5Q392 560 346 560Q267 560 230 597Q215 612 206.5 631Q198 650 199 678H268Q268 664 272 655Q276 646 284 638Q296 626 315 622Q334 618 354 618Z" glyph-name="ebreve" horiz-adv-x="536" unicode="&#277;" /><glyph d="M323 650Q346 650 369.5 655.5Q393 661 410 678Q424 692 431 710H504Q490 669 465 644Q438 617 399.5 604.5Q361 592 315 592Q236 592 199 629Q184 644 175.5 663Q167 682 168 710H237Q237 696 241 687Q245 678 253 670Q265 658 284 654Q303 650 323 650ZM389 0H36L136 541H483L471 477H205L174 309H405L393 243H162L129 66H401Z" glyph-name="ebreve.small" horiz-adv-x="478" unicode="&#63018;" /><glyph d="M218 678H294L349 608L430 678H516L384 562H305ZM317 452Q291 452 261.5 444Q232 436 209 413Q192 396 179 369Q166 342 155 305H412Q416 320 418.5 336.5Q421 353 421 369Q421 384 417 400.5Q413 417 402 428Q389 441 367 446.5Q345 452 317 452ZM141 238Q135 202 135 173Q135 150 140.5 127.5Q146 105 163 88Q180 71 206.5 64.5Q233 58 274 58Q306 58 347 62.5Q388 67 430 82L417 12Q377 -2 329.5 -7Q282 -12 247 -12Q192 -12 153 3Q114 18 90 42Q46 86 46 169Q46 205 51 244Q56 283 67.5 321Q79 359 98 394Q117 429 145 457Q183 495 231.5 508.5Q280 522 331 522Q379 522 412 508Q445 494 466 473Q484 455 492.5 428.5Q501 402 501 369Q501 335 494 303Q487 271 476 238Z" glyph-name="ecaron" horiz-adv-x="536" unicode="&#283;" /><glyph d="M188 710H264L319 640L400 710H486L354 594H275ZM389 0H36L136 541H483L471 477H205L174 309H405L393 243H162L129 66H401Z" glyph-name="ecaron.small" horiz-adv-x="478" unicode="&#63047;" /><glyph d="M486 566H410L355 636L274 566H188L320 682H399ZM317 452Q291 452 261.5 444Q232 436 209 413Q192 396 179 369Q166 342 155 305H412Q416 320 418.5 336.5Q421 353 421 369Q421 384 417 400.5Q413 417 402 428Q389 441 367 446.5Q345 452 317 452ZM141 238Q135 202 135 173Q135 150 140.5 127.5Q146 105 163 88Q180 71 206.5 64.5Q233 58 274 58Q306 58 347 62.5Q388 67 430 82L417 12Q377 -2 329.5 -7Q282 -12 247 -12Q192 -12 153 3Q114 18 90 42Q46 86 46 169Q46 205 51 244Q56 283 67.5 321Q79 359 98 394Q117 429 145 457Q183 495 231.5 508.5Q280 522 331 522Q379 522 412 508Q445 494 466 473Q484 455 492.5 428.5Q501 402 501 369Q501 335 494 303Q487 271 476 238Z" glyph-name="ecircumflex" horiz-adv-x="536" unicode="&#234;" /><glyph d="M464 595H388L333 665L252 595H166L298 711H377ZM389 0H36L136 541H483L471 477H205L174 309H405L393 243H162L129 66H401Z" glyph-name="ecircumflex.small" horiz-adv-x="478" unicode="&#63466;" /><glyph d="M481 587H392L408 673H497ZM291 587H202L218 673H307ZM317 452Q291 452 261.5 444Q232 436 209 413Q192 396 179 369Q166 342 155 305H412Q416 320 418.5 336.5Q421 353 421 369Q421 384 417 400.5Q413 417 402 428Q389 441 367 446.5Q345 452 317 452ZM141 238Q135 202 135 173Q135 150 140.5 127.5Q146 105 163 88Q180 71 206.5 64.5Q233 58 274 58Q306 58 347 62.5Q388 67 430 82L417 12Q377 -2 329.5 -7Q282 -12 247 -12Q192 -12 153 3Q114 18 90 42Q46 86 46 169Q46 205 51 244Q56 283 67.5 321Q79 359 98 394Q117 429 145 457Q183 495 231.5 508.5Q280 522 331 522Q379 522 412 508Q445 494 466 473Q484 455 492.5 428.5Q501 402 501 369Q501 335 494 303Q487 271 476 238Z" glyph-name="edieresis" horiz-adv-x="536" unicode="&#235;" /><glyph d="M459 619H370L386 705H475ZM269 619H180L196 705H285ZM389 0H36L136 541H483L471 477H205L174 309H405L393 243H162L129 66H401Z" glyph-name="edieresis.small" horiz-adv-x="478" unicode="&#63467;" /><glyph d="M393 587H301L318 676H410ZM317 452Q291 452 261.5 444Q232 436 209 413Q192 396 179 369Q166 342 155 305H412Q416 320 418.5 336.5Q421 353 421 369Q421 384 417 400.5Q413 417 402 428Q389 441 367 446.5Q345 452 317 452ZM141 238Q135 202 135 173Q135 150 140.5 127.5Q146 105 163 88Q180 71 206.5 64.5Q233 58 274 58Q306 58 347 62.5Q388 67 430 82L417 12Q377 -2 329.5 -7Q282 -12 247 -12Q192 -12 153 3Q114 18 90 42Q46 86 46 169Q46 205 51 244Q56 283 67.5 321Q79 359 98 394Q117 429 145 457Q183 495 231.5 508.5Q280 522 331 522Q379 522 412 508Q445 494 466 473Q484 455 492.5 428.5Q501 402 501 369Q501 335 494 303Q487 271 476 238Z" glyph-name="edotaccent" horiz-adv-x="536" unicode="&#279;" /><glyph d="M365 619H273L290 708H382ZM389 0H36L136 541H483L471 477H205L174 309H405L393 243H162L129 66H401Z" glyph-name="edotaccent.small" horiz-adv-x="478" unicode="&#63048;" /><glyph d="M130 678H223L310 566H249ZM270 678H363L450 566H389ZM317 452Q291 452 261.5 444Q232 436 209 413Q192 396 179 369Q166 342 155 305H412Q416 320 418.5 336.5Q421 353 421 369Q421 384 417 400.5Q413 417 402 428Q389 441 367 446.5Q345 452 317 452ZM141 238Q135 202 135 173Q135 150 140.5 127.5Q146 105 163 88Q180 71 206.5 64.5Q233 58 274 58Q306 58 347 62.5Q388 67 430 82L417 12Q377 -2 329.5 -7Q282 -12 247 -12Q192 -12 153 3Q114 18 90 42Q46 86 46 169Q46 205 51 244Q56 283 67.5 321Q79 359 98 394Q117 429 145 457Q183 495 231.5 508.5Q280 522 331 522Q379 522 412 508Q445 494 466 473Q484 455 492.5 428.5Q501 402 501 369Q501 335 494 303Q487 271 476 238Z" glyph-name="edoublegrave" horiz-adv-x="536" unicode="&#513;" /><glyph d="M104 710H197L284 598H223ZM244 710H337L424 598H363ZM389 0H36L136 541H483L471 477H205L174 309H405L393 243H162L129 66H401Z" glyph-name="edoublegrave.small" horiz-adv-x="478" unicode="&#59235;" /><glyph d="M188 678H295L382 566H307ZM317 452Q291 452 261.5 444Q232 436 209 413Q192 396 179 369Q166 342 155 305H412Q416 320 418.5 336.5Q421 353 421 369Q421 384 417 400.5Q413 417 402 428Q389 441 367 446.5Q345 452 317 452ZM141 238Q135 202 135 173Q135 150 140.5 127.5Q146 105 163 88Q180 71 206.5 64.5Q233 58 274 58Q306 58 347 62.5Q388 67 430 82L417 12Q377 -2 329.5 -7Q282 -12 247 -12Q192 -12 153 3Q114 18 90 42Q46 86 46 169Q46 205 51 244Q56 283 67.5 321Q79 359 98 394Q117 429 145 457Q183 495 231.5 508.5Q280 522 331 522Q379 522 412 508Q445 494 466 473Q484 455 492.5 428.5Q501 402 501 369Q501 335 494 303Q487 271 476 238Z" glyph-name="egrave" horiz-adv-x="536" unicode="&#232;" /><glyph d="M158 710H265L352 598H277ZM389 0H36L136 541H483L471 477H205L174 309H405L393 243H162L129 66H401Z" glyph-name="egrave.small" horiz-adv-x="478" unicode="&#63464;" /><glyph d="M256 -181H167L183 -96H272ZM188 678H295L382 566H307ZM317 452Q291 452 261.5 444Q232 436 209 413Q192 396 179 369Q166 342 155 305H412Q416 320 418.5 336.5Q421 353 421 369Q421 384 417 400.5Q413 417 402 428Q389 441 367 446.5Q345 452 317 452ZM141 238Q135 202 135 173Q135 150 140.5 127.5Q146 105 163 88Q180 71 206.5 64.5Q233 58 274 58Q306 58 347 62.5Q388 67 430 82L417 12Q377 -2 329.5 -7Q282 -12 247 -12Q192 -12 153 3Q114 18 90 42Q46 86 46 169Q46 205 51 244Q56 283 67.5 321Q79 359 98 394Q117 429 145 457Q183 495 231.5 508.5Q280 522 331 522Q379 522 412 508Q445 494 466 473Q484 455 492.5 428.5Q501 402 501 369Q501 335 494 303Q487 271 476 238Z" glyph-name="egravedotbelow" horiz-adv-x="536" unicode="&#59236;" /><glyph d="M158 710H265L352 598H277ZM223 -181H134L150 -96H239ZM389 0H36L136 541H483L471 477H205L174 309H405L393 243H162L129 66H401Z" glyph-name="egravedotbelow.small" horiz-adv-x="478" unicode="&#59238;" /><glyph d="M282 56Q316 56 354.5 65.5Q393 75 420 102Q443 125 453.5 153Q464 181 464 213Q464 229 460 245.5Q456 262 441 277Q424 294 397.5 303Q371 312 329 312Q292 312 254.5 301.5Q217 291 188 262Q170 244 158 213.5Q146 183 146 153Q146 115 170 91Q190 71 221 63.5Q252 56 282 56ZM343 384Q379 384 412 394.5Q445 405 471 431Q493 453 502.5 482Q512 511 512 538Q512 572 493 591Q479 605 454 613Q429 621 387 621Q339 621 307.5 610Q276 599 256 579Q241 564 230 534Q219 504 219 476Q219 460 225 444.5Q231 429 245 415Q262 398 285.5 391Q309 384 343 384ZM398 690Q452 690 494 675.5Q536 661 562 635Q579 618 589.5 593.5Q600 569 600 542Q600 500 582 458Q564 416 532 385Q516 369 500.5 359Q485 349 469 341V339Q496 327 514 309Q531 292 541.5 266.5Q552 241 552 210Q552 169 535.5 128Q519 87 490 58Q449 17 391.5 2.5Q334 -12 268 -12Q213 -12 168 4Q123 20 95 48Q78 65 68 91Q58 117 58 148Q58 190 74 229.5Q90 269 120 299Q157 336 203 352V354Q195 359 188 364Q181 369 174 376Q157 393 145 419Q133 445 133 480Q133 518 147 556.5Q161 595 187 621Q225 659 278.5 674.5Q332 690 398 690Z" glyph-name="eight" horiz-adv-x="638" unicode="8" /><glyph d="M280 56Q314 56 352.5 65.5Q391 75 418 102Q441 125 451.5 153Q462 181 462 213Q462 229 458 245.5Q454 262 439 277Q422 294 395.5 303Q369 312 327 312Q290 312 252.5 301.5Q215 291 186 262Q168 244 156 213.5Q144 183 144 153Q144 115 168 91Q188 71 219 63.5Q250 56 280 56ZM341 384Q377 384 410 394.5Q443 405 469 431Q491 453 500.5 482Q510 511 510 538Q510 572 491 591Q477 605 452 613Q427 621 385 621Q337 621 305.5 610Q274 599 254 579Q239 564 228 534Q217 504 217 476Q217 460 223 444.5Q229 429 243 415Q260 398 283.5 391Q307 384 341 384ZM396 690Q450 690 492 675.5Q534 661 560 635Q577 618 587.5 593.5Q598 569 598 542Q598 500 580 458Q562 416 530 385Q514 369 498.5 359Q483 349 467 341V339Q494 327 512 309Q529 292 539.5 266.5Q550 241 550 210Q550 169 533.5 128Q517 87 488 58Q447 17 389.5 2.5Q332 -12 266 -12Q211 -12 166 4Q121 20 93 48Q76 65 66 91Q56 117 56 148Q56 190 72 229.5Q88 269 118 299Q155 336 201 352V354Q193 359 186 364Q179 369 172 376Q155 393 143 419Q131 445 131 480Q131 518 145 556.5Q159 595 185 621Q223 659 276.5 674.5Q330 690 396 690Z" glyph-name="eight.LP" horiz-adv-x="634" unicode="&#58685;" /><glyph d="M293 56Q327 56 365.5 65.5Q404 75 431 102Q454 125 464.5 153Q475 181 475 213Q475 229 471 245.5Q467 262 452 277Q435 294 408.5 303Q382 312 340 312Q303 312 265.5 301.5Q228 291 199 262Q181 244 169 213.5Q157 183 157 153Q157 115 181 91Q201 71 232 63.5Q263 56 293 56ZM354 384Q390 384 423 394.5Q456 405 482 431Q504 453 513.5 482Q523 511 523 538Q523 572 504 591Q490 605 465 613Q440 621 398 621Q350 621 318.5 610Q287 599 267 579Q252 564 241 534Q230 504 230 476Q230 460 236 444.5Q242 429 256 415Q273 398 296.5 391Q320 384 354 384ZM409 690Q463 690 505 675.5Q547 661 573 635Q590 618 600.5 593.5Q611 569 611 542Q611 500 593 458Q575 416 543 385Q527 369 511.5 359Q496 349 480 341V339Q507 327 525 309Q542 292 552.5 266.5Q563 241 563 210Q563 169 546.5 128Q530 87 501 58Q460 17 402.5 2.5Q345 -12 279 -12Q224 -12 179 4Q134 20 106 48Q89 65 79 91Q69 117 69 148Q69 190 85 229.5Q101 269 131 299Q168 336 214 352V354Q206 359 199 364Q192 369 185 376Q168 393 156 419Q144 445 144 480Q144 518 158 556.5Q172 595 198 621Q236 659 289.5 674.5Q343 690 409 690Z" glyph-name="eight.LT" horiz-adv-x="660" unicode="&#58696;" /><glyph d="M293 56Q327 56 365.5 65.5Q404 75 431 102Q454 125 464.5 153Q475 181 475 213Q475 229 471 245.5Q467 262 452 277Q435 294 408.5 303Q382 312 340 312Q303 312 265.5 301.5Q228 291 199 262Q181 244 169 213.5Q157 183 157 153Q157 115 181 91Q201 71 232 63.5Q263 56 293 56ZM354 384Q390 384 423 394.5Q456 405 482 431Q504 453 513.5 482Q523 511 523 538Q523 572 504 591Q490 605 465 613Q440 621 398 621Q350 621 318.5 610Q287 599 267 579Q252 564 241 534Q230 504 230 476Q230 460 236 444.5Q242 429 256 415Q273 398 296.5 391Q320 384 354 384ZM409 690Q463 690 505 675.5Q547 661 573 635Q590 618 600.5 593.5Q611 569 611 542Q611 500 593 458Q575 416 543 385Q527 369 511.5 359Q496 349 480 341V339Q507 327 525 309Q542 292 552.5 266.5Q563 241 563 210Q563 169 546.5 128Q530 87 501 58Q460 17 402.5 2.5Q345 -12 279 -12Q224 -12 179 4Q134 20 106 48Q89 65 79 91Q69 117 69 148Q69 190 85 229.5Q101 269 131 299Q168 336 214 352V354Q206 359 199 364Q192 369 185 376Q168 393 156 419Q144 445 144 480Q144 518 158 556.5Q172 595 198 621Q236 659 289.5 674.5Q343 690 409 690Z" glyph-name="eight.OT" horiz-adv-x="660" unicode="&#58718;" /><glyph d="M135 43Q151 43 162 46Q173 49 186 60Q197 69 201 83.5Q205 98 205 110Q205 122 197 132Q186 144 154 144Q134 144 121 139.5Q108 135 100 127Q92 119 88 105.5Q84 92 84 81Q84 71 87 65.5Q90 60 95 55Q107 43 135 43ZM125 -12Q86 -12 65 -33Q56 -42 51.5 -55.5Q47 -69 47 -81Q47 -98 58 -109Q66 -117 79 -120Q92 -123 104 -123Q118 -123 134.5 -118.5Q151 -114 162 -103Q172 -93 177 -79.5Q182 -66 182 -53Q182 -40 175 -31Q167 -21 156 -16.5Q145 -12 125 -12ZM95 -174Q65 -174 39 -166Q13 -158 -2 -143Q-24 -121 -24 -89Q-24 -65 -15 -44.5Q-6 -24 10 -8Q24 6 43 17V18L40 21Q29 31 21.5 46Q14 61 14 82Q14 104 22.5 123.5Q31 143 45 157Q66 178 95.5 187Q125 196 162 196Q194 196 218.5 187Q243 178 258 163Q276 145 276 116Q276 69 237 30Q232 25 227 21.5Q222 18 217 14V13Q221 11 224 8Q227 5 230 2Q252 -20 252 -54Q252 -78 241.5 -99.5Q231 -121 216 -136Q195 -157 162.5 -165.5Q130 -174 95 -174Z" glyph-name="eight.inf" horiz-adv-x="348" unicode="&#58745;" /><glyph d="M349 626Q326 626 302.5 620.5Q279 615 262 598Q248 584 241 566H168Q181 606 207 632Q234 659 272.5 671.5Q311 684 357 684Q436 684 473 647Q488 632 496.5 613Q505 594 504 566H435Q435 580 431 589Q427 598 419 606Q407 618 388 622Q369 626 349 626ZM317 452Q291 452 261.5 444Q232 436 209 413Q192 396 179 369Q166 342 155 305H412Q416 320 418.5 336.5Q421 353 421 369Q421 384 417 400.5Q413 417 402 428Q389 441 367 446.5Q345 452 317 452ZM141 238Q135 202 135 173Q135 150 140.5 127.5Q146 105 163 88Q180 71 206.5 64.5Q233 58 274 58Q306 58 347 62.5Q388 67 430 82L417 12Q377 -2 329.5 -7Q282 -12 247 -12Q192 -12 153 3Q114 18 90 42Q46 86 46 169Q46 205 51 244Q56 283 67.5 321Q79 359 98 394Q117 429 145 457Q183 495 231.5 508.5Q280 522 331 522Q379 522 412 508Q445 494 466 473Q484 455 492.5 428.5Q501 402 501 369Q501 335 494 303Q487 271 476 238Z" glyph-name="einvertedbreve" horiz-adv-x="536" unicode="&#519;" /><glyph d="M328 658Q305 658 281.5 652.5Q258 647 241 630Q227 616 220 598H147Q160 638 186 664Q213 691 251.5 703.5Q290 716 336 716Q415 716 452 679Q467 664 475.5 645Q484 626 483 598H414Q414 612 410 621Q406 630 398 638Q386 650 367 654Q348 658 328 658ZM389 0H36L136 541H483L471 477H205L174 309H405L393 243H162L129 66H401Z" glyph-name="einvertedbreve.small" horiz-adv-x="478" unicode="&#59239;" /><glyph d="M948 0H842L861 107H967ZM525 0H419L438 107H544ZM101 0H-5L14 107H120Z" glyph-name="ellipsis" horiz-adv-x="1037" unicode="&#8230;" /><glyph d="M517 599H186L198 667H529ZM317 452Q291 452 261.5 444Q232 436 209 413Q192 396 179 369Q166 342 155 305H412Q416 320 418.5 336.5Q421 353 421 369Q421 384 417 400.5Q413 417 402 428Q389 441 367 446.5Q345 452 317 452ZM141 238Q135 202 135 173Q135 150 140.5 127.5Q146 105 163 88Q180 71 206.5 64.5Q233 58 274 58Q306 58 347 62.5Q388 67 430 82L417 12Q377 -2 329.5 -7Q282 -12 247 -12Q192 -12 153 3Q114 18 90 42Q46 86 46 169Q46 205 51 244Q56 283 67.5 321Q79 359 98 394Q117 429 145 457Q183 495 231.5 508.5Q280 522 331 522Q379 522 412 508Q445 494 466 473Q484 455 492.5 428.5Q501 402 501 369Q501 335 494 303Q487 271 476 238Z" glyph-name="emacron" horiz-adv-x="536" unicode="&#275;" /><glyph d="M488 631H157L169 699H500ZM389 0H36L136 541H483L471 477H205L174 309H405L393 243H162L129 66H401Z" glyph-name="emacron.small" horiz-adv-x="478" unicode="&#63049;" /><glyph d="M1086 236H53L66 307H1099Z" glyph-name="emdash" horiz-adv-x="1145" unicode="&#8212;" /><glyph d="M1099 310H66L79 381H1112Z" glyph-name="emdash.cap" horiz-adv-x="1145" unicode="&#58502;" /><glyph glyph-name="emspace" horiz-adv-x="1000" unicode="&#8195;" /><glyph d="M549 236H53L66 307H562Z" glyph-name="endash" horiz-adv-x="608" unicode="&#8211;" /><glyph d="M562 310H66L79 381H575Z" glyph-name="endash.cap" horiz-adv-x="608" unicode="&#58500;" /><glyph d="M484 103Q476 59 467.5 22Q459 -15 447 -47.5Q435 -80 417.5 -109.5Q400 -139 374 -168H287Q323 -126 351 -72Q379 -18 390 41L445 343Q456 400 439 423.5Q422 447 364 447Q317 447 270 421.5Q223 396 183 355L120 0H38L130 510H189L188 438H189Q241 483 294 501Q347 519 398 519Q445 519 474 508.5Q503 498 517.5 477Q532 456 534 425Q536 394 529 354Z" glyph-name="eng" horiz-adv-x="589" unicode="&#331;" /><glyph d="M294 -168Q328 -127 353.5 -85.5Q379 -44 396 2L243 317Q231 343 217 371Q203 399 191 426H189Q184 395 178 359.5Q172 324 166 288Q160 252 154 218Q148 184 143 156L115 0H36L135 541H221L373 224Q386 198 399.5 170Q413 142 425 115H427Q432 146 438 181.5Q444 217 450 253Q456 289 462.5 323Q469 357 474 385L503 541H582L497 80Q490 41 480 7.5Q470 -26 456.5 -56Q443 -86 424 -113.5Q405 -141 380 -168Z" glyph-name="eng.small" horiz-adv-x="613" unicode="&#63019;" /><glyph glyph-name="enspace" horiz-adv-x="500" unicode="&#8194;" /><glyph d="M317 452Q291 452 261.5 444Q232 436 209 413Q192 396 179 369Q166 342 155 305H412Q416 320 418.5 336.5Q421 353 421 369Q421 384 417 400.5Q413 417 402 428Q389 441 367 446.5Q345 452 317 452ZM141 238Q135 202 135 173Q135 150 140.5 127.5Q146 105 163 88Q180 71 206.5 64.5Q233 58 274 58Q306 58 347 62.5Q388 67 430 82L417 12Q400 4 386 -6.5Q372 -17 361 -28Q350 -39 340 -55Q330 -71 330 -89Q330 -101 338 -109Q347 -118 368 -118Q382 -118 398 -116Q414 -114 432 -109L422 -164Q406 -170 384 -172Q362 -174 345 -174Q317 -174 298 -167Q279 -160 268 -149Q251 -132 251 -106Q251 -86 261.5 -66.5Q272 -47 287 -32Q293 -26 299 -20Q305 -14 313 -8Q295 -10 278 -11Q261 -12 247 -12Q192 -12 153 3Q114 18 90 42Q46 86 46 169Q46 205 51 244Q56 283 67.5 321Q79 359 98 394Q117 429 145 457Q183 495 231.5 508.5Q280 522 331 522Q379 522 412 508Q445 494 466 473Q484 455 492.5 428.5Q501 402 501 369Q501 335 494 303Q487 271 476 238Z" glyph-name="eogonek" horiz-adv-x="536" unicode="&#281;" /><glyph d="M36 0 136 541H483L471 477H205L174 309H405L393 243H162L129 66H401L389 0Q367 -11 346 -32Q334 -44 326 -58.5Q318 -73 318 -89Q318 -101 326 -109Q335 -118 356 -118Q370 -118 386 -116Q402 -114 420 -109L410 -164Q394 -170 372 -172Q350 -174 333 -174Q305 -174 286 -167Q267 -160 256 -149Q239 -132 239 -106Q239 -84 249 -65.5Q259 -47 276 -30Q285 -21 295.5 -14Q306 -7 317 0Z" glyph-name="eogonek.small" horiz-adv-x="478" unicode="&#63050;" /><glyph d="M530 138H34L47 209H543ZM568 340H72L85 411H581Z" glyph-name="equal" horiz-adv-x="608" unicode="=" /><glyph d="M603 209H47L61 280H617ZM641 411H85L98 482H654Z" glyph-name="equal.cap" horiz-adv-x="668" unicode="&#58773;" /><glyph d="M293 -62H-14L-4 -9H303ZM312 40H5L15 93H322Z" glyph-name="equal.inf" horiz-adv-x="397" unicode="&#58749;" /><glyph d="M475 632Q412 632 370 611Q328 590 302 553.5Q276 517 264 468.5Q252 420 250 366H696Q694 420 683 468.5Q672 517 646.5 553.5Q621 590 579 611Q537 632 475 632ZM802 229Q792 166 765 120.5Q738 75 695.5 45.5Q653 16 597.5 2Q542 -12 475 -12Q399 -12 335.5 12.5Q272 37 226.5 83Q181 129 156 193.5Q131 258 131 338Q131 418 156 483Q181 548 226.5 594Q272 640 335.5 665Q399 690 475 690Q550 690 612.5 665Q675 640 720 594Q765 548 790 483Q815 418 815 338V309H250Q252 255 264 207Q276 159 302 123Q328 87 370 66Q412 45 475 45Q588 45 653.5 88.5Q719 132 735 229Z" glyph-name="estimated" horiz-adv-x="914" unicode="&#8494;" /><glyph d="M319 447Q281 447 252.5 434.5Q224 422 204 402Q184 382 170.5 355Q157 328 148 297Q139 266 135 233.5Q131 201 131 172Q131 111 160 82Q189 53 253 53Q333 53 376 96Q396 116 410.5 144.5Q425 173 434 205Q443 237 447.5 270Q452 303 452 332Q452 358 446 378.5Q440 399 425 414Q409 430 383.5 438.5Q358 447 319 447ZM444 485H446Q447 485 447 486Q439 521 422 547Q405 573 383 591L224 525L211 577L334 627Q308 641 270 654L339 696Q358 690 375 682Q392 674 412 661L532 711L546 659L457 622Q499 579 520.5 516Q542 453 542 374Q542 333 538 289Q534 245 522 201.5Q510 158 489.5 118Q469 78 436 45Q397 6 344 -5.5Q291 -17 236 -17Q193 -17 155 -4Q117 9 90 36Q72 54 58.5 87.5Q45 121 45 169Q45 205 50.5 243.5Q56 282 67.5 319.5Q79 357 98 391.5Q117 426 144 453Q165 474 189 486.5Q213 499 237 506Q261 513 284.5 515Q308 517 328 517Q339 517 354.5 515.5Q370 514 386.5 510.5Q403 507 418 501Q433 495 444 485Z" glyph-name="eth" horiz-adv-x="586" unicode="&#240;" /><glyph d="M384 109Q403 128 417.5 156Q432 184 442 216.5Q452 249 457 284Q462 319 462 351Q462 376 456.5 403Q451 430 431 450Q414 467 391.5 472Q369 477 337 477H218L187 309H357L345 243H174L142 66H261Q293 66 324 73Q355 80 384 109ZM549 355Q549 320 543.5 280.5Q538 241 525.5 202.5Q513 164 493 127.5Q473 91 444 62Q406 24 357 12Q308 0 253 0H48L93 243H12L24 309H105L148 541H353Q407 541 442 528.5Q477 516 505 488Q529 464 539 428.5Q549 393 549 355Z" glyph-name="eth.small" horiz-adv-x="590" unicode="&#59240;" /><glyph d="M163 216H95L167 678H261ZM142 0H36L55 107H161Z" glyph-name="exclam" horiz-adv-x="272" unicode="!" /><glyph d="M108 294H176L104 -168H10ZM129 510H235L216 403H110Z" glyph-name="exclamdown" horiz-adv-x="272" unicode="&#161;" /><glyph d="M140 462H208L136 0H42ZM161 678H267L248 571H142Z" glyph-name="exclamdown.cap" horiz-adv-x="272" unicode="&#58433;" /><glyph d="M154 0H72L153 443H67L77 501L165 508L173 546Q182 586 195.5 613.5Q209 641 230.5 657Q252 673 283.5 680Q315 687 359 687Q378 687 408 684.5Q438 682 466 675L453 608Q430 613 403 615.5Q376 618 358 618Q333 618 315 615Q297 612 284.5 603Q272 594 264.5 578Q257 562 252 536L247 510H424L412 443H235Z" glyph-name="f" horiz-adv-x="371" unicode="f" /><glyph d="M36 0 136 541H489L477 477H205L174 309H405L393 243H162L117 0Z" glyph-name="f.small" horiz-adv-x="442" unicode="&#63334;" /><glyph d="M140 279H73L123 546H68L76 591L132 596L136 616Q141 645 150.5 664Q160 683 175 694Q190 705 211 709Q232 713 261 713Q274 713 294.5 711Q315 709 334 704L325 654Q310 658 289 659.5Q268 661 255 661Q226 661 216.5 649.5Q207 638 202 613L199 597H308L299 546H190Z" glyph-name="f.superior" horiz-adv-x="239" unicode="&#58214;" /><glyph d="M154 0H72L154 443H65L75 501L166 508L171 535Q179 580 193.5 609.5Q208 639 230.5 656Q253 673 285 680Q317 687 360 687Q377 687 397.5 684.5Q418 682 446 675L433 608Q410 614 393 616Q376 618 359 618Q327 618 308 613Q289 608 278 597Q267 586 261.5 569.5Q256 553 252 531L248 510H415L403 443H236ZM615 61Q656 61 689 72Q722 83 748 109Q764 125 777.5 151.5Q791 178 800 208.5Q809 239 814 271.5Q819 304 819 333Q819 393 789 423Q777 435 756 442Q735 449 709 449Q667 449 628 425.5Q589 402 554 366L505 99Q523 79 553 70Q583 61 615 61ZM733 519Q777 519 809.5 506.5Q842 494 864 472Q886 450 897 419Q908 388 908 343Q908 308 902 269Q896 230 884 191.5Q872 153 854 118.5Q836 84 811 59Q773 21 721.5 6Q670 -9 617 -9Q602 -9 583.5 -6.5Q565 -4 546 1.5Q527 7 509.5 15.5Q492 24 479 36H477L460 0H405L529 678H611L571 460H573Q614 492 654.5 505.5Q695 519 733 519Z" glyph-name="f_b" horiz-adv-x="954" unicode="&#58241;" /><glyph d="M487 0H405L499 510H581ZM154 0H72L154 443H65L75 501L166 508L171 535Q179 580 193.5 609.5Q208 639 230.5 656Q253 673 285 680Q317 687 360 687Q377 687 397.5 684.5Q418 682 446 675L433 608Q410 614 393 616Q376 618 359 618Q327 618 308 613Q289 608 278 597Q267 586 261.5 569.5Q256 553 252 531L248 510H415L403 443H236Z" glyph-name="f_dotlessi" horiz-adv-x="619" unicode="&#59248;" /><glyph d="M516 0H434L515 443H421L431 501L527 508L535 546Q544 586 557.5 613.5Q571 641 592.5 657Q614 673 645.5 680Q677 687 721 687Q740 687 770 684.5Q800 682 828 675L815 608Q792 613 765 615.5Q738 618 720 618Q695 618 677 615Q659 612 646.5 603Q634 594 626.5 578Q619 562 614 536L609 510H785L773 443H597ZM153 0H71L152 443H66L76 501L164 508L172 546Q181 586 194.5 613.5Q208 641 229.5 657Q251 673 282.5 680Q314 687 358 687Q377 687 407 684.5Q437 682 465 675L452 608Q429 613 402 615.5Q375 618 357 618Q332 618 314 615Q296 612 283.5 603Q271 594 263.5 578Q256 562 251 536L246 510H385L373 443H234Z" glyph-name="f_f" horiz-adv-x="732" unicode="&#64256;" /><glyph d="M153 0H71L152 443H66L76 501L164 508L172 546Q181 586 194.5 613.5Q208 641 229.5 657Q251 673 282.5 680Q314 687 358 687Q377 687 407 684.5Q437 682 465 675L452 608Q429 613 402 615.5Q375 618 357 618Q332 618 314 615Q296 612 283.5 603Q271 594 263.5 578Q256 562 251 536L246 510H385L373 443H234ZM515 0H433L515 443H421L431 501L527 508L532 535Q540 580 554.5 609.5Q569 639 591.5 656Q614 673 646 680Q678 687 721 687Q738 687 758.5 684.5Q779 682 807 675L794 608Q771 614 754 616Q737 618 720 618Q688 618 669 613Q650 608 639 597Q628 586 622.5 569.5Q617 553 613 531L609 510H776L764 443H597ZM977 61Q1018 61 1051 72Q1084 83 1110 109Q1126 125 1139.5 151.5Q1153 178 1162 208.5Q1171 239 1176 271.5Q1181 304 1181 333Q1181 393 1151 423Q1139 435 1118 442Q1097 449 1071 449Q1029 449 990 425.5Q951 402 916 366L867 99Q885 79 915 70Q945 61 977 61ZM1095 519Q1139 519 1171.5 506.5Q1204 494 1226 472Q1248 450 1259 419Q1270 388 1270 343Q1270 308 1264 269Q1258 230 1246 191.5Q1234 153 1216 118.5Q1198 84 1173 59Q1135 21 1083.5 6Q1032 -9 979 -9Q964 -9 945.5 -6.5Q927 -4 908 1.5Q889 7 871.5 15.5Q854 24 841 36H839L822 0H767L891 678H973L933 460H935Q976 492 1016.5 505.5Q1057 519 1095 519Z" glyph-name="f_f_b" horiz-adv-x="1315" unicode="&#57896;" /><glyph d="M848 0H766L860 510H942ZM153 0H71L152 443H66L76 501L164 508L172 546Q181 586 194.5 613.5Q208 641 229.5 657Q251 673 282.5 680Q314 687 358 687Q377 687 407 684.5Q437 682 465 675L452 608Q429 613 402 615.5Q375 618 357 618Q332 618 314 615Q296 612 283.5 603Q271 594 263.5 578Q256 562 251 536L246 510H385L373 443H234ZM515 0H433L515 443H421L431 501L527 508L532 535Q540 580 554.5 609.5Q569 639 591.5 656Q614 673 646 680Q678 687 721 687Q738 687 758.5 684.5Q779 682 807 675L794 608Q771 614 754 616Q737 618 720 618Q688 618 669 613Q650 608 639 597Q628 586 622.5 569.5Q617 553 613 531L609 510H776L764 443H597Z" glyph-name="f_f_dotlessi" horiz-adv-x="980" unicode="&#59249;" /><glyph d="M153 0H71L152 443H66L76 501L164 508L172 546Q181 586 194.5 613.5Q208 641 229.5 657Q251 673 282.5 680Q314 687 358 687Q377 687 407 684.5Q437 682 465 675L452 608Q429 613 402 615.5Q375 618 357 618Q332 618 314 615Q296 612 283.5 603Q271 594 263.5 578Q256 562 251 536L246 510H385L373 443H234ZM515 0H433L515 443H421L431 501L527 508L532 535Q540 580 554.5 609.5Q569 639 591.5 656Q614 673 646 680Q678 687 721 687Q738 687 758.5 684.5Q779 682 807 675L794 608Q771 614 754 616Q737 618 720 618Q688 618 669 613Q650 608 639 597Q628 586 622.5 569.5Q617 553 613 531L609 510H776L764 443H597ZM765 0 890 678H972L929 447H931Q980 487 1029.5 503Q1079 519 1127 519Q1174 519 1203 508.5Q1232 498 1247 477Q1262 456 1263.5 425Q1265 394 1258 354L1194 0H1112L1174 343Q1185 400 1168 423.5Q1151 447 1093 447Q1046 447 999 421.5Q952 396 912 355L849 0Z" glyph-name="f_f_h" horiz-adv-x="1316" unicode="&#57897;" /></font>
</defs>
</svg>
